<svg id="_5stardrilling" data-name="5stardrilling" xmlns="http://www.w3.org/2000/svg" width="109.096" height="36.306" viewBox="0 0 109.096 36.306">
  <g id="Grupo_166" data-name="Grupo 166" transform="translate(36.402 24.561)">
    <g id="Grupo_158" data-name="Grupo 158" transform="translate(0 0.139)">
      <path id="Trazado_454" data-name="Trazado 454" d="M491.319,548.113h2.316a5.639,5.639,0,0,1,3.443.937,3.841,3.841,0,0,1,1.493,3.164,4.959,4.959,0,0,1-1.709,3.772,5.859,5.859,0,0,1-3.936,1.291H489.7Zm1.747,7.4a3.386,3.386,0,0,0,2.595-.937,3.288,3.288,0,0,0,.886-2.253,2.253,2.253,0,0,0-.861-1.886,3.371,3.371,0,0,0-2.114-.569h-.544l-1,5.645Z" transform="translate(-489.699 -548.113)" fill="#fff"/>
    </g>
    <g id="Grupo_159" data-name="Grupo 159" transform="translate(11.166 0.139)">
      <path id="Trazado_455" data-name="Trazado 455" d="M573,548.113h2.658a4.3,4.3,0,0,1,2.544.607,2.218,2.218,0,0,1,.937,1.861,2.986,2.986,0,0,1-.645,1.848,3.188,3.188,0,0,1-1.557,1.013l1.823,3.835H576.5l-1.557-3.62h-.9l-.646,3.62h-2.012Zm2.468,4.037a1.872,1.872,0,0,0,1.253-.354,1.081,1.081,0,0,0,.393-.873.872.872,0,0,0-.38-.785,2,2,0,0,0-1.165-.266H574.7l-.4,2.278Z" transform="translate(-571.384 -548.113)" fill="#fff"/>
    </g>
    <g id="Grupo_160" data-name="Grupo 160" transform="translate(21.474 0.139)">
      <path id="Trazado_456" data-name="Trazado 456" d="M648.328,548.113h2.012l-1.62,9.164h-2.013Z" transform="translate(-646.708 -548.113)" fill="#fff"/>
    </g>
    <g id="Grupo_161" data-name="Grupo 161" transform="translate(27.486 0.139)">
      <path id="Trazado_457" data-name="Trazado 457" d="M700.089,548.113H702.1l-1.3,7.4h3.923l-.316,1.759h-5.936Z" transform="translate(-698.469 -548.113)" fill="#fff"/>
    </g>
    <g id="Grupo_162" data-name="Grupo 162" transform="translate(36.075 0.139)">
      <path id="Trazado_458" data-name="Trazado 458" d="M766.811,548.113h2.013l-1.3,7.4h3.924l-.316,1.759h-5.936Z" transform="translate(-765.191 -548.113)" fill="#fff"/>
    </g>
    <g id="Grupo_163" data-name="Grupo 163" transform="translate(45.524 0.139)">
      <path id="Trazado_459" data-name="Trazado 459" d="M833.533,548.113h2.012l-1.62,9.164h-2.012Z" transform="translate(-831.913 -548.113)" fill="#fff"/>
    </g>
    <g id="Grupo_164" data-name="Grupo 164" transform="translate(51.537 0.139)">
      <path id="Trazado_460" data-name="Trazado 460" d="M883.673,557.277l1.62-9.164h1.86l2.114,3.822c.43.785.861,1.57,1.266,2.341l.025-.013q.19-1.234.418-2.506l.645-3.645h1.937l-1.62,9.164h-1.861l-2.114-3.823c-.43-.785-.861-1.569-1.266-2.342l-.025.013q-.19,1.234-.418,2.506l-.645,3.645Z" transform="translate(-883.673 -548.113)" fill="#fff"/>
    </g>
    <g id="Grupo_165" data-name="Grupo 165" transform="translate(63.561)">
      <path id="Trazado_461" data-name="Trazado 461" d="M978.318,556.2a6.87,6.87,0,0,1-2.747.557c-2.519,0-4.43-1.418-4.43-4.037a5.61,5.61,0,0,1,1.671-3.987,5.187,5.187,0,0,1,3.683-1.418,6.587,6.587,0,0,1,2.911.709l-.354,2a4.889,4.889,0,0,0-2.658-.9,3.06,3.06,0,0,0-2.24.886,3.648,3.648,0,0,0-.987,2.519A2.319,2.319,0,0,0,975.723,555a3.515,3.515,0,0,0,.81-.1l.266-1.481h-1.456l.291-1.671H979.1Z" transform="translate(-971.141 -547.317)" fill="#fff"/>
    </g>
  </g>
  <g id="Grupo_177" data-name="Grupo 177" transform="translate(0)">
    <g id="Grupo_167" data-name="Grupo 167" transform="translate(4.03 13.704)">
      <path id="Trazado_462" data-name="Trazado 462" d="M217.048,463.367l14,15.983-16.2-13.824Z" transform="translate(-214.841 -463.367)" fill="#fff"/>
    </g>
    <g id="Grupo_168" data-name="Grupo 168" transform="translate(9.07 26.129)">
      <path id="Trazado_463" data-name="Trazado 463" d="M262.2,573.643l-5.868-7.971,7.5,6.458Z" transform="translate(-256.336 -565.672)" fill="#fff"/>
    </g>
    <g id="Grupo_169" data-name="Grupo 169" transform="translate(21.49 8.834)">
      <path id="Trazado_464" data-name="Trazado 464" d="M364.8,431.224l-6.2-7.956,8.194,5.886Z" transform="translate(-358.595 -423.268)" fill="#fff"/>
    </g>
    <g id="Grupo_170" data-name="Grupo 170" transform="translate(12.601 5.053)">
      <path id="Trazado_465" data-name="Trazado 465" d="M287.9,392.14l8.216,12.79-10.7-10.615Z" transform="translate(-285.413 -392.14)" fill="#fff"/>
    </g>
    <g id="Grupo_171" data-name="Grupo 171" transform="translate(11.81 13.708)">
      <path id="Trazado_466" data-name="Trazado 466" d="M289.326,475.139,278.893,463.4l12.713,9.248Z" transform="translate(-278.893 -463.404)" fill="#fff"/>
    </g>
    <g id="Grupo_172" data-name="Grupo 172" transform="translate(13.649 31.305)">
      <path id="Trazado_467" data-name="Trazado 467" d="M296.672,613.292l-.621-1.91h-2.008l1.625-1.181-.621-1.91,1.625,1.181,1.625-1.181-.621,1.91,1.625,1.181h-2.008Z" transform="translate(-294.042 -608.291)" fill="#fff"/>
    </g>
    <g id="Grupo_173" data-name="Grupo 173" transform="translate(24.174 11.104)">
      <path id="Trazado_468" data-name="Trazado 468" d="M385.217,441.96l1.066,3.28h3.449l-2.79,2.027,1.066,3.28-2.79-2.027-2.79,2.027,1.066-3.28-2.79-2.027h3.449Z" transform="translate(-380.702 -441.96)" fill="#fff"/>
    </g>
    <g id="Grupo_174" data-name="Grupo 174" transform="translate(0 9.668)">
      <path id="Trazado_469" data-name="Trazado 469" d="M186.172,430.138l1.066,3.28h3.449l-2.79,2.027,1.066,3.28-2.79-2.027-2.79,2.027,1.066-3.28-2.79-2.027h3.449Z" transform="translate(-181.658 -430.138)" fill="#fff"/>
    </g>
    <g id="Grupo_175" data-name="Grupo 175" transform="translate(7.99)">
      <path id="Trazado_470" data-name="Trazado 470" d="M253.3,350.534l1.382,4.253h4.472l-3.618,2.628,1.382,4.253-3.618-2.628-3.618,2.628,1.382-4.253-3.618-2.628h4.472Z" transform="translate(-247.446 -350.534)" fill="#fff"/>
    </g>
    <g id="Grupo_176" data-name="Grupo 176" transform="translate(20.344 20.615)">
      <path id="Trazado_471" data-name="Trazado 471" d="M352.646,520.267l.822,2.53h2.66l-2.152,1.564.822,2.53-2.152-1.563-2.152,1.563.822-2.53-2.152-1.564h2.66Z" transform="translate(-349.164 -520.267)" fill="#fff"/>
    </g>
  </g>
  <g id="Grupo_178" data-name="Grupo 178" transform="translate(38.966 2.303)">
    <path id="Trazado_472" data-name="Trazado 472" d="M500.808,434.065a9.663,9.663,0,0,0,4.979,1.642,3.856,3.856,0,0,0,2.4-.678,2.052,2.052,0,0,0,.782-1.59c0-1.329-1.3-2.085-2.868-2.528a18.263,18.263,0,0,0-4.353-.547l2.5-10.166h10.088l-.886,3.623h-5.917l-.938,3.858a10.57,10.57,0,0,1,3.78,1.069,4.91,4.91,0,0,1,2.737,4.457,5.643,5.643,0,0,1-2.4,4.614,8.771,8.771,0,0,1-5.214,1.538,12.85,12.85,0,0,1-5.656-1.382Z" transform="translate(-499.844 -420.198)" fill="#fff"/>
    <path id="Trazado_473" data-name="Trazado 473" d="M628.639,467.454a6.163,6.163,0,0,0,3.724,1.641,1.736,1.736,0,0,0,1.116-.328,1.179,1.179,0,0,0,.459-.935c0-.87-.935-1.149-2.2-1.788-1.411-.706-2.527-1.444-2.527-3.117a3.672,3.672,0,0,1,1.608-3.036,4.762,4.762,0,0,1,2.74-.788,7.137,7.137,0,0,1,3.626,1.034l-.459,2.576a6.435,6.435,0,0,0-3.38-1.345,1.776,1.776,0,0,0-1.034.279,1.187,1.187,0,0,0-.459.952c0,.8.837,1.083,2.067,1.69,1.542.755,2.658,1.477,2.658,3.2a3.67,3.67,0,0,1-1.362,2.888,4.9,4.9,0,0,1-3.068.968,7.72,7.72,0,0,1-3.987-1.181Z" transform="translate(-605.694 -452.291)" fill="#fff"/>
    <path id="Trazado_474" data-name="Trazado 474" d="M704.475,462.415h-3.79l.41-2.281h10.189l-.41,2.281h-3.79l-1.69,9.6h-2.609Z" transform="translate(-665.518 -453.141)" fill="#fff"/>
    <path id="Trazado_475" data-name="Trazado 475" d="M760.493,460.134h2.543l2.625,11.879h-2.691l-.509-2.494h-4.61l-1.395,2.494h-2.74Zm-1.51,7.334h3.052l-.3-1.427c-.18-.87-.345-1.772-.492-2.658h-.033c-.443.87-.952,1.788-1.444,2.674Z" transform="translate(-709.264 -453.141)" fill="#fff"/>
    <path id="Trazado_476" data-name="Trazado 476" d="M845.017,460.134h3.446a5.577,5.577,0,0,1,3.3.788,2.876,2.876,0,0,1,1.214,2.412,3.872,3.872,0,0,1-.837,2.4,4.131,4.131,0,0,1-2.018,1.313l2.363,4.971h-2.937l-2.018-4.693h-1.165l-.837,4.693h-2.609Zm3.2,5.234a2.426,2.426,0,0,0,1.624-.459,1.4,1.4,0,0,0,.509-1.132,1.13,1.13,0,0,0-.492-1.017,2.6,2.6,0,0,0-1.51-.345h-1.132l-.525,2.953Z" transform="translate(-782.845 -453.141)" fill="#fff"/>
  </g>
</svg>
