<svg id="ann" xmlns="http://www.w3.org/2000/svg" width="110.05" height="44.684" viewBox="0 0 110.05 44.684">
  <path id="Trazado_342" data-name="Trazado 342" d="M279.127,223.459c-.034-.119-.079-.247-.131-.379-1.49-4.744-4.3-10.389-9.153-10.582a2.422,2.422,0,0,0-.829.407l-.748-.413h-7.6l.961,5.242c.751,4.6,3.391,14.893,10.758,14.893h11.772S281.619,232.229,279.127,223.459Z" transform="translate(-237.976 -212.492)" fill="#fff"/>
  <path id="Trazado_343" data-name="Trazado 343" d="M175.026,227.387c.909-4.6,3.813-14.9,10.5-14.9H197.6s-4.31.561-6.639,14.9l-2.731,14.894c-.749,4.6-3.392,14.895-10.758,14.895H165.7s3.555-.561,6.383-14.895Z" transform="translate(-165.704 -212.492)" fill="#fff"/>
  <path id="Trazado_344" data-name="Trazado 344" d="M433.592,227.387c-.907-4.6-3.812-14.9-10.5-14.9H411.014s4.309.561,6.639,14.9l2.731,14.894c.751,4.6,3.392,14.895,10.759,14.895h11.771s-3.554-.561-6.383-14.895Z" transform="translate(-352.402 -212.492)" fill="#fff"/>
  <path id="Trazado_345" data-name="Trazado 345" d="M338.566,227.387c.908-4.6,3.812-14.9,10.5-14.9h12.075s-4.311.561-6.64,14.9l-2.73,14.894c-.751,4.6-3.392,14.895-10.759,14.895H329.244s3.555-.561,6.383-14.895Z" transform="translate(-290.169 -212.492)" fill="#fff"/>
  <path id="Trazado_346" data-name="Trazado 346" d="M502.1,227.387c.908-4.6,3.813-14.9,10.5-14.9h12.075s-4.31.561-6.64,14.9l-2.731,14.894c-.751,4.6-3.391,14.895-10.758,14.895H492.781s3.555-.561,6.383-14.895Z" transform="translate(-414.632 -212.492)" fill="#fff"/>
  <path id="Trazado_347" data-name="Trazado 347" d="M247.474,212.492l.034.006c.084,0,.168-.006.256-.006Z" transform="translate(-227.937 -212.492)" fill="#fff"/>
  <path id="Trazado_348" data-name="Trazado 348" d="M291.23,327c-1.272-5.013-4.138-11.772-10.107-11.772H269.352s2.38.376,4.794,8.367c1.273,5.011,4.139,11.769,10.108,11.769h11.771S293.646,334.993,291.23,327Z" transform="translate(-244.587 -290.684)" fill="#fff"/>
</svg>
