<svg id="arcoweld" xmlns="http://www.w3.org/2000/svg" width="54.428" height="44.447" viewBox="0 0 54.428 44.447">
  <g id="Grupo_152" data-name="Grupo 152" transform="translate(0 0)">
    <path id="Trazado_438" data-name="Trazado 438" d="M436.929,145.382q2.311,0,4.622,0a2.784,2.784,0,0,1,2.545,1.442q9.633,16.134,19.272,32.264a4.11,4.11,0,0,1,.8,2.086,2.848,2.848,0,0,1-1.539,2.716c-1.637.865-3.307,1.667-4.964,2.493-2.039,1.017-4.083,2.025-6.118,3.05a3.225,3.225,0,0,1-3.072,0c-3.527-1.77-7.073-3.5-10.584-5.305a1.9,1.9,0,0,0-1.963,0c-3.459,1.775-6.95,3.488-10.423,5.235a3.486,3.486,0,0,1-3.317,0q-5.329-2.676-10.665-5.338a2.915,2.915,0,0,1-1.277-4.347q5.327-9.019,10.663-18.033,4.363-7.378,8.724-14.758a2.879,2.879,0,0,1,2.679-1.518C433.847,145.389,435.388,145.381,436.929,145.382Zm-24.6,34.987.075.068c1.107-.554,2.22-1.1,3.316-1.671a1.548,1.548,0,0,0,.6-.56q3.395-5.911,6.761-11.839,4.274-7.5,8.55-15a3.571,3.571,0,0,1,3.3-1.915c1.255,0,2.512.029,3.766-.006a3.8,3.8,0,0,1,3.634,2.09q4.07,7.052,8.172,14.085,3.681,6.339,7.358,12.68a1.789,1.789,0,0,0,.812.774c.9.425,1.788.883,2.681,1.326.088.044.186.068.357.129-.122-.219-.194-.356-.273-.489q-1.491-2.5-2.984-4.991-8.045-13.474-16.083-26.951a1.02,1.02,0,0,0-.993-.57q-4.515.03-9.03,0a.95.95,0,0,0-.93.528c-1.024,1.762-2.067,3.514-3.1,5.268L414.083,177.4Q413.205,178.88,412.331,180.368Zm48.356,2.111c-.214-.116-.344-.192-.479-.259q-11.347-5.675-22.692-11.356a1.207,1.207,0,0,0-1.2,0q-11.36,5.7-22.731,11.371c-.119.059-.231.133-.4.234.724.364,1.376.713,2.049,1.016a.822.822,0,0,0,.62,0q4.524-2.223,9.031-4.48,5.125-2.555,10.247-5.116a3.723,3.723,0,0,1,3.455-.063c2.328,1.139,4.641,2.308,6.96,3.464Q451.77,180.4,458,183.5a.62.62,0,0,0,.434.089C459.168,183.25,459.886,182.879,460.688,182.479Zm-11.4-8.12c-.118-.236-.172-.359-.239-.475q-2.138-3.7-4.278-7.4c-2.062-3.564-4.113-7.134-6.2-10.682a2.285,2.285,0,0,0-1-.869,1.837,1.837,0,0,0-2.4,1.059Q430.08,164.92,425,173.854a3.867,3.867,0,0,0-.152.362c1.011-.505,1.945-.96,2.864-1.442a1.237,1.237,0,0,0,.475-.452c2.084-3.617,4.144-7.249,6.237-10.861a2.879,2.879,0,0,1,5.054.029c1.773,3.09,3.582,6.162,5.261,9.3a5.384,5.384,0,0,0,3,2.814A15.838,15.838,0,0,1,449.288,174.359Zm3,12.321c-.167-.1-.26-.165-.359-.214-4.383-2.185-8.773-4.355-13.146-6.559a3.958,3.958,0,0,0-3.832.054c-3.389,1.724-6.8,3.4-10.2,5.1-1.042.519-2.082,1.042-3.2,1.6.527.265,1,.468,1.434.729a1.635,1.635,0,0,0,1.73,0c3.609-1.828,7.237-3.619,10.849-5.444a2.773,2.773,0,0,1,2.695,0c1.076.556,2.163,1.089,3.246,1.63,2.614,1.3,5.225,2.613,7.847,3.9a1.3,1.3,0,0,0,.881.163C450.919,187.386,451.568,187.024,452.286,186.68Zm-10.069-15.85.06-.066c-.044-.087-.085-.175-.133-.26q-2.206-3.885-4.415-7.768c-.475-.833-1.107-.824-1.589.018q-2.157,3.765-4.31,7.533c-.087.151-.162.309-.3.568.239-.111.365-.166.488-.227,1.16-.578,2.321-1.154,3.479-1.738a2.952,2.952,0,0,1,2.826,0C439.616,169.546,440.919,170.184,442.217,170.83Z" transform="translate(-409.735 -145.379)" fill="azure"/>
  </g>
</svg>
