<svg id="deconrental" xmlns="http://www.w3.org/2000/svg" width="109.889" height="61.394" viewBox="0 0 109.889 61.394">
  <g id="Grupo_145" data-name="Grupo 145" transform="translate(0 17.529)">
    <path id="Trazado_381" data-name="Trazado 381" d="M237.387,154.566c-.346-1.92-.077-2.394,2.989-5.424l.068-.012c3.241-2.849,7.947-6.6,13.5-7.6a13.967,13.967,0,0,1,16.568,11.391c2.124,11.8-7.355,22.073-16.2,23.666-3.635.654-9.606.526-10.138-2.423-.246-1.371,1.794-2.234,2.822-2.419-.865-4.8,2.135-16.46,2.276-18.822l.221-1.526a9.038,9.038,0,0,0,.141-2.364c.506.051,4.107.393,4.527,2.726a3.7,3.7,0,0,1-.058,1.639c-1.108,2.891-4.14,15.545-3.958,18.133,1.527.221,2.735.642,2.942.6l-.012-.069.162.112c.161.112.243.169.255.239a.4.4,0,0,1-.337.485c-.343.061-1.527-.221-2.962-.317a9.382,9.382,0,0,0,.179,1.384,3.435,3.435,0,0,1-1.16-.145A2.519,2.519,0,0,1,247.4,172.8c-1.291.3-2.021.575-1.934,1.056.234,1.3,4.8,1.472,7.335,1.015a17.625,17.625,0,0,0,13.671-12.163,15.159,15.159,0,0,0,.887-8.445c-1.185-6.584-6.416-9.679-11.492-8.765a17.892,17.892,0,0,0-5.464,1.9c-8.8,5.764-9.673,10.381-10.084,10.455A4.547,4.547,0,0,1,237.387,154.566Z" transform="translate(-237.27 -141.287)" fill="#fff"/>
    <path id="Trazado_382" data-name="Trazado 382" d="M348.654,155.88a11.2,11.2,0,0,1-1.408,2.609,7.132,7.132,0,0,1-4.832,2.989c-3.418.431-4.953-2.7-5.205-4.7-.554-4.395,2.085-9.043,5.455-9.467a3.006,3.006,0,0,1,3.622,2.371,5.5,5.5,0,0,1-4.921,5.828,3.09,3.09,0,0,1-2.173-.321,5.584,5.584,0,0,0-.072,1.8,3.373,3.373,0,0,0,3.574,3.17,7.95,7.95,0,0,0,3.7-2.1c1.769-1.711,1.689-2.346,1.934-2.376a.293.293,0,0,1,.2.024A.382.382,0,0,1,348.654,155.88Zm-9.361-1.449a1.872,1.872,0,0,0,.641-.032c1.953-.246,3.495-2.573,3.359-3.648-.055-.439-.323-.6-.763-.548a3.575,3.575,0,0,0-2.288,1.925A13.151,13.151,0,0,0,339.293,154.431Z" transform="translate(-302.709 -145.21)" fill="#fff"/>
    <path id="Trazado_383" data-name="Trazado 383" d="M378.849,149.545c-.485,2.933-4.546,6.3-7.445,6.456-2.949.156-4.52-2.52-4.637-4.731-.216-4.08,1.366-7.713,5.372-9.3a2.752,2.752,0,0,1,.876-.194c2.9-.154,3.434,3.416,3.459,3.858.074,1.425-.387,3.865-2.01,3.951a4.944,4.944,0,0,1-1.539-.214c-.251-.085-.551-.168-.8-.252a6.315,6.315,0,0,0,1.1-2.523,3.655,3.655,0,0,0,.1-.99c-.028-.541-.238-.777-.632-.756-1.376.073-4.109,3.372-3.95,6.371a3.225,3.225,0,0,0,3.282,3.326c1.768-.094,3.514-1.566,4.357-2.4,2.357-2.047,1.532-2.742,2.318-2.784C378.793,149.4,378.843,149.446,378.849,149.545Z" transform="translate(-322.114 -141.601)" fill="#fff"/>
    <path id="Trazado_384" data-name="Trazado 384" d="M408.366,155.073a10.375,10.375,0,0,1-1.995,6.069,1.851,1.851,0,0,0,.6.067c1.179-.062,2.1-1.245,2.5-1.266.1,0,.152.09.161.238.029.541-.67,2.254-3.225,2.389a3.883,3.883,0,0,1-1.242-.181,4.7,4.7,0,0,1-3.2,1.846c-2.7.143-3.925-2.453-4.026-4.371a9.974,9.974,0,0,1,4.321-8.656c.149-.007.3.034.883.84a3.354,3.354,0,0,1,2.121-.9c2.064-.109,2.967,2.061,3.017,2.995A6.055,6.055,0,0,1,408.366,155.073Zm-4.47,6.791c-1.774-.941-2.277-2.985-2.371-4.753a10.337,10.337,0,0,1,.034-1.234,6.5,6.5,0,0,0-1.729,4.577c.094,1.768.87,2.468,2.2,2.545A3.225,3.225,0,0,0,403.9,161.865Zm2.175-5.487c-.052-.982-.1-1.966-.506-2.092-.982.052-1.843,2.414-1.763,3.937.039.737.312,2.152,1.111,2.356a7.012,7.012,0,0,0,1.031-2.864A3.963,3.963,0,0,0,406.07,156.378Z" transform="translate(-342.535 -147.746)" fill="#fff"/>
    <path id="Trazado_385" data-name="Trazado 385" d="M338.548,210.655a9.061,9.061,0,0,1-4.972-2.558c-.053.014-.053.014-.067-.039l-.027-.107c-.041-.161.04-.295.253-.349.321-.082,1.719,2.07,4.81,1.916-.114-2.931.483-4.618.545-7.308l.09-1.218a7.112,7.112,0,0,0-.018-1.874,17.286,17.286,0,0,0-3.842,5.3A3.779,3.779,0,0,1,332.946,202c-.42-1.658.009-1.766,1.2-3.375l.054-.014a25.942,25.942,0,0,1,11.906-7.39c1.926-.487,9.725-2.057,11.008,3.025a7.376,7.376,0,0,1,.034,3.065,16.006,16.006,0,0,1-11.4,13.236c-.268.068-.6.1-.869.164,4.143,3.108,12.769,3.79,17.532,2.588,1.872-.473,3.048-.77,4.224-2.2,1.742,1.04,1.575,4.212-2.771,5.48-8.224,2.362-15.712-.1-22.356-5.467.3.246-.209,1.875-.128,2.2a29.17,29.17,0,0,0,.21,3.761c-.214.054-2.3.126-2.748-1.64A21.812,21.812,0,0,1,338.548,210.655Zm3.063-.944a6.976,6.976,0,0,0,2.93-.343c4.279-1.081,7.765-4.407,8.983-9.724a10.749,10.749,0,0,0,.364-4.417c-.473-1.873-3.832-1.878-6.078-1.311a19.561,19.561,0,0,0-8.594,5.188c.481-.122,3.28.366,3.671,1.918.189.749.216.628-.221,2.5A52.009,52.009,0,0,0,341.611,209.711Z" transform="translate(-299.862 -173.603)" fill="#fff"/>
    <path id="Trazado_386" data-name="Trazado 386" d="M414.681,216.752a11.163,11.163,0,0,1-1.268,2.679,7.136,7.136,0,0,1-4.667,3.241c-3.39.61-5.089-2.435-5.447-4.421-.785-4.359,1.6-9.14,4.947-9.742a3.007,3.007,0,0,1,3.743,2.176,5.5,5.5,0,0,1-4.606,6.081,3.1,3.1,0,0,1-2.188-.207,5.583,5.583,0,0,0,.023,1.8,3.374,3.374,0,0,0,3.737,2.978,7.954,7.954,0,0,0,3.587-2.3c1.676-1.8,1.562-2.431,1.805-2.475a.3.3,0,0,1,.2.014A.365.365,0,0,1,414.681,216.752Zm-9.424-.954a1.88,1.88,0,0,0,.639-.064c1.938-.35,3.354-2.755,3.162-3.82-.079-.437-.355-.587-.791-.508a3.577,3.577,0,0,0-2.182,2.044A13.131,13.131,0,0,0,405.257,215.8Z" transform="translate(-345.967 -185.291)" fill="#fff"/>
    <path id="Trazado_387" data-name="Trazado 387" d="M439.279,209.024a12.913,12.913,0,0,1,.22-4.891c-.771,2.389-2.541,7.558-2.658,9.13.009.049-.386,2.02-1.4,2.2-1.55.28-2.173-.958-2.522-2.9-.767-4.262.927-9.018,1.072-9.595a23.222,23.222,0,0,0,.515-2.693c.436-.079,2.49,1.052,2.673,2.069.393,2.18-2.744,6.145-2.054,9.971a1.992,1.992,0,0,0,.152.573c4.236-13.415,5.637-12.017,5.748-14.737.145-.026,2.464.906,2.664,2.02a2.139,2.139,0,0,1-.139,1.176c-.625,2.363-2.365,5.476-1.894,8.092.131.727.324,1.242.9,1.138.824-.148,2.148-1.687,2.923-4.877a.152.152,0,0,0,.089-.065.423.423,0,0,1,.316.092l.114.08c.035.194-.71,5.778-3.567,6.293a2.236,2.236,0,0,1-2.016-.637A4.554,4.554,0,0,1,439.279,209.024Z" transform="translate(-365.343 -178.553)" fill="#fff"/>
    <path id="Trazado_388" data-name="Trazado 388" d="M472.5,174.229c-1.561.249-3.277.64-5.273,1.136-1.506,4.685-3.647,11.724-3.206,14.5.12.751.464,1.052,1.1.951,1.329-.211,3.364-1.958,4.432-5.684a.179.179,0,0,0,.105-.075.5.5,0,0,1,.374.118l.134.1s-.327,6.513-5.116,7.334c-1.157.184-3.174-.206-3.616-2.981-.515-3.237.587-8.985,1.638-13.183a5.68,5.68,0,0,1-2.027.678c-2.254.359-3.9-.683-4.113-2.013a2.742,2.742,0,0,1,1.375-2.531c.694-.11,1.028.133,1.057.307a.155.155,0,0,1-.146.2c-.174.028-.259-.136-.547-.09-.405.064-.947.387-.8,1.312.121.752.7,1.074,1.745.909a21.532,21.532,0,0,0,4.247-1.625c.6-2.17,1.383-6.207,1.326-6.2.693-.11,3.41.939,3.657,2.5a3.421,3.421,0,0,1-.35,1.893,45.968,45.968,0,0,1,7.183-1.795,21.849,21.849,0,0,1,5.286-.308,3.177,3.177,0,0,1,1.141.47,2.991,2.991,0,0,1,1.467,2.138c.028.173.142,1.637-.147,1.683a15.9,15.9,0,0,0-5.917-.3A40.306,40.306,0,0,0,472.5,174.229Z" transform="translate(-381.195 -158.387)" fill="#fff"/>
    <path id="Trazado_389" data-name="Trazado 389" d="M507.235,202.788c.093.515-.569,7.171-3.606,7.718-1.03.185-2.405-.363-3.248-2.391a4.371,4.371,0,0,1-3.363,2.572c-3.141.565-4.44-2.815-4.728-4.411-.7-3.912,1.606-9.377,5.931-10.156a5.068,5.068,0,0,1,3.17.492,1.744,1.744,0,0,0,.1-.654c.206-.037,2.773.935,2.986,2.119a3.943,3.943,0,0,1-.227,1.688l-.051.009c-.762,2.262-1.909,5.339-1.464,7.81.2,1.132.563,1.653,1.026,1.57.978-.176,2.343-2.335,2.884-6.419-.009-.051.145-.079.3-.107C507.113,202.7,507.226,202.737,507.235,202.788Zm-6.658-2.734a3.025,3.025,0,0,0-2.323-.8c-2.265.408-4.607,4.231-4.06,7.267.259,1.442.911,3.291,3.177,2.883a4.011,4.011,0,0,0,2.731-2.246A19.167,19.167,0,0,1,500.577,200.054Z" transform="translate(-404.297 -177.111)" fill="#fff"/>
    <path id="Trazado_390" data-name="Trazado 390" d="M538.812,166.437a4.633,4.633,0,0,1-.219,1.84c-.864,3.255-4.27,16.271-3.678,19.565.026.145.07.388.216.362.338-.061,1.528-1.226,3.01-4.943.2-.286.366-.466.463-.484a.289.289,0,0,1,.14.225c.218,1.211-2.433,7.039-3.837,7.292-.484.087-1.647.3-2-1.689-.732-4.069,1.282-15.934,2.474-21.249a9.274,9.274,0,0,1,.148-1.127,6.356,6.356,0,0,0,.1-1.667C535.866,164.518,538.576,165.13,538.812,166.437Z" transform="translate(-430.889 -156.537)" fill="#fff"/>
  </g>
  <path id="Trazado_391" data-name="Trazado 391" d="M431.509,169.4a3.549,3.549,0,0,1,2.55-3.875,3.548,3.548,0,0,1-2.55,3.875Z" transform="translate(-364.541 -139.64)" fill="#fff"/>
  <path id="Trazado_392" data-name="Trazado 392" d="M344.822,99a7.341,7.341,0,0,1-4.339-8.557A7.339,7.339,0,0,1,344.822,99Z" transform="translate(-304.798 -90.438)" fill="#fff"/>
  <path id="Trazado_393" data-name="Trazado 393" d="M341.072,111.586a5.037,5.037,0,0,1-6.49-1.106,5.037,5.037,0,0,1,6.49,1.106Z" transform="translate(-301.036 -103.103)" fill="#fff"/>
  <path id="Trazado_394" data-name="Trazado 394" d="M283.443,224.292a4.092,4.092,0,0,1,2.94-4.468,4.09,4.09,0,0,1-2.94,4.468Z" transform="translate(-267.516 -175.222)" fill="#fff"/>
  <path id="Trazado_395" data-name="Trazado 395" d="M328.8,243.619a3.3,3.3,0,0,1,2.369-3.6,3.295,3.295,0,0,1-2.369,3.6Z" transform="translate(-297.241 -188.456)" fill="#fff"/>
  <path id="Trazado_396" data-name="Trazado 396" d="M320.2,237.1a4.115,4.115,0,0,1,5.354.487,4.111,4.111,0,0,1-5.354-.487Z" transform="translate(-291.615 -186.039)" fill="#fff"/>
  <path id="Trazado_397" data-name="Trazado 397" d="M463.787,177.726a2.729,2.729,0,0,1,1.96-2.979,2.728,2.728,0,0,1-1.96,2.979Z" transform="translate(-385.695 -145.684)" fill="#fff"/>
  <path id="Trazado_398" data-name="Trazado 398" d="M549.142,213.184a2.727,2.727,0,0,1,1.96-2.978,2.727,2.727,0,0,1-1.96,2.978Z" transform="translate(-441.626 -168.919)" fill="#fff"/>
  <path id="Trazado_399" data-name="Trazado 399" d="M549.132,218.078a1.829,1.829,0,0,1,2.383-.163,1.825,1.825,0,0,1-2.383.163Z" transform="translate(-441.626 -173.732)" fill="#fff"/>
  <path id="Trazado_400" data-name="Trazado 400" d="M461.084,179.3a1.967,1.967,0,0,1-1.385-2.167,1.968,1.968,0,0,1,1.385,2.167Z" transform="translate(-383.016 -147.251)" fill="#fff"/>
  <path id="Trazado_401" data-name="Trazado 401" d="M332.908,117.5s.032-.257.091-.738c.026-.241.078-.535.144-.884.033-.174.064-.363.107-.563l.157-.628c.053-.223.114-.456.192-.7s.148-.5.235-.76.191-.532.3-.812.239-.561.364-.857a20.282,20.282,0,0,1,2.179-3.748,20.909,20.909,0,0,1,3.573-3.745,20.6,20.6,0,0,1,2.325-1.645,19.936,19.936,0,0,1,2.651-1.374,20.21,20.21,0,0,1,2.925-1.018,20.556,20.556,0,0,1,3.126-.59,21.692,21.692,0,0,1,3.235-.115,24.4,24.4,0,0,1,3.242.376l.784.175c.128.031.245.051.382.09l.4.112c.267.078.546.143.8.232l.773.258a21.551,21.551,0,0,1,2.956,1.32,20.476,20.476,0,0,1,2.676,1.721,20.254,20.254,0,0,1,2.329,2.041,19.98,19.98,0,0,1,1.941,2.269,20.81,20.81,0,0,1,3.443,7.212,20.245,20.245,0,0,1,.612,4.292c0,.322.021.632.015.932s-.017.588-.029.864-.047.541-.068.793-.049.492-.084.718-.062.44-.091.641-.078.386-.113.56c-.069.347-.132.64-.2.875l-.194.719s.018-.258.052-.741c.024-.24.034-.538.042-.887,0-.174.009-.361.014-.56s0-.411-.007-.635a21.81,21.81,0,0,0-1.329-7.145,21.531,21.531,0,0,0-2.137-4.281,20.619,20.619,0,0,0-1.544-2.087c-.277-.344-.588-.666-.889-1-.154-.164-.318-.32-.477-.482l-.241-.241-.254-.23a20.8,20.8,0,0,0-2.163-1.745l-.583-.4-.6-.371c-.2-.129-.407-.243-.615-.358s-.412-.24-.629-.34a21.853,21.853,0,0,0-2.65-1.129l-.689-.224c-.231-.08-.454-.127-.681-.193l-.34-.093c-.11-.032-.247-.056-.37-.084l-.724-.159a21.917,21.917,0,0,0-2.881-.355,21.668,21.668,0,0,0-2.879.05c-.239.012-.474.054-.71.079s-.472.057-.7.1l-.7.117-.69.149a20.85,20.85,0,0,0-2.661.8c-.216.075-.428.16-.636.251s-.419.173-.624.267c-.4.2-.814.378-1.2.594a20.829,20.829,0,0,0-2.215,1.355,21.53,21.53,0,0,0-3.589,3.166,21.785,21.785,0,0,0-3.914,6.125l-.244.586-.2.523c-.124.325-.226.606-.294.839Z" transform="translate(-299.94 -96.25)" fill="#fff"/>
</svg>
