<svg id="designcrowd" xmlns="http://www.w3.org/2000/svg" width="54.48" height="49.974" viewBox="0 0 54.48 49.974">
  <path id="Trazado_106" data-name="Trazado 106" d="M54.483,20.444a.651.651,0,0,0-.714-.5c-5.409.7-14.548,1.1-16.041-.837-3.432-4.449-.807-17.947-.781-18.083A.648.648,0,0,0,35.7.686C35.662.8,31.835,11.9,23.8,14.5,16.527,16.862,6.32,9.068,6.217,8.99a.645.645,0,0,0-.9.108A.654.654,0,0,0,5.412,10c.08.067,8.053,6.792,8.4,12.713C12.831,25.825,3.842,29.44.427,30.58a.652.652,0,0,0,.389,1.241c.118-.034,11.79-3.444,16.624,2.687,2.259,2.864-1.19,11.646-2.709,14.787a.654.654,0,0,0,.31.871.663.663,0,0,0,.273.064.647.647,0,0,0,.546-.3c2.214-3.507,8.784-12.687,12.543-13.061,6.459-.646,13.182,8.666,13.249,8.761a.648.648,0,0,0,1.067-.734c-2.02-3.12-6.872-11.934-5.073-15.211,1.713-3.122,12.425-7.179,16.407-8.479a.651.651,0,0,0,.432-.76" transform="translate(-0.019 -0.255)" fill="azure"/>
  <path id="Trazado_107" data-name="Trazado 107" d="M28.224,5.459a4.819,4.819,0,0,1,1.4,6.644,4.76,4.76,0,0,1-6.579,1.429l-.026-.017a4.819,4.819,0,0,1-1.405-6.642A4.758,4.758,0,0,1,28.19,5.436l.034.022" transform="translate(18.07 3.59)" fill="azure"/>
  <path id="Trazado_108" data-name="Trazado 108" d="M7.161,10.313A3.553,3.553,0,0,1,8.2,15.22a3.508,3.508,0,0,1-4.845,1.063l-.032-.021a3.555,3.555,0,0,1-1.037-4.907A3.513,3.513,0,0,1,7.137,10.3l.022.015" transform="translate(1.451 7.983)" fill="azure"/>
  <path id="Trazado_109" data-name="Trazado 109" d="M9.289,19.124a3.5,3.5,0,0,1,1.022,4.832A3.459,3.459,0,0,1,5.53,25l-.024-.015a3.5,3.5,0,0,1-1.02-4.83,3.458,3.458,0,0,1,4.778-1.046l.026.017" transform="translate(3.372 15.642)" fill="azure"/>
  <path id="Trazado_110" data-name="Trazado 110" d="M19.735,22.662A3.942,3.942,0,0,1,20.885,28.1a3.891,3.891,0,0,1-5.377,1.172l-.026-.017a3.943,3.943,0,0,1-1.149-5.433,3.894,3.894,0,0,1,5.381-1.173l.022.015" transform="translate(11.865 18.655)" fill="azure"/>
  <path id="Trazado_111" data-name="Trazado 111" d="M27.907,15.838a4.185,4.185,0,0,1,1.22,5.77,4.135,4.135,0,0,1-5.714,1.243l-.024-.015a4.186,4.186,0,0,1-1.224-5.77,4.136,4.136,0,0,1,5.716-1.244l.026.017" transform="translate(18.634 12.693)" fill="azure"/>
  <path id="Trazado_112" data-name="Trazado 112" d="M16.924,2.26A4.814,4.814,0,0,1,18.331,8.9a4.757,4.757,0,0,1-6.573,1.431l-.03-.019a4.817,4.817,0,0,1-1.407-6.642,4.755,4.755,0,0,1,6.569-1.435l.035.022" transform="translate(8.259 0.812)" fill="azure"/>
</svg>
