<svg id="fmm" xmlns="http://www.w3.org/2000/svg" width="108.96" height="36.227" viewBox="0 0 108.96 36.227">
  <path id="Trazado_2" data-name="Trazado 2" d="M817.572-209.8h30.493v-4.8H816.453Z" transform="translate(-739.104 229.814)" fill="#fff"/>
  <path id="Trazado_3" data-name="Trazado 3" d="M800.867-281.51h32.265v-4.8H799.748Z" transform="translate(-724.171 293.918)" fill="#fff"/>
  <path id="Trazado_4" data-name="Trazado 4" d="M834.277-138.091H863v-4.8h-29.84Z" transform="translate(-754.038 165.711)" fill="#fff"/>
  <path id="Trazado_5" data-name="Trazado 5" d="M783.043-358.026l1.119,4.8H818.2v-4.8Z" transform="translate(-709.238 358.026)" fill="#fff"/>
  <path id="Trazado_6" data-name="Trazado 6" d="M947.347-54.73a1.541,1.541,0,0,0,.184.35.9.9,0,0,0,.281.26.8.8,0,0,0,.3.118,1.594,1.594,0,0,0,.207.024,1.439,1.439,0,0,0,.236-.029.85.85,0,0,0,.326-.144,1.029,1.029,0,0,0,.328-.389,1.734,1.734,0,0,0,.145-.742,3.492,3.492,0,0,0-.018-.35,1.992,1.992,0,0,0-.068-.352,1.652,1.652,0,0,0-.137-.329,1.093,1.093,0,0,0-.218-.279.924.924,0,0,0-.307-.181,1.047,1.047,0,0,0-.354-.061.929.929,0,0,0-.273.037,1.038,1.038,0,0,0-.213.089.954.954,0,0,0-.158.111.829.829,0,0,0-.1.105,1.393,1.393,0,0,0-.2.368,1.729,1.729,0,0,0-.1.626,2.409,2.409,0,0,0,.032.379A1.963,1.963,0,0,0,947.347-54.73Z" transform="translate(-855.995 88.78)" fill="#fff"/>
  <path id="Trazado_7" data-name="Trazado 7" d="M87.2-65.38h108.96v-5.8H87.2Zm100.72-1.1a.782.782,0,0,0,.081-.008.258.258,0,0,0,.118-.05.247.247,0,0,0,.1-.16,1.712,1.712,0,0,0,.026-.28v-2.579a1.142,1.142,0,0,0-.013-.2.277.277,0,0,0-.06-.123.239.239,0,0,0-.147-.1.8.8,0,0,0-.11-.016v-.095h1.291l1.937,2.342v-1.8c0-.063,0-.132-.011-.207a.231.231,0,0,0-.1-.176.446.446,0,0,0-.084-.042.584.584,0,0,0-.126-.026v-.095H192l-.005.095a.347.347,0,0,1-.06.011.322.322,0,0,0-.092.026.221.221,0,0,0-.108.089.4.4,0,0,0-.047.115.5.5,0,0,0-.013.105v3.265h-.525L188.771-69.2v2.269a.786.786,0,0,0,.032.254.258.258,0,0,0,.105.133.29.29,0,0,0,.073.039.574.574,0,0,0,.11.024v.095h-1.17Zm-10.444-2.184a1.747,1.747,0,0,1,.144-.431,1.609,1.609,0,0,1,.344-.488,2.028,2.028,0,0,1,.47-.339,2.184,2.184,0,0,1,.549-.2,2.787,2.787,0,0,1,.591-.063q.084,0,.226.008a1.838,1.838,0,0,1,.318.05,2.282,2.282,0,0,1,.37.126,1.666,1.666,0,0,1,.383.236,1.927,1.927,0,0,1,.218.207,1.6,1.6,0,0,1,.218.31,2.023,2.023,0,0,1,.168.423,2.2,2.2,0,0,1,.073.557,2.6,2.6,0,0,1-.031.412,1.726,1.726,0,0,1-.116.4,2,2,0,0,1-.215.381,1.679,1.679,0,0,1-.373.375,2,2,0,0,1-.567.286,2.511,2.511,0,0,1-.8.113c-.052,0-.13,0-.234-.008a2.159,2.159,0,0,1-.346-.05,2.13,2.13,0,0,1-.4-.137,1.651,1.651,0,0,1-.407-.262,1.949,1.949,0,0,1-.2-.2,1.5,1.5,0,0,1-.2-.3,1.974,1.974,0,0,1-.157-.412,2.047,2.047,0,0,1-.063-.533A2.356,2.356,0,0,1,177.477-68.664Zm-7.728-1.068a.438.438,0,0,0-.045-.118.242.242,0,0,0-.121-.113.874.874,0,0,0-.163-.045v-.084h1.627v.084a.947.947,0,0,0-.155.042.214.214,0,0,0-.113.1.336.336,0,0,0-.05.144,1.449,1.449,0,0,0-.008.15v2.693a.977.977,0,0,0,.026.171.256.256,0,0,0,.095.144.331.331,0,0,0,.129.066l.087.024v.089h-1.638l.005-.089a.9.9,0,0,0,.176-.06.239.239,0,0,0,.092-.087.331.331,0,0,0,.057-.165c0-.058.005-.115.005-.171v-2.593A.756.756,0,0,0,169.749-69.732ZM160-70.092h3.3v.84h-.1a.393.393,0,0,0-.008-.053c-.005-.028-.011-.054-.018-.078a.223.223,0,0,0-.14-.152.809.809,0,0,0-.213-.037h-.686v2.542q0,.173.008.267a.287.287,0,0,0,.071.168.312.312,0,0,0,.095.066,1.327,1.327,0,0,0,.157.055v.089h-1.622v-.089l.058-.016a.368.368,0,0,0,.089-.037.4.4,0,0,0,.089-.068.263.263,0,0,0,.063-.11.731.731,0,0,0,.021-.139q.005-.082.005-.207v-2.521h-.7c-.045,0-.079.007-.1.01a.456.456,0,0,0-.063.016.255.255,0,0,0-.113.06.254.254,0,0,0-.058.084.416.416,0,0,0-.026.087.356.356,0,0,0-.008.063H160Zm-9.518,3.617.055-.008a.241.241,0,0,0,.039-.013.335.335,0,0,0,.118-.076.647.647,0,0,0,.089-.113.957.957,0,0,0,.068-.131c.019-.045.038-.087.055-.126l1.375-3.166h.619l1.276,3.082.092.21a1.06,1.06,0,0,0,.066.131.382.382,0,0,0,.163.16.733.733,0,0,0,.142.05v.089h-1.606l.005-.089.034-.005a.265.265,0,0,0,.055-.016.2.2,0,0,0,.123-.105.313.313,0,0,0,.024-.105.387.387,0,0,0-.013-.1q-.013-.05-.045-.139l-.184-.483h-1.375l-.194.5-.042.115a.334.334,0,0,0-.021.116.162.162,0,0,0,.039.115.313.313,0,0,0,.084.066.311.311,0,0,0,.084.032.355.355,0,0,0,.05.008v.089H150.48Zm-9.78.005a.366.366,0,0,0,.05-.008.4.4,0,0,0,.076-.024.267.267,0,0,0,.163-.158.878.878,0,0,0,.037-.226v-2.662a.682.682,0,0,0-.05-.318q-.055-.108-.276-.139v-.089h1.785c.108,0,.215,0,.32.011a1.474,1.474,0,0,1,.3.052,1.055,1.055,0,0,1,.278.126.869.869,0,0,1,.236.231.83.83,0,0,1,.147.328,1.505,1.505,0,0,1,.026.228.929.929,0,0,1-.039.278,1.219,1.219,0,0,1-.095.226.956.956,0,0,1-.113.165,1.172,1.172,0,0,1-.1.1.821.821,0,0,1-.108.084q-.05.031-.071.042l.651,1.239c.046.088.086.16.121.218a.912.912,0,0,0,.1.144.477.477,0,0,0,.11.092.53.53,0,0,0,.142.055v.084h-.6l-.139,0a.8.8,0,0,1-.2-.034,1,1,0,0,1-.221-.1.707.707,0,0,1-.207-.192q-.037-.058-.079-.131a.6.6,0,0,1-.042-.079l-.567-1.066q-.111.01-.186.01t-.181-.01v1.092a1.413,1.413,0,0,0,.018.176.265.265,0,0,0,.05.118.256.256,0,0,0,.1.076,1.056,1.056,0,0,0,.171.055v.084H140.7Zm-10.46-2.194a1.752,1.752,0,0,1,.144-.431,1.609,1.609,0,0,1,.344-.488,2.028,2.028,0,0,1,.47-.339,2.182,2.182,0,0,1,.549-.2,2.786,2.786,0,0,1,.591-.063q.084,0,.226.008a1.832,1.832,0,0,1,.318.05,2.279,2.279,0,0,1,.37.126,1.668,1.668,0,0,1,.383.236,1.914,1.914,0,0,1,.218.207,1.6,1.6,0,0,1,.218.31,2.013,2.013,0,0,1,.168.423,2.192,2.192,0,0,1,.073.557,2.6,2.6,0,0,1-.031.412,1.733,1.733,0,0,1-.115.4,2,2,0,0,1-.215.381,1.677,1.677,0,0,1-.372.375,2,2,0,0,1-.567.286,2.511,2.511,0,0,1-.8.113c-.052,0-.13,0-.234-.008a2.16,2.16,0,0,1-.346-.05,2.128,2.128,0,0,1-.4-.137,1.647,1.647,0,0,1-.407-.262,1.951,1.951,0,0,1-.2-.2,1.5,1.5,0,0,1-.2-.3,1.978,1.978,0,0,1-.157-.412,2.052,2.052,0,0,1-.063-.533A2.362,2.362,0,0,1,130.24-68.664Zm-9.463,2.184a.537.537,0,0,0,.176-.06.263.263,0,0,0,.1-.094.357.357,0,0,0,.042-.131,1.342,1.342,0,0,0,.011-.181v-2.708a.455.455,0,0,0-.016-.118.27.27,0,0,0-.116-.17.537.537,0,0,0-.194-.06v-.089h1.932q.078,0,.152.005a1.8,1.8,0,0,1,.341.058,1.106,1.106,0,0,1,.255.105.907.907,0,0,1,.181.137.889.889,0,0,1,.12.147.916.916,0,0,1,.126.289,1.361,1.361,0,0,1,.037.32q0,.058-.008.147a.846.846,0,0,1-.042.192,1.1,1.1,0,0,1-.1.213.952.952,0,0,1-.181.215,1.208,1.208,0,0,1-.491.27,2.131,2.131,0,0,1-.554.071,1.893,1.893,0,0,1-.289-.018l-.189-.029v1.126a.5.5,0,0,0,.018.129.368.368,0,0,0,.068.131.3.3,0,0,0,.155.094.135.135,0,0,0,.052.011.269.269,0,0,1,.053.005v.089h-1.638Zm-9.906.011a.363.363,0,0,0,.05-.008A.393.393,0,0,0,111-66.5a.267.267,0,0,0,.163-.158.864.864,0,0,0,.037-.226v-2.662a.682.682,0,0,0-.05-.318q-.055-.108-.276-.139v-.089h1.785q.163,0,.32.011a1.472,1.472,0,0,1,.3.052,1.054,1.054,0,0,1,.278.126.872.872,0,0,1,.236.231.829.829,0,0,1,.147.328,1.538,1.538,0,0,1,.026.228.924.924,0,0,1-.039.278,1.208,1.208,0,0,1-.094.226.956.956,0,0,1-.113.165,1.189,1.189,0,0,1-.1.1.8.8,0,0,1-.108.084q-.05.031-.071.042l.651,1.239c.045.088.086.16.121.218a.9.9,0,0,0,.105.144.473.473,0,0,0,.11.092.531.531,0,0,0,.142.055v.084h-.6l-.139,0a.8.8,0,0,1-.2-.034.994.994,0,0,1-.22-.1.7.7,0,0,1-.207-.192q-.037-.058-.079-.131a.636.636,0,0,1-.042-.079l-.567-1.066q-.11.01-.186.01t-.181-.01v1.092a1.354,1.354,0,0,0,.018.176.267.267,0,0,0,.05.118.257.257,0,0,0,.1.076,1.066,1.066,0,0,0,.171.055v.084h-1.622Zm-10.46-2.194a1.755,1.755,0,0,1,.144-.431,1.607,1.607,0,0,1,.344-.488,2.021,2.021,0,0,1,.47-.339,2.183,2.183,0,0,1,.549-.2,2.786,2.786,0,0,1,.591-.063c.056,0,.131,0,.226.008a1.832,1.832,0,0,1,.318.05,2.285,2.285,0,0,1,.37.126,1.666,1.666,0,0,1,.383.236,1.906,1.906,0,0,1,.218.207,1.6,1.6,0,0,1,.218.31,2.023,2.023,0,0,1,.168.423,2.188,2.188,0,0,1,.073.557,2.605,2.605,0,0,1-.031.412,1.722,1.722,0,0,1-.116.4,1.993,1.993,0,0,1-.215.381,1.677,1.677,0,0,1-.373.375,2,2,0,0,1-.567.286,2.509,2.509,0,0,1-.8.113c-.053,0-.13,0-.234-.008a2.159,2.159,0,0,1-.347-.05,2.132,2.132,0,0,1-.4-.137,1.647,1.647,0,0,1-.407-.262,1.969,1.969,0,0,1-.2-.2,1.506,1.506,0,0,1-.2-.3,1.977,1.977,0,0,1-.158-.412,2.052,2.052,0,0,1-.063-.533A2.371,2.371,0,0,1,100.411-68.664Zm-10.064.3a1.952,1.952,0,0,1,.034-.236,2.09,2.09,0,0,1,.079-.281,1.726,1.726,0,0,1,.141-.3,1.9,1.9,0,0,1,.26-.339,1.859,1.859,0,0,1,.414-.323,2.452,2.452,0,0,1,.588-.242,2.932,2.932,0,0,1,.785-.094q.121,0,.373.018a4.658,4.658,0,0,1,.567.081l.144.034c.047.012.1.024.144.034v.876h-.1c-.014-.038-.039-.1-.076-.176a.5.5,0,0,0-.2-.207.817.817,0,0,0-.21-.089,1.581,1.581,0,0,0-.221-.045c-.07-.009-.131-.014-.184-.016l-.1,0-.1,0c-.044,0-.094.005-.15.01a1.274,1.274,0,0,0-.181.032,1.829,1.829,0,0,0-.2.06,1.161,1.161,0,0,0-.617.5,1.5,1.5,0,0,0-.2.77q0,.063.011.186a1.619,1.619,0,0,0,.05.272,1.614,1.614,0,0,0,.121.312,1.192,1.192,0,0,0,.228.309,1.532,1.532,0,0,0,.152.131,1.264,1.264,0,0,0,.213.128,1.3,1.3,0,0,0,.286.1,1.707,1.707,0,0,0,.373.037l.131-.005a1.515,1.515,0,0,0,.239-.034,1.313,1.313,0,0,0,.276-.094.677.677,0,0,0,.242-.186.546.546,0,0,0,.084-.144c.018-.047.03-.081.037-.1h.1l-.005.859q-.2.069-.52.149a3.465,3.465,0,0,1-.814.079,3.419,3.419,0,0,1-.572-.039,2.427,2.427,0,0,1-.362-.087,1.907,1.907,0,0,1-.528-.273,1.77,1.77,0,0,1-.4-.4,1.883,1.883,0,0,1-.252-.507,1.883,1.883,0,0,1-.089-.585C90.34-68.238,90.342-68.294,90.348-68.364Z" transform="translate(-87.201 101.607)" fill="#fff"/>
  <path id="Trazado_8" data-name="Trazado 8" d="M501.995-54.73a1.551,1.551,0,0,0,.184.35.9.9,0,0,0,.281.26.8.8,0,0,0,.3.118,1.588,1.588,0,0,0,.207.024,1.439,1.439,0,0,0,.236-.029.849.849,0,0,0,.326-.144,1.03,1.03,0,0,0,.328-.389,1.735,1.735,0,0,0,.144-.742q0-.168-.018-.35a2,2,0,0,0-.068-.352,1.653,1.653,0,0,0-.137-.329,1.093,1.093,0,0,0-.218-.279.925.925,0,0,0-.307-.181,1.046,1.046,0,0,0-.354-.061.928.928,0,0,0-.273.037,1.039,1.039,0,0,0-.213.089.968.968,0,0,0-.157.111.814.814,0,0,0-.1.105,1.391,1.391,0,0,0-.2.368,1.728,1.728,0,0,0-.1.626,2.423,2.423,0,0,0,.032.379A1.98,1.98,0,0,0,501.995-54.73Z" transform="translate(-457.88 88.78)" fill="#fff"/>
  <path id="Trazado_9" data-name="Trazado 9" d="M416.222-54.974l.108-.005a.575.575,0,0,0,.165-.037.582.582,0,0,0,.11-.06.493.493,0,0,0,.108-.1.517.517,0,0,0,.081-.155.673.673,0,0,0,.031-.218.7.7,0,0,0-.029-.215.479.479,0,0,0-.076-.15.4.4,0,0,0-.1-.094.446.446,0,0,0-.108-.05.624.624,0,0,0-.131-.026c-.042,0-.084-.005-.126-.005h-.315v1.087c.077.014.133.023.168.026S416.18-54.974,416.222-54.974Z" transform="translate(-381.07 88.117)" fill="#fff"/>
  <path id="Trazado_10" data-name="Trazado 10" d="M322.783-55.023a.785.785,0,0,0,.1-.013.51.51,0,0,0,.222-.1.5.5,0,0,0,.123-.146.513.513,0,0,0,.055-.154.779.779,0,0,0,.013-.123c0-.014,0-.038-.005-.073a.566.566,0,0,0-.024-.112.64.64,0,0,0-.055-.126.338.338,0,0,0-.1-.112.428.428,0,0,0-.2-.089q-.109-.015-.214-.021h-.245v1.076h.235Z" transform="translate(-297.493 88.117)" fill="#fff"/>
  <path id="Trazado_11" data-name="Trazado 11" d="M697.406-51.34l-.488,1.165h.956Z" transform="translate(-632.248 83.869)" fill="#fff"/>
  <path id="Trazado_12" data-name="Trazado 12" d="M220.767-54.73a1.568,1.568,0,0,0,.184.35.908.908,0,0,0,.281.26.805.805,0,0,0,.3.118,1.586,1.586,0,0,0,.207.024,1.44,1.44,0,0,0,.236-.029.847.847,0,0,0,.325-.144,1.033,1.033,0,0,0,.328-.389,1.731,1.731,0,0,0,.144-.742q0-.168-.018-.35a1.971,1.971,0,0,0-.068-.352,1.634,1.634,0,0,0-.136-.329,1.1,1.1,0,0,0-.218-.279.927.927,0,0,0-.307-.181,1.047,1.047,0,0,0-.354-.061.929.929,0,0,0-.273.037,1.038,1.038,0,0,0-.213.089.958.958,0,0,0-.157.111.821.821,0,0,0-.1.105,1.392,1.392,0,0,0-.2.368,1.721,1.721,0,0,0-.1.626,2.447,2.447,0,0,0,.032.379A1.986,1.986,0,0,0,220.767-54.73Z" transform="translate(-206.48 88.78)" fill="#fff"/>
  <path id="Trazado_13" data-name="Trazado 13" d="M604.009-55.023a.78.78,0,0,0,.1-.013.509.509,0,0,0,.222-.1.5.5,0,0,0,.123-.146.508.508,0,0,0,.055-.154.747.747,0,0,0,.013-.123c0-.014,0-.038-.005-.073a.589.589,0,0,0-.023-.112.659.659,0,0,0-.055-.126.339.339,0,0,0-.1-.112.428.428,0,0,0-.2-.089c-.073-.01-.144-.017-.214-.021h-.245v1.076h.235Z" transform="translate(-548.89 88.117)" fill="#fff"/>
  <path id="Trazado_14" data-name="Trazado 14" d="M90.385-126.876a.678.678,0,0,1-.221-.087.294.294,0,0,1-.11-.207.728.728,0,0,1-.011-.129v-1.136h.709q.105.005.2.018a.245.245,0,0,1,.168.108.282.282,0,0,1,.052.116.719.719,0,0,0,.016.073l.089.005v-1.176h-.089a.386.386,0,0,1-.008.063.343.343,0,0,1-.032.089.345.345,0,0,1-.066.089.26.26,0,0,1-.11.063.744.744,0,0,1-.2.026h-.735v-1H90.9q.089,0,.173.008a.322.322,0,0,1,.158.06.3.3,0,0,1,.068.087.741.741,0,0,1,.053.155h.094v-.84H88.763v.095a.432.432,0,0,1,.066.008.338.338,0,0,1,.092.031.321.321,0,0,1,.089.068.249.249,0,0,1,.057.129.314.314,0,0,1,.011.079v2.735a.861.861,0,0,1-.032.265.283.283,0,0,1-.1.144.757.757,0,0,1-.11.045.4.4,0,0,1-.068.018v.089h1.622Z" transform="translate(-88.597 154.626)" fill="#fff"/>
  <path id="Trazado_15" data-name="Trazado 15" d="M116.371-127.359c0,.056,0,.113-.005.171a.332.332,0,0,1-.057.165.241.241,0,0,1-.092.087.88.88,0,0,1-.176.06l-.005.089h1.638v-.089l-.087-.024a.33.33,0,0,1-.129-.066.257.257,0,0,1-.094-.144.982.982,0,0,1-.026-.171v-2.693a1.416,1.416,0,0,1,.008-.15.336.336,0,0,1,.05-.144.214.214,0,0,1,.113-.1.941.941,0,0,1,.155-.042v-.084h-1.627v.084a.866.866,0,0,1,.163.045.241.241,0,0,1,.121.113.437.437,0,0,1,.045.118.757.757,0,0,1,.008.181Z" transform="translate(-112.977 154.626)" fill="#fff"/>
  <path id="Trazado_16" data-name="Trazado 16" d="M135.808-128.377q.076,0,.186-.01l.567,1.065a.655.655,0,0,0,.042.079q.042.073.079.131a.7.7,0,0,0,.207.191,1,1,0,0,0,.22.1.813.813,0,0,0,.2.034l.139,0h.6v-.084a.529.529,0,0,1-.142-.055.468.468,0,0,1-.11-.092.91.91,0,0,1-.105-.144c-.035-.058-.075-.13-.121-.218l-.651-1.239c.014-.007.038-.021.071-.042a.805.805,0,0,0,.108-.084,1.149,1.149,0,0,0,.1-.1.947.947,0,0,0,.113-.165,1.219,1.219,0,0,0,.094-.226.928.928,0,0,0,.039-.278,1.536,1.536,0,0,0-.026-.228.831.831,0,0,0-.147-.328.872.872,0,0,0-.236-.231,1.051,1.051,0,0,0-.278-.126,1.464,1.464,0,0,0-.3-.053q-.157-.011-.32-.01h-1.785v.089q.221.031.276.139a.681.681,0,0,1,.05.318v2.662a.86.86,0,0,1-.037.226.267.267,0,0,1-.163.157.378.378,0,0,1-.076.024.332.332,0,0,1-.05.008v.084h1.622v-.084a1.079,1.079,0,0,1-.171-.055.258.258,0,0,1-.1-.076.265.265,0,0,1-.05-.118,1.361,1.361,0,0,1-.018-.176v-1.092Q135.732-128.377,135.808-128.377Zm-.181-1.606h.245q.1.005.214.021a.426.426,0,0,1,.2.089.336.336,0,0,1,.1.112.64.64,0,0,1,.055.126.572.572,0,0,1,.024.112c0,.035.005.059.005.073a.764.764,0,0,1-.013.123.515.515,0,0,1-.055.154.5.5,0,0,1-.123.146.511.511,0,0,1-.222.1.825.825,0,0,1-.1.013l-.1.008h-.235Z" transform="translate(-129.346 154.626)" fill="#fff"/>
  <path id="Trazado_17" data-name="Trazado 17" d="M170.972-128.016c-.025.007-.056.014-.094.021a.87.87,0,0,1-.147.01c-.021,0-.058,0-.11-.005a.908.908,0,0,1-.176-.031,1.124,1.124,0,0,1-.2-.076.552.552,0,0,1-.181-.145.651.651,0,0,1-.1-.16.881.881,0,0,1-.042-.118h-.089v.871c.059.025.107.043.142.055l.1.034.131.029q.084.018.2.034t.249.029q.134.013.276.013a2.072,2.072,0,0,0,.47-.047,1.61,1.61,0,0,0,.354-.123,1.1,1.1,0,0,0,.255-.17,1.283,1.283,0,0,0,.171-.189.987.987,0,0,0,.176-.375,1.525,1.525,0,0,0,.034-.265.977.977,0,0,0-.047-.317,1.1,1.1,0,0,0-.113-.241.93.93,0,0,0-.137-.17q-.071-.068-.118-.1a1.31,1.31,0,0,0-.21-.136q-.094-.047-.142-.073l-.194-.089q-.121-.058-.268-.136a.7.7,0,0,1-.236-.2.456.456,0,0,1-.05-.087.342.342,0,0,1-.029-.149.408.408,0,0,1,.11-.294.6.6,0,0,1,.268-.162.46.46,0,0,1,.129-.029l.092,0c.031,0,.072,0,.123.005a.661.661,0,0,1,.168.037.688.688,0,0,1,.184.1.657.657,0,0,1,.165.189.883.883,0,0,1,.084.194l.095.005v-.88l-.11-.04c-.035-.013-.071-.024-.11-.034-.056-.014-.15-.034-.284-.058a2.487,2.487,0,0,0-.452-.037,1.893,1.893,0,0,0-.68.105,1.24,1.24,0,0,0-.436.27.949.949,0,0,0-.234.362,1.169,1.169,0,0,0-.068.386.9.9,0,0,0,.047.3,1.017,1.017,0,0,0,.113.228.845.845,0,0,0,.136.16c.047.042.087.075.118.1a1.117,1.117,0,0,0,.155.1l.16.087.22.11.192.1a.963.963,0,0,1,.176.116.587.587,0,0,1,.131.155.42.42,0,0,1,.052.215.493.493,0,0,1-.115.333A.609.609,0,0,1,170.972-128.016Z" transform="translate(-161.069 155.378)" fill="#fff"/>
  <path id="Trazado_18" data-name="Trazado 18" d="M197.447-129.973a.819.819,0,0,1,.214.037.224.224,0,0,1,.14.152c.007.025.013.051.018.078a.414.414,0,0,1,.008.053h.1v-.84h-3.3v.84h.1a.386.386,0,0,1,.008-.063.435.435,0,0,1,.026-.087.26.26,0,0,1,.058-.084.255.255,0,0,1,.113-.06.458.458,0,0,1,.063-.016c.021,0,.054-.007.1-.01h.7v2.521c0,.084,0,.153-.005.207a.7.7,0,0,1-.021.139.264.264,0,0,1-.063.11.409.409,0,0,1-.089.068.369.369,0,0,1-.089.037l-.058.016v.089h1.622v-.089a1.343,1.343,0,0,1-.158-.055.314.314,0,0,1-.095-.066.289.289,0,0,1-.071-.168q-.008-.094-.008-.267v-2.542Z" transform="translate(-183.235 154.626)" fill="#fff"/>
  <path id="Trazado_19" data-name="Trazado 19" d="M241.408-126.913a.586.586,0,0,1-.079.024.251.251,0,0,0-.047.013v.089h1.6v-.089a1.073,1.073,0,0,1-.2-.066.254.254,0,0,1-.129-.16.291.291,0,0,1-.016-.066q-.005-.039-.01-.076c0-.028-.007-.054-.011-.079l-.267-2.646a.253.253,0,0,1-.005-.052v-.053a.392.392,0,0,1,.031-.173.259.259,0,0,1,.079-.1.254.254,0,0,1,.1-.045c.035-.007.067-.014.095-.021v-.084h-1.171l-1.066,2.368-1.034-2.368h-1.254v.084a.453.453,0,0,1,.239.113.351.351,0,0,1,.071.244q0,.068-.005.131c0,.042-.007.086-.01.132l-.215,2.425c-.007.074-.015.137-.024.189a.388.388,0,0,1-.05.139.289.289,0,0,1-.105.1.566.566,0,0,1-.184.06v.089h1.176v-.089a.85.85,0,0,1-.207-.087.245.245,0,0,1-.1-.2.286.286,0,0,1,0-.11.468.468,0,0,1,.005-.068l.178-2.026,1.139,2.578h.331l1.113-2.578.2,1.979c0,.028.006.056.008.084s0,.056,0,.084a.317.317,0,0,1-.057.215A.349.349,0,0,1,241.408-126.913Z" transform="translate(-221.771 154.626)" fill="#fff"/>
  <path id="Trazado_20" data-name="Trazado 20" d="M288.332-127.175a.386.386,0,0,1-.037.137.242.242,0,0,1-.092.1.587.587,0,0,1-.179.066v.089h2.913v-.845h-.094a.752.752,0,0,1-.079.215.259.259,0,0,1-.2.1.977.977,0,0,1-.139.01H289.7a1.225,1.225,0,0,1-.173-.013.276.276,0,0,1-.163-.081.258.258,0,0,1-.058-.123,1.092,1.092,0,0,1-.016-.213v-.725h.6a2.182,2.182,0,0,1,.228.018.324.324,0,0,1,.144.055.244.244,0,0,1,.092.139.886.886,0,0,0,.029.108h.084v-1.181h-.084a.293.293,0,0,1-.008.053.571.571,0,0,1-.026.084.34.34,0,0,1-.055.092.258.258,0,0,1-.095.071.466.466,0,0,1-.126.026q-.068.005-.184.005h-.6v-.982h.772l.2.013a.272.272,0,0,1,.176.081.26.26,0,0,1,.073.129c.011.047.018.078.021.092l.089.005v-.84h-2.6v.095a.836.836,0,0,1,.118.018.226.226,0,0,1,.15.113.281.281,0,0,1,.042.134c0,.051.005.122.005.212v2.562C288.34-127.289,288.337-127.227,288.332-127.175Z" transform="translate(-266.724 154.626)" fill="#fff"/>
  <path id="Trazado_21" data-name="Trazado 21" d="M320.024-128.377q.076,0,.186-.01l.567,1.065a.643.643,0,0,0,.042.079q.042.073.079.131a.7.7,0,0,0,.207.191,1,1,0,0,0,.22.1.813.813,0,0,0,.2.034l.139,0h.6v-.084a.531.531,0,0,1-.142-.055.471.471,0,0,1-.11-.092.918.918,0,0,1-.105-.144c-.035-.058-.075-.13-.121-.218l-.651-1.239q.021-.011.071-.042a.8.8,0,0,0,.108-.084,1.132,1.132,0,0,0,.1-.1.943.943,0,0,0,.113-.165,1.207,1.207,0,0,0,.094-.226.926.926,0,0,0,.039-.278,1.556,1.556,0,0,0-.026-.228.832.832,0,0,0-.147-.328.872.872,0,0,0-.236-.231,1.051,1.051,0,0,0-.278-.126,1.464,1.464,0,0,0-.3-.053q-.157-.011-.32-.01h-1.785v.089q.221.031.276.139a.682.682,0,0,1,.05.318v2.662a.866.866,0,0,1-.037.226.268.268,0,0,1-.163.157.375.375,0,0,1-.076.024.33.33,0,0,1-.05.008v.084h1.622v-.084a1.078,1.078,0,0,1-.171-.055.259.259,0,0,1-.1-.076.266.266,0,0,1-.05-.118,1.337,1.337,0,0,1-.018-.176v-1.092Q319.948-128.377,320.024-128.377Zm-.181-1.606h.245q.1.005.214.021a.427.427,0,0,1,.2.089.337.337,0,0,1,.1.112.643.643,0,0,1,.055.126.566.566,0,0,1,.024.112c0,.035.005.059.005.073a.772.772,0,0,1-.013.123.513.513,0,0,1-.055.154.5.5,0,0,1-.123.146.51.51,0,0,1-.221.1.825.825,0,0,1-.1.013l-.1.008h-.235Z" transform="translate(-294.022 154.626)" fill="#fff"/>
  <path id="Trazado_22" data-name="Trazado 22" d="M354.436-127.359c0,.056,0,.113-.005.171a.333.333,0,0,1-.057.165.241.241,0,0,1-.092.087.879.879,0,0,1-.176.06l-.005.089h1.638v-.089l-.087-.024a.33.33,0,0,1-.129-.066.256.256,0,0,1-.095-.144.985.985,0,0,1-.026-.171v-2.693a1.418,1.418,0,0,1,.008-.15.336.336,0,0,1,.05-.144.214.214,0,0,1,.113-.1.941.941,0,0,1,.155-.042v-.084H354.1v.084a.864.864,0,0,1,.163.045.241.241,0,0,1,.121.113.437.437,0,0,1,.045.118.755.755,0,0,1,.008.181Z" transform="translate(-325.791 154.626)" fill="#fff"/>
  <path id="Trazado_23" data-name="Trazado 23" d="M372.681-127.327a.627.627,0,0,1-.052.307.351.351,0,0,1-.268.144v.089h1.858a3.849,3.849,0,0,0,.394-.016,2.367,2.367,0,0,0,.257-.042,1.811,1.811,0,0,0,.548-.2,2.212,2.212,0,0,0,.312-.218,1.55,1.55,0,0,0,.257-.3,2.026,2.026,0,0,0,.186-.349,2.016,2.016,0,0,0,.116-.381,2,2,0,0,0,.039-.391,2.092,2.092,0,0,0-.142-.753,1.541,1.541,0,0,0-.441-.627,1.543,1.543,0,0,0-.315-.213,1.943,1.943,0,0,0-.312-.126,1.757,1.757,0,0,0-.268-.06c-.079-.011-.141-.017-.186-.021a1.484,1.484,0,0,0-.176-.01h-2.129v.095a.515.515,0,0,1,.2.063.264.264,0,0,1,.11.173.715.715,0,0,1,.013.087,1.092,1.092,0,0,1,0,.123Zm.966-2.651h.384a2.442,2.442,0,0,1,.282.021,1.286,1.286,0,0,1,.187.042c.038.01.1.032.184.066a.783.783,0,0,1,.248.165.984.984,0,0,1,.226.286,1.44,1.44,0,0,1,.116.3,1.371,1.371,0,0,1,.042.265c0,.079.005.135.005.171,0,.052,0,.134-.013.244a1.37,1.37,0,0,1-.081.354,1.252,1.252,0,0,1-.219.37,1.048,1.048,0,0,1-.419.291,1.112,1.112,0,0,1-.179.058c-.06.014-.116.025-.168.032s-.1.011-.14.013l-.087,0a.463.463,0,0,1-.216-.042.225.225,0,0,1-.105-.1.259.259,0,0,1-.037-.11q-.005-.058-.01-.168Z" transform="translate(-342.115 154.626)" fill="#fff"/>
  <path id="Trazado_24" data-name="Trazado 24" d="M412.391-127.359c0,.056,0,.113-.005.171a.329.329,0,0,1-.058.165.241.241,0,0,1-.092.087.891.891,0,0,1-.176.06l-.005.089h1.638v-.089l-.087-.024a.328.328,0,0,1-.129-.066.257.257,0,0,1-.095-.144.969.969,0,0,1-.026-.171v-2.693a1.492,1.492,0,0,1,.008-.15.34.34,0,0,1,.05-.144.215.215,0,0,1,.113-.1.941.941,0,0,1,.155-.042v-.084h-1.627v.084a.864.864,0,0,1,.163.045.243.243,0,0,1,.121.113.444.444,0,0,1,.045.118.786.786,0,0,1,.008.181Z" transform="translate(-377.599 154.626)" fill="#fff"/>
  <path id="Trazado_25" data-name="Trazado 25" d="M430.788-127.031a.268.268,0,0,1-.055.016l-.034.005-.005.089H432.3v-.089a.735.735,0,0,1-.142-.05.383.383,0,0,1-.163-.16,1.074,1.074,0,0,1-.066-.131c-.026-.06-.057-.13-.092-.21l-1.276-3.082h-.619l-1.375,3.166q-.026.058-.055.126a.962.962,0,0,1-.068.131.646.646,0,0,1-.089.113.336.336,0,0,1-.118.076.213.213,0,0,1-.039.013l-.055.008v.089h1.176v-.089a.35.35,0,0,1-.05-.008.307.307,0,0,1-.084-.031.311.311,0,0,1-.084-.066.162.162,0,0,1-.039-.115.34.34,0,0,1,.021-.116l.042-.115.194-.5h1.375l.184.483c.021.06.036.106.045.139a.378.378,0,0,1,.013.1.314.314,0,0,1-.024.1A.206.206,0,0,1,430.788-127.031Zm-1.255-1.417.488-1.165.467,1.165Z" transform="translate(-391.98 154.761)" fill="#fff"/>
  <path id="Trazado_26" data-name="Trazado 26" d="M471.1-130.33a.231.231,0,0,1,.1.176q.01.113.01.207v1.8l-1.937-2.341h-1.291v.095a.8.8,0,0,1,.11.016.239.239,0,0,1,.147.1.281.281,0,0,1,.06.123,1.145,1.145,0,0,1,.013.2v2.579a1.683,1.683,0,0,1-.026.281.246.246,0,0,1-.1.16.258.258,0,0,1-.118.05.813.813,0,0,1-.081.008v.095h1.171v-.095a.6.6,0,0,1-.11-.024.3.3,0,0,1-.073-.039.258.258,0,0,1-.1-.133.784.784,0,0,1-.032-.254V-129.6l2.378,2.814h.525v-3.265a.473.473,0,0,1,.013-.1.4.4,0,0,1,.047-.116.223.223,0,0,1,.108-.089.324.324,0,0,1,.092-.026.336.336,0,0,0,.06-.011l.005-.095h-1.171v.095a.584.584,0,0,1,.126.026A.442.442,0,0,1,471.1-130.33Z" transform="translate(-427.596 154.626)" fill="#fff"/>
  <path id="Trazado_27" data-name="Trazado 27" d="M522.384-126.913a.586.586,0,0,1-.079.024.248.248,0,0,0-.047.013v.089h1.6v-.089a1.074,1.074,0,0,1-.2-.066.255.255,0,0,1-.128-.16.283.283,0,0,1-.016-.066l-.01-.076c0-.028-.007-.054-.011-.079l-.268-2.646a.264.264,0,0,1-.005-.052v-.053a.391.391,0,0,1,.032-.173.258.258,0,0,1,.079-.1.253.253,0,0,1,.1-.045l.095-.021v-.084h-1.171l-1.066,2.368-1.034-2.368H519v.084a.454.454,0,0,1,.239.113.352.352,0,0,1,.071.244q0,.068-.005.131c0,.042-.007.086-.01.132l-.215,2.425c-.007.074-.015.137-.024.189a.383.383,0,0,1-.05.139.287.287,0,0,1-.1.1.567.567,0,0,1-.184.06v.089h1.176v-.089a.847.847,0,0,1-.207-.087.245.245,0,0,1-.1-.2.291.291,0,0,1,0-.11.441.441,0,0,1,.005-.068l.178-2.026,1.139,2.578h.331l1.113-2.578.2,1.979c0,.028.006.056.008.084s0,.056,0,.084a.318.318,0,0,1-.057.215A.348.348,0,0,1,522.384-126.913Z" transform="translate(-472.945 154.626)" fill="#fff"/>
  <path id="Trazado_28" data-name="Trazado 28" d="M572.162-130.707a1.906,1.906,0,0,0-.218-.207,1.665,1.665,0,0,0-.383-.236,2.284,2.284,0,0,0-.37-.126,1.823,1.823,0,0,0-.318-.05q-.142-.008-.226-.008a2.782,2.782,0,0,0-.591.063,2.179,2.179,0,0,0-.548.2,2.027,2.027,0,0,0-.47.339,1.607,1.607,0,0,0-.344.488,1.767,1.767,0,0,0-.145.431,2.384,2.384,0,0,0-.044.462,2.055,2.055,0,0,0,.063.533,1.979,1.979,0,0,0,.158.412,1.487,1.487,0,0,0,.2.3,1.968,1.968,0,0,0,.2.2,1.641,1.641,0,0,0,.407.262,2.12,2.12,0,0,0,.4.137,2.144,2.144,0,0,0,.346.05q.155.008.234.008a2.51,2.51,0,0,0,.8-.113,2,2,0,0,0,.567-.286,1.686,1.686,0,0,0,.373-.375,2.014,2.014,0,0,0,.215-.381,1.738,1.738,0,0,0,.115-.4,2.6,2.6,0,0,0,.032-.412,2.192,2.192,0,0,0-.074-.557,2.014,2.014,0,0,0-.168-.423A1.589,1.589,0,0,0,572.162-130.707Zm-.672,2.186a1.031,1.031,0,0,1-.328.389.855.855,0,0,1-.326.144,1.446,1.446,0,0,1-.236.029,1.608,1.608,0,0,1-.208-.023.808.808,0,0,1-.3-.119.9.9,0,0,1-.281-.26,1.54,1.54,0,0,1-.184-.35,1.993,1.993,0,0,1-.1-.389,2.442,2.442,0,0,1-.031-.379,1.725,1.725,0,0,1,.1-.626,1.386,1.386,0,0,1,.2-.368.791.791,0,0,1,.1-.1.961.961,0,0,1,.157-.111,1.035,1.035,0,0,1,.213-.089.933.933,0,0,1,.273-.037,1.048,1.048,0,0,1,.354.061.925.925,0,0,1,.307.181,1.083,1.083,0,0,1,.218.279,1.651,1.651,0,0,1,.137.329,1.966,1.966,0,0,1,.068.352,3.423,3.423,0,0,1,.018.35A1.731,1.731,0,0,1,571.49-128.521Z" transform="translate(-517.456 155.378)" fill="#fff"/>
  <path id="Trazado_29" data-name="Trazado 29" d="M611.294-128.377c.051,0,.113,0,.186-.01l.567,1.065a.629.629,0,0,0,.042.079q.042.073.079.131a.705.705,0,0,0,.207.191,1.008,1.008,0,0,0,.221.1.808.808,0,0,0,.2.034l.139,0h.6v-.084a.53.53,0,0,1-.142-.055.474.474,0,0,1-.11-.092.922.922,0,0,1-.105-.144c-.035-.058-.075-.13-.121-.218l-.651-1.239c.014-.007.038-.021.071-.042a.8.8,0,0,0,.108-.084,1.116,1.116,0,0,0,.1-.1.92.92,0,0,0,.113-.165,1.207,1.207,0,0,0,.095-.226.934.934,0,0,0,.039-.278,1.539,1.539,0,0,0-.026-.228.83.83,0,0,0-.147-.328.874.874,0,0,0-.236-.231,1.048,1.048,0,0,0-.278-.126,1.462,1.462,0,0,0-.3-.053q-.158-.011-.32-.01h-1.785v.089q.221.031.276.139a.679.679,0,0,1,.05.318v2.662a.866.866,0,0,1-.037.226.268.268,0,0,1-.163.157.372.372,0,0,1-.076.024.329.329,0,0,1-.05.008v.084h1.622v-.084a1.072,1.072,0,0,1-.17-.055.256.256,0,0,1-.1-.076.265.265,0,0,1-.05-.118,1.354,1.354,0,0,1-.019-.176v-1.092Q611.218-128.377,611.294-128.377Zm-.181-1.606h.245c.07,0,.141.011.214.021a.428.428,0,0,1,.2.089.338.338,0,0,1,.1.112.632.632,0,0,1,.055.126.586.586,0,0,1,.024.112c0,.035.005.059.005.073a.75.75,0,0,1-.013.123.517.517,0,0,1-.055.154.508.508,0,0,1-.122.146.512.512,0,0,1-.222.1.814.814,0,0,1-.1.013l-.1.008h-.235Z" transform="translate(-554.399 154.626)" fill="#fff"/>
  <path id="Trazado_30" data-name="Trazado 30" d="M643.437-129.973a.82.82,0,0,1,.213.037.223.223,0,0,1,.14.152q.01.037.018.078a.411.411,0,0,1,.008.053h.1v-.84h-3.3v.84h.1a.369.369,0,0,1,.008-.063.422.422,0,0,1,.026-.087.256.256,0,0,1,.058-.084.255.255,0,0,1,.113-.06.453.453,0,0,1,.063-.016c.021,0,.054-.007.1-.01h.7v2.521c0,.084,0,.153-.005.207a.719.719,0,0,1-.021.139.262.262,0,0,1-.063.11.409.409,0,0,1-.089.068.366.366,0,0,1-.089.037l-.058.016v.089h1.622v-.089a1.332,1.332,0,0,1-.157-.055.316.316,0,0,1-.095-.066.288.288,0,0,1-.071-.168c-.005-.063-.008-.152-.008-.267v-2.542Z" transform="translate(-581.921 154.626)" fill="#fff"/>
  <path id="Trazado_31" data-name="Trazado 31" d="M670.416-128.646a1.556,1.556,0,0,0,.092.223,1.113,1.113,0,0,0,.1.16,1.562,1.562,0,0,0,.355.386,1.863,1.863,0,0,0,.436.249,2.2,2.2,0,0,0,.488.134,3.336,3.336,0,0,0,.512.039,3.657,3.657,0,0,0,.473-.029q.221-.029.4-.071t.32-.087c.093-.03.169-.055.228-.076l.005-.819a1.106,1.106,0,0,1,.018-.2.241.241,0,0,1,.118-.163.518.518,0,0,1,.179-.058v-.089h-1.544v.089a.687.687,0,0,1,.168.053.238.238,0,0,1,.1.084.278.278,0,0,1,.042.126,1.616,1.616,0,0,1,.008.173v.441a1.036,1.036,0,0,1-.215.079,1.053,1.053,0,0,1-.226.021,1.051,1.051,0,0,1-.341-.05,1.037,1.037,0,0,1-.255-.123.923.923,0,0,1-.178-.154,1.437,1.437,0,0,1-.113-.144,1.332,1.332,0,0,1-.155-.283,1.654,1.654,0,0,1-.081-.27,1.538,1.538,0,0,1-.032-.23c0-.068-.005-.123-.005-.165s0-.081.005-.139a1.576,1.576,0,0,1,.026-.2,1.628,1.628,0,0,1,.066-.236,1.141,1.141,0,0,1,.129-.251,1.112,1.112,0,0,1,.315-.328,1.506,1.506,0,0,1,.352-.176,1.417,1.417,0,0,1,.32-.071c.1-.009.172-.013.221-.013a1.528,1.528,0,0,1,.388.042,1.067,1.067,0,0,1,.241.089.481.481,0,0,1,.131.1.656.656,0,0,1,.087.118.747.747,0,0,1,.052.11c.012.033.022.059.029.076h.094v-.88q-.158-.048-.438-.111a3.189,3.189,0,0,0-.69-.064,3.318,3.318,0,0,0-.669.06,2.461,2.461,0,0,0-.512.16,1.843,1.843,0,0,0-.381.226,2.014,2.014,0,0,0-.271.252,1.714,1.714,0,0,0-.27.4,2.319,2.319,0,0,0-.147.383,1.715,1.715,0,0,0-.06.328q-.011.147-.01.242a2,2,0,0,0,.029.354A2.032,2.032,0,0,0,670.416-128.646Z" transform="translate(-608.467 155.378)" fill="#fff"/>
  <path id="Trazado_32" data-name="Trazado 32" d="M708-127.031a.268.268,0,0,1-.055.016l-.034.005-.005.089h1.606v-.089a.734.734,0,0,1-.142-.05.381.381,0,0,1-.163-.16,1.081,1.081,0,0,1-.066-.131c-.026-.06-.057-.13-.092-.21l-1.276-3.082h-.619l-1.375,3.166c-.018.039-.036.081-.055.126a.975.975,0,0,1-.068.131.653.653,0,0,1-.089.113.335.335,0,0,1-.118.076.215.215,0,0,1-.039.013l-.055.008v.089h1.176v-.089a.35.35,0,0,1-.05-.008.306.306,0,0,1-.084-.031.307.307,0,0,1-.084-.066.162.162,0,0,1-.039-.115.339.339,0,0,1,.021-.116l.042-.115.194-.5h1.375l.184.483c.021.06.036.106.045.139a.378.378,0,0,1,.013.1.313.313,0,0,1-.023.1A.206.206,0,0,1,708-127.031Zm-1.255-1.417.488-1.165.467,1.165Z" transform="translate(-639.794 154.761)" fill="#fff"/>
  <path id="Trazado_33" data-name="Trazado 33" d="M745.417-131.274a2.463,2.463,0,0,0-.512.16,1.845,1.845,0,0,0-.381.226,2.009,2.009,0,0,0-.27.252,1.716,1.716,0,0,0-.27.4,2.25,2.25,0,0,0-.147.383,1.679,1.679,0,0,0-.06.328q-.011.147-.011.242a1.987,1.987,0,0,0,.029.354,2.06,2.06,0,0,0,.071.286,1.606,1.606,0,0,0,.092.223,1.112,1.112,0,0,0,.1.16,1.564,1.564,0,0,0,.354.386,1.861,1.861,0,0,0,.436.249,2.2,2.2,0,0,0,.488.134,3.341,3.341,0,0,0,.512.039,3.647,3.647,0,0,0,.472-.029q.22-.029.4-.071t.32-.087c.093-.03.169-.055.229-.076l.005-.819a1.144,1.144,0,0,1,.018-.2.243.243,0,0,1,.118-.163.518.518,0,0,1,.178-.058v-.089h-1.544v.089a.682.682,0,0,1,.168.053.239.239,0,0,1,.1.084.279.279,0,0,1,.042.126,1.663,1.663,0,0,1,.008.173v.441a1.03,1.03,0,0,1-.215.079,1.054,1.054,0,0,1-.226.021,1.055,1.055,0,0,1-.341-.05,1.038,1.038,0,0,1-.255-.123.928.928,0,0,1-.178-.154,1.438,1.438,0,0,1-.113-.144,1.336,1.336,0,0,1-.155-.283,1.681,1.681,0,0,1-.081-.27,1.571,1.571,0,0,1-.031-.23c0-.068-.005-.123-.005-.165s0-.081.005-.139a1.527,1.527,0,0,1,.026-.2,1.6,1.6,0,0,1,.066-.236,1.137,1.137,0,0,1,.129-.251,1.108,1.108,0,0,1,.315-.328,1.5,1.5,0,0,1,.352-.176,1.412,1.412,0,0,1,.32-.071c.1-.009.171-.013.22-.013a1.527,1.527,0,0,1,.389.042,1.071,1.071,0,0,1,.241.089.48.48,0,0,1,.131.1.635.635,0,0,1,.087.118.8.8,0,0,1,.053.11c.012.033.022.059.029.076h.095v-.88q-.157-.048-.438-.111a3.19,3.19,0,0,0-.69-.064A3.319,3.319,0,0,0,745.417-131.274Z" transform="translate(-674.127 155.378)" fill="#fff"/>
  <path id="Trazado_34" data-name="Trazado 34" d="M784.989-127.632h-.095a.759.759,0,0,1-.079.215.26.26,0,0,1-.2.1.973.973,0,0,1-.139.01h-.727a1.227,1.227,0,0,1-.173-.013.277.277,0,0,1-.163-.081.265.265,0,0,1-.058-.123,1.14,1.14,0,0,1-.016-.213v-.725h.6a2.18,2.18,0,0,1,.229.018.324.324,0,0,1,.144.055.243.243,0,0,1,.092.139.844.844,0,0,0,.029.108h.084v-1.181h-.084a.287.287,0,0,1-.008.053.55.55,0,0,1-.026.084.335.335,0,0,1-.055.092.258.258,0,0,1-.094.071.47.47,0,0,1-.126.026q-.068.005-.184.005h-.6v-.982h.772l.2.013a.271.271,0,0,1,.176.081.259.259,0,0,1,.073.129c.011.047.017.078.021.092l.089.005v-.84h-2.6v.095a.829.829,0,0,1,.118.018.227.227,0,0,1,.15.113.284.284,0,0,1,.042.134c0,.051.005.122.005.212v2.562a1.822,1.822,0,0,1-.008.184.392.392,0,0,1-.037.137.244.244,0,0,1-.092.1.589.589,0,0,1-.178.066v.089h2.914Z" transform="translate(-708.372 154.626)" fill="#fff"/>
  <path id="Trazado_35" data-name="Trazado 35" d="M98.066-334.643v-.426a5.479,5.479,0,0,1-1.05-.411,1.59,1.59,0,0,1-.746-.867,1.139,1.139,0,0,1-.076-.335c-.011-.122-.026-.294-.046-.518-.02-.2-.03-.4-.03-.578v-6.971H100.5a10.393,10.393,0,0,1,1.339.091,1.372,1.372,0,0,1,1.066.761,1.886,1.886,0,0,1,.168.472q.045.228.106.472l.457.03v-6.058h-.457a1.882,1.882,0,0,1-.03.244,2.83,2.83,0,0,1-.106.411,1.94,1.94,0,0,1-.228.457,1.686,1.686,0,0,1-.4.411,2.228,2.228,0,0,1-.928.3,8.495,8.495,0,0,1-.959.061H96.118v-6.789h5.206q.608.062,1.233.137a1.414,1.414,0,0,1,1.02.654,1.484,1.484,0,0,1,.213.411q.06.2.183.654h.487v-4.11H90v.457a1.842,1.842,0,0,1,.274.03,2.844,2.844,0,0,1,.411.106,1.943,1.943,0,0,1,.457.228,1.5,1.5,0,0,1,.411.427,1.462,1.462,0,0,1,.274.776q.03.441.03,1.233V-338.2q-.031.518-.046.929a4.641,4.641,0,0,1-.076.715,1.953,1.953,0,0,1-.183.533,1.428,1.428,0,0,1-.335.411,2.8,2.8,0,0,1-.73.38q-.4.137-.487.167v.426h8.067Z" transform="translate(-89.702 356.336)" fill="#fff"/>
  <path id="Trazado_36" data-name="Trazado 36" d="M220.785-334.643h6.088v-.426a8.856,8.856,0,0,1-1.111-.5,1.413,1.413,0,0,1-.624-1.05,3.758,3.758,0,0,1-.03-.837,2.386,2.386,0,0,1,.061-.5l1.157-13.181,7.245,16.5h1.157l7.032-16.5,1.248,12.937c.02.224.041.441.061.655s.03.432.03.655a1.378,1.378,0,0,1-.518,1.233,5.081,5.081,0,0,1-1.248.594v.426h7.885v-.426a8.232,8.232,0,0,1-.883-.35,1.846,1.846,0,0,1-.731-.624,2.178,2.178,0,0,1-.335-.928q-.061-.5-.122-.989l-1.492-14.947a3.787,3.787,0,0,1-.03-.472v-.472a1.977,1.977,0,0,1,.2-.944,1.5,1.5,0,0,1,.472-.548,1.882,1.882,0,0,1,.563-.259c.193-.05.35-.086.472-.106l.03-.427h-5.754L235-341.127l-6.545-15.008H222.49v.427a1.506,1.506,0,0,1,.259.045,2.988,2.988,0,0,1,.457.152,1.784,1.784,0,0,1,.487.3,1.61,1.61,0,0,1,.38.5,2.448,2.448,0,0,1,.152.883,7.167,7.167,0,0,1-.045.822c-.03.264-.056.538-.076.822l-1.278,14.216a12.311,12.311,0,0,1-.2,1.355,1.813,1.813,0,0,1-.441.837,1.634,1.634,0,0,1-.639.456q-.336.122-.761.244Z" transform="translate(-206.616 356.336)" fill="#fff"/>
  <path id="Trazado_37" data-name="Trazado 37" d="M504.6-334.643v-.426a8.845,8.845,0,0,1-1.111-.5,1.413,1.413,0,0,1-.624-1.05,3.759,3.759,0,0,1-.03-.837,2.388,2.388,0,0,1,.061-.5l1.157-13.181,3.191,7.267h0l4.054,9.232h1.157l7.032-16.5,1.012,10.5h0l.236,2.442c.02.224.04.441.061.655s.03.432.03.655a1.379,1.379,0,0,1-.517,1.233,5.086,5.086,0,0,1-1.248.594v.426h7.884v-.426a8.209,8.209,0,0,1-.882-.35,1.846,1.846,0,0,1-.731-.624,2.176,2.176,0,0,1-.335-.928q-.062-.5-.122-.989l-1.492-14.947a3.748,3.748,0,0,1-.03-.472v-.472a1.971,1.971,0,0,1,.2-.944,1.489,1.489,0,0,1,.472-.548,1.874,1.874,0,0,1,.563-.259c.192-.05.35-.086.472-.106l.031-.427h-5.754l-6.606,15.008-.834-1.912-5.711-13.1h-5.967v.427a1.5,1.5,0,0,1,.259.045,2.98,2.98,0,0,1,.457.152,1.78,1.78,0,0,1,.487.3,1.618,1.618,0,0,1,.381.5,2.449,2.449,0,0,1,.152.883,7.161,7.161,0,0,1-.046.822q-.046.4-.076.822l-.681,7.572h0l-.6,6.645a12.4,12.4,0,0,1-.2,1.355,1.816,1.816,0,0,1-.441.837q-.076.084-.154.154a1.485,1.485,0,0,1-.485.3q-.335.122-.761.244v.426H504.6Z" transform="translate(-454.89 356.336)" fill="#fff"/>
</svg>
