<svg xmlns="http://www.w3.org/2000/svg" width="39.669" height="40" viewBox="0 0 39.669 40">
  <g id="ico-uxui" transform="translate(0.207 0.488)">
    <rect id="Rectángulo_35" data-name="Rectángulo 35" width="39.661" height="40" rx="3" transform="translate(-0.206 -0.488)" fill="#343a77"/>
    <path id="Rectángulo_36" data-name="Rectángulo 36" d="M3,0H36.6a3,3,0,0,1,3,3v7.89a0,0,0,0,1,0,0H0a0,0,0,0,1,0,0V3A3,3,0,0,1,3,0Z" transform="translate(-0.136 -0.283)" fill="#161616"/>
    <rect id="Rectángulo_37" data-name="Rectángulo 37" width="18.545" height="4.389" rx="0.5" transform="translate(17.749 2.968)" fill="#fff"/>
    <circle id="Elipse_9" data-name="Elipse 9" cx="2.194" cy="2.194" r="2.194" transform="translate(3.345 2.968)" fill="#343a77"/>
    <circle id="Elipse_10" data-name="Elipse 10" cx="2.194" cy="2.194" r="2.194" transform="translate(9.875 2.968)" fill="#343a77"/>
    <rect id="Rectángulo_38" data-name="Rectángulo 38" width="18.496" height="12.012" transform="translate(3.345 14.039)" fill="#fff"/>
    <rect id="Rectángulo_39" data-name="Rectángulo 39" width="10.956" height="21.713" transform="translate(25.273 14.039)" fill="#fff"/>
    <rect id="Rectángulo_40" data-name="Rectángulo 40" width="18.496" height="6.336" transform="translate(3.345 29.416)" fill="#fff"/>
  </g>
</svg>
