<svg xmlns="http://www.w3.org/2000/svg" width="40" height="40" viewBox="0 0 40 40">
  <g id="ico-ingles" transform="translate(1686.113)">
    <path id="Trazado_477" data-name="Trazado 477" d="M-1650.527,0H-1681.7a4.414,4.414,0,0,0-4.414,4.414V31.465a4.414,4.414,0,0,0,4.414,4.414h2.843a8.25,8.25,0,0,0,.947.055h1.217l2.853,3.62a1.172,1.172,0,0,0,.92.446,1.172,1.172,0,0,0,.92-.446l2.853-3.62h14.829a8.248,8.248,0,0,0,.947-.055h2.843a4.414,4.414,0,0,0,4.414-4.414V4.414A4.414,4.414,0,0,0-1650.527,0Z" fill="#38478a"/>
    <g id="Grupo_181" data-name="Grupo 181" transform="translate(-1686.113)">
      <path id="Trazado_478" data-name="Trazado 478" d="M-1376.706,14.9V12.556h-9.853l9.6-9.6A4.422,4.422,0,0,0-1378.32,1l-12.335,12.335h-1.657V11.68L-1380.656.024A4.459,4.459,0,0,0-1381.12,0h-2.826l-7.584,7.584V0h-2.344V14.9Z" transform="translate(1416.706)" fill="#fff"/>
      <path id="Trazado_479" data-name="Trazado 479" d="M-1686.113,263.2v2.344h9.853l-9.7,9.7a4.41,4.41,0,0,0,1.242,2.073l12.556-12.556h1.657v1.657l-12.018,12.018a4.434,4.434,0,0,0,.826.078h2.41l7.875-7.876-.073,10.9,2.341-2.97h.042l.159-15.371Z" transform="translate(1686.113 -242.638)" fill="#fff"/>
      <path id="Trazado_480" data-name="Trazado 480" d="M-1383.557,278.517h2.437a4.432,4.432,0,0,0,.8-.073l-11.991-12.018v-1.662h1.653l12.543,12.573a4.411,4.411,0,0,0,1.252-2.063l-9.708-9.729h9.866V263.2h-17.169v15.371h2.344V270.53Z" transform="translate(1416.706 -242.638)" fill="#fff"/>
      <path id="Trazado_481" data-name="Trazado 481" d="M-1668.944,0h-2.344V7.584L-1678.872,0h-2.827a4.459,4.459,0,0,0-.464.024l11.656,11.656v1.657h-1.657L-1684.5,1a4.422,4.422,0,0,0-1.365,1.95l9.6,9.6h-9.853V14.9h17.169Z" transform="translate(1686.113)" fill="#fff"/>
      <path id="Trazado_482" data-name="Trazado 482" d="M-1646.113,20.563V14.9h-17.169V0h-5.662V14.9h-17.169v5.663h17.169l-.159,15.371h5.822V20.563Z" transform="translate(1686.113)" fill="#f41c2c"/>
      <path id="Trazado_483" data-name="Trazado 483" d="M-1651.466,13.625V11.968L-1663.121.312a4.393,4.393,0,0,0-2.337.978l12.335,12.335Z" transform="translate(1667.072 -0.288)" fill="#f41c2c"/>
      <path id="Trazado_484" data-name="Trazado 484" d="M-1373.871,13.625h1.657l12.335-12.335a4.394,4.394,0,0,0-2.337-.978l-11.656,11.656Z" transform="translate(1398.265 -0.288)" fill="#f41c2c"/>
      <path id="Trazado_485" data-name="Trazado 485" d="M-1654.073,283.2h-1.657l-12.556,12.556a4.4,4.4,0,0,0,2.2,1.119l12.018-12.018Z" transform="translate(1669.679 -261.076)" fill="#f41c2c"/>
      <path id="Trazado_486" data-name="Trazado 486" d="M-1373.871,283.2v1.662l11.991,12.018a4.4,4.4,0,0,0,2.205-1.107l-12.543-12.573Z" transform="translate(1398.265 -261.076)" fill="#f41c2c"/>
    </g>
  </g>
</svg>
