<svg id="ico-ae" xmlns="http://www.w3.org/2000/svg" width="40" height="40" viewBox="0 0 40 40">
  <path id="Trazado_196" data-name="Trazado 196" d="M6,10.444A4.445,4.445,0,0,1,10.444,6H41.556A4.445,4.445,0,0,1,46,10.444V41.556A4.445,4.445,0,0,1,41.556,46H10.444A4.445,4.445,0,0,1,6,41.556Z" transform="translate(-6 -6)" fill="#b388ff"/>
  <path id="Trazado_197" data-name="Trazado 197" d="M9,9V42.333H42.333V9Z" transform="translate(-5.667 -5.667)" fill="#170b40"/>
  <path id="Trazado_198" data-name="Trazado 198" d="M22.092,29.183H17.031l-.962,3.162H13L18.216,17H20.89l5.243,15.344H23.064Zm-4.281-2.561h3.5l-1.76-5.744Zm14.24,5.933a5.222,5.222,0,0,1-2.17-.432,4.8,4.8,0,0,1-1.627-1.181,5.133,5.133,0,0,1-1.02-1.754,6.516,6.516,0,0,1-.351-2.156v-.411a7.848,7.848,0,0,1,.342-2.377,5.586,5.586,0,0,1,.972-1.86,4.441,4.441,0,0,1,1.529-1.218,4.95,4.95,0,0,1,4-.032,4,4,0,0,1,1.439,1.139,4.992,4.992,0,0,1,.876,1.766,8.409,8.409,0,0,1,.294,2.3v1.3H29.7a3.383,3.383,0,0,0,.274,1.011,2.618,2.618,0,0,0,.529.774,2.315,2.315,0,0,0,.754.5,2.514,2.514,0,0,0,.972.179,3.18,3.18,0,0,0,1.4-.311,2.886,2.886,0,0,0,1.107-.964L36.112,30.5a4.4,4.4,0,0,1-.626.759,4.262,4.262,0,0,1-.886.659,4.9,4.9,0,0,1-1.15.463A5.291,5.291,0,0,1,32.051,32.556ZM31.734,23.2a1.722,1.722,0,0,0-.794.174,1.755,1.755,0,0,0-.587.484,2.572,2.572,0,0,0-.4.743,4.585,4.585,0,0,0-.22.959H33.6v-.242a3.322,3.322,0,0,0-.121-.843,1.9,1.9,0,0,0-.337-.674,1.526,1.526,0,0,0-.577-.442A2.027,2.027,0,0,0,31.734,23.2Z" transform="translate(-5.222 -4.778)" fill="#b388ff"/>
</svg>
