<svg xmlns="http://www.w3.org/2000/svg" width="32" height="32" viewBox="0 0 32 32">
  <g id="ico-linkedin" transform="translate(0)">
    <path id="Sustracción_2" data-name="Sustracción 2" d="M-5255.085-4676h-27.27a2.332,2.332,0,0,1-2.366-2.292v-27.416a2.333,2.333,0,0,1,2.366-2.293h27.27a2.333,2.333,0,0,1,2.365,2.293v27.416A2.332,2.332,0,0,1-5255.085-4676Zm-9.857-16.185c1.587,0,2.426,1.126,2.426,3.257v7.707h4.788v-8.261c0-4.06-2.061-6.483-5.513-6.483a4.733,4.733,0,0,0-4.314,2.374v-2.036h-4.789c.056,1.225.01,12.162,0,14.342v.064h4.788v-8.044a3.178,3.178,0,0,1,.158-1.168A2.667,2.667,0,0,1-5264.942-4692.184Zm-14.843-3.443v14.407H-5275v-14.407Zm2.427-6.945a2.494,2.494,0,0,0-2.709,2.49,2.487,2.487,0,0,0,2.646,2.489h.032a2.493,2.493,0,0,0,2.709-2.489A2.486,2.486,0,0,0-5277.358-4702.572Z" transform="translate(5284.721 4708)" fill="#fff"/>
  </g>
</svg>
