<svg id="ico-id" xmlns="http://www.w3.org/2000/svg" width="40" height="40" viewBox="0 0 40 40">
  <path id="Trazado_205" data-name="Trazado 205" d="M5,10.444A4.445,4.445,0,0,1,9.444,6H40.556A4.445,4.445,0,0,1,45,10.444V41.556A4.445,4.445,0,0,1,40.556,46H9.444A4.445,4.445,0,0,1,5,41.556Z" transform="translate(-5 -6)" fill="#e91e63"/>
  <path id="Trazado_206" data-name="Trazado 206" d="M26.446,22.553a1.321,1.321,0,0,0-1.237.683,5.328,5.328,0,0,0-.391,2.431v.813a5.608,5.608,0,0,0,.369,2.426,1.3,1.3,0,0,0,1.248.689,1.5,1.5,0,0,0,1.378-.813v-5.36A1.461,1.461,0,0,0,26.446,22.553Z" transform="translate(-2.798 -4.161)" fill="#16020b"/>
  <path id="Trazado_207" data-name="Trazado 207" d="M8,9V42.333H41.333V9ZM21.49,33.444H18.3v-15.8h3.19Zm11.284,0H29.986l-.141-1.193a2.826,2.826,0,0,1-2.431,1.411A3.2,3.2,0,0,1,24.6,32.251a7.435,7.435,0,0,1-.993-4.144v-.89a7.667,7.667,0,0,1,.977-4.308,3.233,3.233,0,0,1,2.843-1.421,2.742,2.742,0,0,1,2.257,1.172V16.778h3.092V33.444Z" transform="translate(-4.667 -5.667)" fill="#16020b"/>
</svg>
