<svg xmlns="http://www.w3.org/2000/svg" xmlns:xlink="http://www.w3.org/1999/xlink" width="40" height="39.991" viewBox="0 0 40 39.991">
  <defs>
    <linearGradient id="linear-gradient" x1="0.055" y1="0.633" x2="0.999" y2="-0.022" gradientUnits="objectBoundingBox">
      <stop offset="0.233" stop-color="#f89822"/>
      <stop offset="1" stop-color="#c27818"/>
    </linearGradient>
  </defs>
  <g id="ico-sublime" transform="translate(-26.6 -26.6)">
    <path id="Trazado_265" data-name="Trazado 265" d="M65.051,66.591h-36.9A1.555,1.555,0,0,1,26.6,65.042V28.149A1.555,1.555,0,0,1,28.149,26.6h36.9A1.555,1.555,0,0,1,66.6,28.149v36.9A1.553,1.553,0,0,1,65.051,66.591Z" fill="#4d4d4e"/>
    <path id="Trazado_266" data-name="Trazado 266" d="M129.6,91.806l20.931-6.643s1.486-.779,1.128.662l.054,6.4s.26.94-1.03,1.173l-8.5,2.659Z" transform="translate(-93.779 -53.129)" fill="#f89820"/>
    <path id="Trazado_267" data-name="Trazado 267" d="M123.221,161.5s-.824.2-.582,1.6l-.045,6.168s-.072.779,1.406,1.092l20.743,6.679s.7.278.618-.582l.009-6.876s.2-.707-1.092-1.173l-8.478-2.659Z" transform="translate(-87.4 -122.823)" fill="#f89820"/>
    <path id="Trazado_268" data-name="Trazado 268" d="M132.263,290.5l-8.827,2.695s-1.065.036-.94,2.032-.009,6.016-.009,6.016.09.743,1.11.313l20.931-6.679s.743-.188.116-.394S132.263,290.5,132.263,290.5Z" transform="translate(-87.301 -240.274)" fill="url(#linear-gradient)"/>
  </g>
</svg>
