<svg id="ico-xd" xmlns="http://www.w3.org/2000/svg" width="40" height="40" viewBox="0 0 40 40">
  <path id="Trazado_212" data-name="Trazado 212" d="M6,10.444A4.445,4.445,0,0,1,10.444,6H41.556A4.445,4.445,0,0,1,46,10.444V41.556A4.445,4.445,0,0,1,41.556,46H10.444A4.445,4.445,0,0,1,6,41.556Z" transform="translate(-6 -6)" fill="#ff41c8"/>
  <path id="Trazado_213" data-name="Trazado 213" d="M9,9V42.333H42.333V9ZM20.214,23.106l2.127-5.426H26l-3.711,7.834,3.8,7.964h-3.7l-2.17-5.523-2.159,5.523h-3.7l3.8-7.964L14.431,17.68h3.657Zm6.64,4.146a7.664,7.664,0,0,1,.977-4.308,3.232,3.232,0,0,1,2.843-1.421,2.742,2.742,0,0,1,2.257,1.172V16.813h3.092V33.48H33.234l-.141-1.193A2.828,2.828,0,0,1,30.662,33.7a3.206,3.206,0,0,1-2.816-1.411,7.416,7.416,0,0,1-.993-4.144v-.891Zm3.082.77a5.591,5.591,0,0,0,.369,2.426,1.3,1.3,0,0,0,1.248.689,1.5,1.5,0,0,0,1.378-.813v-5.36a1.463,1.463,0,0,0-1.367-.868,1.321,1.321,0,0,0-1.237.683,5.328,5.328,0,0,0-.391,2.431Z" transform="translate(-5.667 -5.667)" fill="#16020b"/>
</svg>
