<svg id="ico-pr" xmlns="http://www.w3.org/2000/svg" width="40" height="40" viewBox="0 0 40 40">
  <path id="Trazado_210" data-name="Trazado 210" d="M6,10.444A4.445,4.445,0,0,1,10.444,6H41.556A4.445,4.445,0,0,1,46,10.444V41.556A4.445,4.445,0,0,1,41.556,46H10.444A4.445,4.445,0,0,1,6,41.556Z" transform="translate(-6 -6)" fill="#e040fb"/>
  <path id="Trazado_211" data-name="Trazado 211" d="M9,9V42.333H42.333V9ZM22.351,20.3H20.127v4.927h2.192a1.739,1.739,0,0,0,1.411-.6,2.64,2.64,0,0,0,.5-1.737,3.13,3.13,0,0,0-.51-1.882A1.638,1.638,0,0,0,22.351,20.3Zm3.721,6.239a5.228,5.228,0,0,1-3.819,1.346H20.127v5.556H16.778v-15.8h5.541A4.938,4.938,0,0,1,26.057,19.1a5.231,5.231,0,0,1,1.394,3.776A4.892,4.892,0,0,1,26.072,26.543Zm9.817-1.877-1-.111a1.5,1.5,0,0,0-1.667,1.111v7.778H30.111V21.667H33l.111,1.222a2.088,2.088,0,0,1,2-1.444,2.166,2.166,0,0,1,.889.111Z" transform="translate(-5.667 -5.667)" fill="#020f16"/>
</svg>
