<svg id="ico-ai" xmlns="http://www.w3.org/2000/svg" width="40" height="40" viewBox="0 0 40 40">
  <path id="Trazado_202" data-name="Trazado 202" d="M6,10.444A4.445,4.445,0,0,1,10.444,6H41.556A4.445,4.445,0,0,1,46,10.444V41.556A4.445,4.445,0,0,1,41.556,46H10.444A4.445,4.445,0,0,1,6,41.556Z" transform="translate(-6 -6)" fill="#ff5722"/>
  <path id="Trazado_203" data-name="Trazado 203" d="M9,9V42.333H42.333V9ZM25.323,33.444l-.847-3.233H20.126l-.846,3.233H15.906l4.937-15.8h2.919l4.97,15.8Zm7.954,0H30.2V21.7h3.081Zm-.331-13.607a1.671,1.671,0,0,1-2.892-1.172,1.589,1.589,0,0,1,.456-1.172,1.85,1.85,0,0,1,2.431,0,1.583,1.583,0,0,1,.456,1.172A1.622,1.622,0,0,1,32.947,19.838Z" transform="translate(-5.667 -5.667)" fill="#1c0802"/>
  <path id="Trazado_204" data-name="Trazado 204" d="M19.639,26.26H22.59l-1.476-5.631Z" transform="translate(-4.485 -4.375)" fill="#1c0802"/>
</svg>
