<svg id="ico-ps" xmlns="http://www.w3.org/2000/svg" width="40" height="40" viewBox="0 0 40 40">
  <path id="Trazado_193" data-name="Trazado 193" d="M6,10.444A4.445,4.445,0,0,1,10.444,6H41.556A4.445,4.445,0,0,1,46,10.444V41.556A4.445,4.445,0,0,1,41.556,46H10.444A4.445,4.445,0,0,1,6,41.556Z" transform="translate(-6 -6)" fill="#03a9f4"/>
  <path id="Trazado_194" data-name="Trazado 194" d="M20.243,19.174H18.014v4.935h2.2a1.742,1.742,0,0,0,1.414-.6,2.645,2.645,0,0,0,.5-1.74,3.135,3.135,0,0,0-.511-1.886A1.641,1.641,0,0,0,20.243,19.174Z" transform="translate(-4.668 -4.54)" fill="#020f16"/>
  <path id="Trazado_195" data-name="Trazado 195" d="M9,9V42.322H42.321V9ZM24.955,26.537a5.226,5.226,0,0,1-3.817,1.345H19.012v5.554H15.823V17.643H21.2A4.936,4.936,0,0,1,24.94,19.1a5.229,5.229,0,0,1,1.394,3.774A4.89,4.89,0,0,1,24.955,26.537ZM35.3,32.7a4.786,4.786,0,0,1-3.1.954,4.933,4.933,0,0,1-2.278-.5,3.833,3.833,0,0,1-1.546-1.405,3.618,3.618,0,0,1-.559-1.942h2.918a1.865,1.865,0,0,0,.374,1.2,1.466,1.466,0,0,0,1.155.4q1.236,0,1.236-1.117a.956.956,0,0,0-.374-.721,7.432,7.432,0,0,0-1.664-.894,6.916,6.916,0,0,1-2.609-1.595,3.029,3.029,0,0,1-.711-2.05,3.277,3.277,0,0,1,1.112-2.544,4.23,4.23,0,0,1,2.944-1,4.585,4.585,0,0,1,3.091,1,3.351,3.351,0,0,1,1.161,2.679h-3.07q0-1.431-1.193-1.432a1.063,1.063,0,0,0-1.117,1.15.887.887,0,0,0,.348.689,7.617,7.617,0,0,0,1.638.852,6.783,6.783,0,0,1,2.652,1.546,3.149,3.149,0,0,1,.775,2.207A3.088,3.088,0,0,1,35.3,32.7Z" transform="translate(-5.661 -5.661)" fill="#020f16"/>
</svg>
