<svg xmlns="http://www.w3.org/2000/svg" width="32.001" height="32.002" viewBox="0 0 32.001 32.002">
  <path id="ico-instagram" d="M10.668,16A5.333,5.333,0,1,1,16,21.335,5.333,5.333,0,0,1,10.668,16M7.785,16A8.216,8.216,0,1,0,16,7.785,8.216,8.216,0,0,0,7.785,16M22.622,7.459A1.921,1.921,0,1,0,24.543,5.54a1.921,1.921,0,0,0-1.921,1.919M9.536,29.025a8.839,8.839,0,0,1-2.971-.551,4.977,4.977,0,0,1-1.841-1.2,4.946,4.946,0,0,1-1.2-1.839,8.839,8.839,0,0,1-.551-2.971C2.9,20.781,2.884,20.274,2.884,16s.017-4.778.093-6.466a8.88,8.88,0,0,1,.551-2.971,4.977,4.977,0,0,1,1.2-1.841,4.94,4.94,0,0,1,1.841-1.2,8.839,8.839,0,0,1,2.971-.551C11.223,2.9,11.729,2.882,16,2.882s4.778.017,6.466.093a8.88,8.88,0,0,1,2.971.551,4.961,4.961,0,0,1,1.841,1.2,4.966,4.966,0,0,1,1.2,1.841,8.839,8.839,0,0,1,.551,2.971c.078,1.688.093,2.193.093,6.466s-.016,4.778-.093,6.466a8.872,8.872,0,0,1-.551,2.971,5.3,5.3,0,0,1-3.037,3.036,8.839,8.839,0,0,1-2.971.551c-1.687.078-2.193.093-6.466.093s-4.778-.016-6.465-.093M9.4.1A11.737,11.737,0,0,0,5.52.84,7.852,7.852,0,0,0,2.686,2.686,7.83,7.83,0,0,0,.84,5.52,11.737,11.737,0,0,0,.1,9.4C.018,11.11,0,11.656,0,16s.018,4.891.1,6.6A11.737,11.737,0,0,0,.84,26.482a7.824,7.824,0,0,0,1.846,2.834A7.847,7.847,0,0,0,5.52,31.162a11.744,11.744,0,0,0,3.884.743c1.707.078,2.252.1,6.6.1s4.891-.018,6.6-.1a11.737,11.737,0,0,0,3.884-.743,8.182,8.182,0,0,0,4.68-4.68,11.7,11.7,0,0,0,.743-3.884c.078-1.707.1-2.252.1-6.6s-.018-4.891-.1-6.6a11.737,11.737,0,0,0-.743-3.884,7.869,7.869,0,0,0-1.846-2.834A7.847,7.847,0,0,0,26.483.84,11.718,11.718,0,0,0,22.6.1C20.893.019,20.348,0,16,0S11.112.018,9.4.1" fill="#fff"/>
</svg>
