<svg id="ico-bootstrap" xmlns="http://www.w3.org/2000/svg" width="40" height="40" viewBox="0 0 40 40">
  <path id="Trazado_261" data-name="Trazado 261" d="M0,34.842A5.158,5.158,0,0,0,5.158,40H34.842A5.158,5.158,0,0,0,40,34.842V5.158A5.158,5.158,0,0,0,34.842,0H5.158A5.158,5.158,0,0,0,0,5.158V34.842Z" fill="#563d7c"/>
  <path id="Trazado_262" data-name="Trazado 262" d="M77.4,60.3V54.638h4.986a7.756,7.756,0,0,1,1.374.119,3.429,3.429,0,0,1,1.17.424,2.261,2.261,0,0,1,.814.848,2.816,2.816,0,0,1,.305,1.391,2.562,2.562,0,0,1-.916,2.2,3.828,3.828,0,0,1-2.34.678Zm-5.325-9.8V74.719H83.811a12.382,12.382,0,0,0,3.172-.407,8.482,8.482,0,0,0,2.748-1.255,6.182,6.182,0,0,0,1.916-2.188,7.4,7.4,0,0,0-.39-7.055,5.821,5.821,0,0,0-3.341-2.256,6.036,6.036,0,0,0,2.459-2,5.305,5.305,0,0,0,.831-3.053,6.5,6.5,0,0,0-.56-2.849,4.654,4.654,0,0,0-1.577-1.849,6.808,6.808,0,0,0-2.442-1,15.077,15.077,0,0,0-3.155-.305ZM77.4,70.58V63.932h5.8a4.487,4.487,0,0,1,2.782.8,3.131,3.131,0,0,1,1.052,2.663,3.329,3.329,0,0,1-.322,1.56,2.56,2.56,0,0,1-.865.967,3.663,3.663,0,0,1-1.255.509,7.121,7.121,0,0,1-1.493.152H77.4Z" transform="translate(-60.813 -42.609)" fill="#fff"/>
</svg>
