<svg xmlns="http://www.w3.org/2000/svg" width="35.234" height="40" viewBox="0 0 35.234 40">
  <g id="ico-html5" transform="translate(-30)">
    <path id="Trazado_254" data-name="Trazado 254" d="M33.2,35.938,30,0H65.234l-3.2,35.938L47.578,40" fill="#e34f26"/>
    <path id="Trazado_255" data-name="Trazado 255" d="M256,70.961l11.686-3.2L270.431,37H256" transform="translate(-208.413 -34.098)" fill="#ef652a"/>
    <path id="Trazado_256" data-name="Trazado 256" d="M125.137,102.941h-5.882l-.392-4.549h6.275V94H114l.078,1.176,1.1,12.235h9.961Zm0,11.529h-.078l-4.941-1.333-.314-3.529h-4.392l.549,6.98,9.1,2.51h.078Z" transform="translate(-77.449 -86.704)" fill="#ebebeb"/>
    <path id="Trazado_257" data-name="Trazado 257" d="M255,102.941v4.471h5.49l-.549,5.725L255,114.471V119.1l9.1-2.51.078-.784,1.02-11.686.157-1.176H255ZM255,94v4.392h10.745l.078-.941.235-2.275L266.137,94Z" transform="translate(-207.454 -86.704)" fill="#fff"/>
  </g>
</svg>
