<svg xmlns="http://www.w3.org/2000/svg" width="40" height="31.489" viewBox="0 0 40 31.489">
  <g id="ico-proto" transform="translate(0 -54.425)">
    <rect id="Rectángulo_53" data-name="Rectángulo 53" width="17.652" height="31.489" rx="3" transform="translate(0 54.425)" fill="#161616"/>
    <rect id="Rectángulo_54" data-name="Rectángulo 54" width="6.455" height="1.574" rx="0.787" transform="translate(3.149 70.091)" fill="#fff"/>
    <rect id="Rectángulo_55" data-name="Rectángulo 55" width="11.462" height="1.574" rx="0.787" transform="translate(3.149 73.24)" fill="#fff"/>
    <rect id="Rectángulo_56" data-name="Rectángulo 56" width="11.462" height="1.574" rx="0.787" transform="translate(3.149 57.516)" fill="#fff"/>
    <path id="Trazado_327" data-name="Trazado 327" d="M184.792,135.949c-1.875,0-3.124,1.372-3.124,3.793v5.585h0v5.585c0,2.421-1.25,3.793-3.124,3.793H175.37" transform="translate(-161.672 -75.156)" fill="none" stroke="#343a77" stroke-miterlimit="10" stroke-width="2"/>
    <rect id="Rectángulo_57" data-name="Rectángulo 57" width="17.652" height="31.489" rx="3" transform="translate(22.348 54.425)" fill="#343a77"/>
    <rect id="Rectángulo_58" data-name="Rectángulo 58" width="11.462" height="11.462" rx="3" transform="translate(25.443 57.516)" fill="#fff"/>
    <rect id="Rectángulo_59" data-name="Rectángulo 59" width="11.462" height="1.574" rx="0.787" transform="translate(25.443 70.484)"/>
    <rect id="Rectángulo_60" data-name="Rectángulo 60" width="6.518" height="1.574" rx="0.787" transform="translate(25.443 76.782)"/>
    <rect id="Rectángulo_61" data-name="Rectángulo 61" width="11.462" height="1.574" rx="0.787" transform="translate(25.443 73.633)"/>
    <rect id="Rectángulo_62" data-name="Rectángulo 62" width="11.462" height="6.317" rx="3" transform="translate(3.086 76.389)" fill="#fff"/>
  </g>
</svg>
