<svg xmlns="http://www.w3.org/2000/svg" width="40" height="40" viewBox="0 0 40 40">
  <g id="ico-idiomas" transform="translate(-4362 -4275)">
    <g id="Grupo_196" data-name="Grupo 196" transform="translate(4362 4275)">
      <path id="Trazado_487" data-name="Trazado 487" d="M35.586,0H4.414A4.414,4.414,0,0,0,0,4.414V31.465a4.414,4.414,0,0,0,4.414,4.414H7.257a8.251,8.251,0,0,0,.947.055H9.42l2.853,3.62a1.172,1.172,0,0,0,1.841,0l2.853-3.62H31.8a8.251,8.251,0,0,0,.947-.055h2.842A4.414,4.414,0,0,0,40,31.465V4.414A4.414,4.414,0,0,0,35.586,0Z" fill="#343a77"/>
      <g id="Grupo_183" data-name="Grupo 183">
        <path id="Trazado_488" data-name="Trazado 488" d="M82.2,0H51.028a4.458,4.458,0,0,0-.464.024h32.1A4.458,4.458,0,0,0,82.2,0Z" transform="translate(-46.614)" fill="none"/>
      </g>
    </g>
    <text id="A_あ" data-name="A あ" transform="translate(4368 4300)" fill="#fff" font-size="20" font-family="OpenSans-Bold, Open Sans" font-weight="700" letter-spacing="-0.14em"><tspan x="0" y="0">A </tspan><tspan y="0" font-family="YuGothicUI-Bold, Yu Gothic UI">あ</tspan></text>
  </g>
</svg>
