<svg id="ico-espanol" xmlns="http://www.w3.org/2000/svg" width="40" height="40" viewBox="0 0 40 40">
  <path id="Trazado_487" data-name="Trazado 487" d="M35.586,0H4.414A4.414,4.414,0,0,0,0,4.414V31.465a4.414,4.414,0,0,0,4.414,4.414H7.257a8.251,8.251,0,0,0,.947.055H9.42l2.853,3.62a1.172,1.172,0,0,0,1.841,0l2.853-3.62H31.8a8.251,8.251,0,0,0,.947-.055h2.842A4.414,4.414,0,0,0,40,31.465V4.414A4.414,4.414,0,0,0,35.586,0Z" fill="#ffc200"/>
  <g id="Grupo_183" data-name="Grupo 183">
    <path id="Trazado_488" data-name="Trazado 488" d="M82.2,0H51.028a4.458,4.458,0,0,0-.464.024h32.1A4.458,4.458,0,0,0,82.2,0Z" transform="translate(-46.614)" fill="none"/>
    <path id="Trazado_489" data-name="Trazado 489" d="M36.05.312H3.95A4.414,4.414,0,0,0,0,4.7v5.749H40V4.7A4.414,4.414,0,0,0,36.05.312Z" transform="translate(0 -0.288)" fill="#f41c2c"/>
    <path id="Trazado_490" data-name="Trazado 490" d="M0,330.6v3.734a4.414,4.414,0,0,0,4.414,4.414H7.257a8.251,8.251,0,0,0,.947.055H9.42l2.853,3.62a1.172,1.172,0,0,0,1.841,0l2.853-3.62H31.8a8.251,8.251,0,0,0,.947-.055h2.842A4.414,4.414,0,0,0,40,334.33v-5.8H0Z" transform="translate(0 -302.865)" fill="#f41c2c"/>
  </g>
</svg>
