<svg id="ico-dw" xmlns="http://www.w3.org/2000/svg" width="40" height="40" viewBox="0 0 40 40">
  <path id="Trazado_199" data-name="Trazado 199" d="M6,10.444A4.445,4.445,0,0,1,10.444,6H41.556A4.445,4.445,0,0,1,46,10.444V41.556A4.445,4.445,0,0,1,41.556,46H10.444A4.445,4.445,0,0,1,6,41.556Z" transform="translate(-6 -6)" fill="#64dd17"/>
  <path id="Trazado_200" data-name="Trazado 200" d="M17.175,19.174H16.014V29.666h.954a2.673,2.673,0,0,0,2.246-.841,5,5,0,0,0,.683-2.9V23.177a5.61,5.61,0,0,0-.619-3.087A2.493,2.493,0,0,0,17.175,19.174Z" transform="translate(-4.887 -4.536)" fill="#0c1902"/>
  <path id="Trazado_201" data-name="Trazado 201" d="M9,9V42.333H42.333V9ZM23.868,26.782a6.915,6.915,0,0,1-1.643,4.888,5.875,5.875,0,0,1-4.531,1.774H13.6v-15.8H17.78A5.751,5.751,0,0,1,22.191,19.4a6.887,6.887,0,0,1,1.677,4.818v2.561Zm12.25,6.662h-2.55l-1.66-6.792-1.66,6.792H27.687L25.256,21.7h2.951l1.042,6.6,1.562-6.6h2.181l1.563,6.586L35.608,21.7h2.94Z" transform="translate(-5.667 -5.667)" fill="#0c1902"/>
</svg>
