<svg xmlns="http://www.w3.org/2000/svg" width="41" height="41" viewBox="0 0 41 41">
  <g id="ico-japones" transform="translate(-1112.556 0.5)">
    <path id="Trazado_500" data-name="Trazado 500" d="M1148.642,0H1117.47a4.414,4.414,0,0,0-4.414,4.414V31.465a4.414,4.414,0,0,0,4.414,4.414h2.842a8.251,8.251,0,0,0,.947.055h1.217l2.853,3.62a1.172,1.172,0,0,0,1.841,0l2.853-3.62h14.829a8.251,8.251,0,0,0,.947-.055h2.843a4.414,4.414,0,0,0,4.414-4.414V4.414A4.414,4.414,0,0,0,1148.642,0Z" fill="#fff" stroke="#7f7f7f" stroke-miterlimit="10" stroke-width="1"/>
    <circle id="Elipse_23" data-name="Elipse 23" cx="10.663" cy="10.663" r="10.663" transform="translate(1122.393 7.304)" fill="#f41c2c"/>
  </g>
</svg>
