<svg xmlns="http://www.w3.org/2000/svg" width="32.001" height="32.002" viewBox="0 0 32.001 32.002">
  <g id="ico-facebook" transform="translate(0 0)">
    <path id="Sustracción_1" data-name="Sustracción 1" d="M-5142.186-4676h-15.327a1.768,1.768,0,0,1-1.766-1.766v-28.469a1.768,1.768,0,0,1,1.766-1.766h28.469a1.768,1.768,0,0,1,1.766,1.766v28.469a1.768,1.768,0,0,1-1.766,1.766h-8.155v-12.391h4.16l.623-4.83h-4.783v-3.084c0-1.411.407-2.351,2.394-2.351h2.557v-4.319a34.383,34.383,0,0,0-3.727-.19c-3.832,0-6.212,2.446-6.212,6.385v3.562h-4.17v4.83h4.17V-4676Z" transform="translate(5159.278 4708)" fill="#fff"/>
  </g>
</svg>
