<svg xmlns="http://www.w3.org/2000/svg" width="40" height="17.11" viewBox="0 0 40 17.11">
  <g id="ico-less" transform="translate(16 -0.496)">
    <path id="Trazado_275" data-name="Trazado 275" d="M-15.94.5H24.051v17.11H-15.94" transform="translate(-0.051 0)" fill="none"/>
    <path id="Trazado_276" data-name="Trazado 276" d="M73.182,6.736c0-1.281.2-2.036.2-3.415C73.379,1.186,72.59.5,70.85.5H69.569V2.007h.394c.887,0,1.084.3,1.084,1.379,0,1.018-.1,2.036-.1,3.218,0,1.511.493,2.1,1.478,2.332v.1c-.985.23-1.478.821-1.478,2.332,0,1.182.1,2.135.1,3.218,0,1.117-.23,1.412-1.084,1.412v.033h-.394v1.576H70.85c1.74,0,2.529-.69,2.529-2.824,0-1.412-.2-2.135-.2-3.415,0-.69.427-1.412,1.708-1.478V8.181c-1.281-.033-1.708-.755-1.708-1.445m-14.548,2C57.615,8.345,56.7,8.115,56.7,7.458c0-.492.394-.788,1.117-.788a3.546,3.546,0,0,1,2.1.821l1.314-1.741A5.583,5.583,0,0,0,57.779,4.47c-2.233,0-3.744,1.281-3.744,3.087,0,1.609,1.412,2.43,2.595,2.89,1.018.394,2,.723,2,1.379,0,.493-.394.821-1.281.821a4.112,4.112,0,0,1-2.529-1.018l-1.281,1.9a6.323,6.323,0,0,0,3.744,1.379c2.627,0,4.039-1.379,4.039-3.185s-1.412-2.562-2.693-2.989m7.947,0c-.985-.394-1.9-.624-1.9-1.281,0-.492.394-.788,1.117-.788a3.546,3.546,0,0,1,2.1.821l1.314-1.741A5.583,5.583,0,0,0,65.76,4.47c-2.233,0-3.744,1.281-3.744,3.087,0,1.609,1.412,2.43,2.594,2.89,1.018.394,2,.723,2,1.379,0,.493-.394.821-1.281.821A4.112,4.112,0,0,1,62.8,11.629l-1.314,1.9a6.323,6.323,0,0,0,3.744,1.379c2.627,0,4.039-1.379,4.039-3.185s-1.412-2.562-2.693-2.989M47.073,8.575c.2-1.314.985-1.938,1.9-1.938,1.182,0,1.642.821,1.642,1.938Zm6.043.591c.033-2.66-1.412-4.729-4.171-4.729a4.787,4.787,0,0,0-4.63,5.156,4.777,4.777,0,0,0,4.959,5.156,6.541,6.541,0,0,0,3.514-1.117l-.985-1.74a4.094,4.094,0,0,1-2.135.624,2.393,2.393,0,0,1-2.594-2.135h5.944a8.483,8.483,0,0,0,.1-1.215Z" transform="translate(-50.889 0)" fill="#2b4b7b" fill-rule="evenodd"/>
    <path id="Trazado_277" data-name="Trazado 277" d="M-6.739,12.45c-.23,0-.525-.2-.525-.821V.5h-4.663c-1.773,0-2.562.69-2.562,2.824,0,1.412.2,2.2.2,3.415,0,.69-.427,1.412-1.708,1.478V9.921c1.281.033,1.708.755,1.708,1.445,0,1.215-.2,1.938-.2,3.35,0,2.135.788,2.824,2.529,2.824h1.281V16.03h-.394c-.821,0-1.084-.328-1.084-1.412s.1-2,.1-3.218c0-1.511-.493-2.1-1.478-2.332v-.1c.985-.23,1.478-.821,1.478-2.332,0-1.182-.1-2.135-.1-3.218s.23-1.379,1.084-1.379h.887v9.425c0,2,.69,3.317,2.693,3.317a4.35,4.35,0,0,0,1.478-.23l-.328-2.135a2.052,2.052,0,0,1-.394.033" transform="translate(0 0)" fill="#2b4b7b" fill-rule="evenodd"/>
  </g>
</svg>
