<svg xmlns="http://www.w3.org/2000/svg" xmlns:xlink="http://www.w3.org/1999/xlink" width="40" height="40" viewBox="0 0 40 40">
  <defs>
    <linearGradient id="linear-gradient" x1="0.5" y1="0.04" x2="0.5" y2="1" gradientUnits="objectBoundingBox">
      <stop offset="0" stop-color="#b2e198"/>
      <stop offset="1" stop-color="#04a171"/>
    </linearGradient>
  </defs>
  <g id="ico-atom" transform="translate(-216.325 -5352.386)">
    <circle id="Elipse_4" data-name="Elipse 4" cx="20" cy="20" r="20" transform="translate(216.325 5352.386)" fill="url(#linear-gradient)"/>
    <path id="Trazado_259" data-name="Trazado 259" d="M54.921,62.5q-.35.54-.682,1.092-.35-.961-.63-1.946.957-.137,2.031-.214-.368.528-.719,1.068Zm17.644,1.279a9.988,9.988,0,0,0-3-1.848,29.374,29.374,0,0,0-9.631-1.984q-.644-.034-1.288-.047c2.792-3.333,5.489-5.106,7.059-5.166a1.4,1.4,0,0,1,.83.2c.735.478.939,1.959.546,3.963a.73.73,0,1,0,1.433.281c.676-3.445-.27-4.875-1.182-5.468a2.825,2.825,0,0,0-1.682-.43c-2.416.092-5.8,2.667-8.888,6.638a31.1,31.1,0,0,0-3.5.313q-.176-.808-.278-1.629c-.277-2.283.063-3.9.909-4.335a1.172,1.172,0,0,1,.454-.122,4.872,4.872,0,0,1,3,1.43.73.73,0,1,0,.933-1.123c-1.514-1.257-2.874-1.851-4.043-1.763a2.637,2.637,0,0,0-1.008.277,3.258,3.258,0,0,0-1.6,2.281,10.022,10.022,0,0,0-.1,3.53c.067.55.164,1.122.29,1.71a17.889,17.889,0,0,0-2.377.662c-3.133,1.132-3.857,2.624-3.912,3.676-.053,1.005.462,2.5,3.212,3.919a.73.73,0,1,0,.669-1.3c-1.582-.816-2.465-1.744-2.423-2.545.059-1.13,1.953-2.326,5.179-3a30.943,30.943,0,0,0,1.143,3.337,26.078,26.078,0,0,0-2.444,6.23,10,10,0,0,0-.272,3.519,3.255,3.255,0,0,0,1.348,2.434,2.791,2.791,0,0,0,1.553.437,7.157,7.157,0,0,0,3.993-1.632.73.73,0,1,0-.848-1.189c-1.7,1.211-3.157,1.645-3.9,1.16-.8-.517-.964-2.163-.449-4.4a23.1,23.1,0,0,1,1.776-4.826q.271.58.562,1.152a29.414,29.414,0,0,0,5.73,8,10,10,0,0,0,2.91,2,4.112,4.112,0,0,0,1.547.337,2.679,2.679,0,0,0,1.234-.289,3.2,3.2,0,0,0,1.567-2.167,9.429,9.429,0,0,0,.161-3.338,28.117,28.117,0,0,0-2.75-8.877.73.73,0,1,0-1.316.633A26.643,26.643,0,0,1,66.321,72.8c.217,2.129-.133,3.646-.939,4.056-.845.431-2.353-.246-4.034-1.811a27.94,27.94,0,0,1-5.424-7.594q-.535-1.051-1-2.136.578-1.032,1.222-2.025t1.348-1.939l.362,0c.627,0,1.3.015,2,.052a27.9,27.9,0,0,1,9.135,1.869c2.111.9,3.342,2,3.292,2.951-.042.805-1.021,1.638-2.685,2.284a.73.73,0,1,0,.528,1.361c2.892-1.123,3.562-2.561,3.615-3.569a3.256,3.256,0,0,0-1.174-2.522Z" transform="translate(176.716 5306.803)" fill="#f2f8f6"/>
    <path id="Trazado_260" data-name="Trazado 260" d="M119.194,121.4a1.595,1.595,0,1,0,1.595-1.6,1.6,1.6,0,0,0-1.595,1.6" transform="translate(115.649 5251.157)" fill="#f1f8f3"/>
  </g>
</svg>
