<svg id="ico-lr" xmlns="http://www.w3.org/2000/svg" width="40" height="40" viewBox="0 0 40 40">
  <path id="Trazado_208" data-name="Trazado 208" d="M6,10.444A4.458,4.458,0,0,1,10.444,6H41.556A4.458,4.458,0,0,1,46,10.444V41.556A4.458,4.458,0,0,1,41.556,46H10.444A4.458,4.458,0,0,1,6,41.556Z" transform="translate(-6 -6)" fill="#c5cae9"/>
  <path id="Trazado_209" data-name="Trazado 209" d="M9,9V42.333H42.333V9ZM26.778,33.444H17.889V17.889h3.333V30.778h5.556Zm8-8.778-1-.111a1.5,1.5,0,0,0-1.667,1.111v7.778H29V21.667h2.889L32,22.889a2.088,2.088,0,0,1,2-1.444,2.166,2.166,0,0,1,.889.111Z" transform="translate(-5.667 -5.667)" fill="#020f16"/>
</svg>
