<svg xmlns="http://www.w3.org/2000/svg" width="35.27" height="40" viewBox="0 0 35.27 40">
  <g id="ico-css3" transform="translate(-193.633 -376.982)">
    <g id="g3013" transform="translate(193.633 376.982)">
      <path id="polygon2989" d="M109.9,100.62l-3.213,36-14.443,4-14.4-4-3.21-36Z" transform="translate(-74.633 -100.62)" fill="#264de4"/>
      <path id="polygon2991" d="M267.671,161.654l2.746-30.76H256v34Z" transform="translate(-238.365 -127.95)" fill="#2965f1"/>
      <path id="polygon2993" d="M150.31,268.217l.4,4.415h9.881v-4.415Z" transform="translate(-142.952 -251.921)" fill="#ebebeb"/>
      <path id="polygon2995" d="M153.2,176.3H142.132l.4,4.415H153.2Z" transform="translate(-135.569 -168.946)" fill="#ebebeb"/>
      <path id="polygon2997" d="M166.093,345.771v-4.594l-.019.005-4.917-1.328-.314-3.522h-4.432l.619,6.933,9.045,2.511Z" transform="translate(-148.458 -313.414)" fill="#ebebeb"/>
      <path id="polygon3005" d="M261.28,189.657l-.512,5.726-4.925,1.329v4.594l9.052-2.509.066-.746L266,186.428l.108-1.186.8-8.937H255.843v4.415h6.222l-.4,4.521h-5.82v4.415Z" transform="translate(-238.223 -168.946)" fill="#fff"/>
    </g>
  </g>
</svg>
