<svg xmlns="http://www.w3.org/2000/svg" width="40" height="29.998" viewBox="0 0 40 29.998">
  <path id="ico-sass" d="M34.417,17.218a8.282,8.282,0,0,0-3.624.84,7.636,7.636,0,0,1-.811-1.878,5.042,5.042,0,0,1-.073-1.578,14.016,14.016,0,0,1,.475-1.7c-.007-.073-.088-.416-.891-.424s-1.5.153-1.578.365a8.816,8.816,0,0,0-.336,1.191,28.122,28.122,0,0,1-2.448,4.705,5.075,5.075,0,0,1-.555-1.374,5.042,5.042,0,0,1-.073-1.578,14.018,14.018,0,0,1,.475-1.7c-.007-.073-.088-.416-.891-.424s-1.5.153-1.578.365-.168.709-.336,1.191-2.119,4.837-2.63,5.962c-.263.577-.49,1.037-.65,1.352h0a.333.333,0,0,1-.029.058c-.139.27-.219.416-.219.416v.007c-.11.2-.226.38-.285.38a2.445,2.445,0,0,1,.015-1.242c.292-1.512.986-3.865.979-3.945,0-.044.132-.453-.453-.665a.725.725,0,0,0-.826.139c-.051,0-.088.124-.088.124s.636-2.645-1.213-2.645c-1.154,0-2.747,1.264-3.536,2.4-.5.27-1.556.848-2.689,1.469-.431.241-.877.482-1.293.709-.029-.029-.058-.066-.088-.095-2.236-2.389-6.371-4.077-6.2-7.284.066-1.169.468-4.238,7.942-7.964C17.065,1.364,21.96,2.2,22.807,4.067c1.213,2.659-2.623,7.6-8.979,8.314A4.788,4.788,0,0,1,9.81,11.366c-.336-.365-.387-.387-.511-.314-.2.11-.073.438,0,.628a3.752,3.752,0,0,0,2.294,1.8,12.215,12.215,0,0,0,7.452-.738c3.85-1.49,6.86-5.633,5.976-9.1C24.137.122,18.292-1.04,12.761.925A27.859,27.859,0,0,0,3.344,6.332C.3,9.181-.185,11.658.012,12.7.721,16.378,5.8,18.774,7.83,20.55c-.1.058-.2.11-.278.153-1.016.5-4.888,2.528-5.852,4.669-1.1,2.426.175,4.165,1.016,4.4a6.248,6.248,0,0,0,6.729-2.725,6.75,6.75,0,0,0,.6-6.218.153.153,0,0,0-.029-.044c.263-.153.533-.314.8-.468.519-.307,1.03-.592,1.469-.826a9.629,9.629,0,0,0-.519,2.659,5.552,5.552,0,0,0,1.191,3.858,1.316,1.316,0,0,0,.964.314c.862,0,1.249-.716,1.68-1.564.526-1.037,1-2.243,1-2.243s-.592,3.259,1.016,3.259c.584,0,1.176-.76,1.439-1.147v.007s.015-.022.044-.073l.095-.153v-.015c.234-.409.76-1.337,1.542-2.879,1.008-1.987,1.98-4.471,1.98-4.471a12.7,12.7,0,0,0,.387,1.615,15.2,15.2,0,0,0,.833,1.87c-.234.329-.38.511-.38.511l.007.007c-.19.248-.395.519-.621.782a23.288,23.288,0,0,0-1.878,2.353.639.639,0,0,0,.175.862,1.594,1.594,0,0,0,.979.161,4.5,4.5,0,0,0,1.469-.336,4.929,4.929,0,0,0,1.264-.665,2.828,2.828,0,0,0,1.213-2.491,5.03,5.03,0,0,0-.46-1.761c.073-.1.139-.2.212-.307A33.468,33.468,0,0,0,28.1,15.859a12.7,12.7,0,0,0,.387,1.615,10.816,10.816,0,0,0,.709,1.607,6.944,6.944,0,0,0-2.133,2.754c-.46,1.33-.1,1.929.577,2.068a2.036,2.036,0,0,0,1.067-.219,4.859,4.859,0,0,0,1.352-.694,3.038,3.038,0,0,0,1.49-2.469,4.669,4.669,0,0,0-.336-1.461,7.652,7.652,0,0,1,3.88-.446c3.478.409,4.165,2.579,4.033,3.492a2.311,2.311,0,0,1-1.1,1.564c-.241.153-.321.2-.3.314.029.161.146.153.351.124a2.716,2.716,0,0,0,1.892-2.418C40.079,19.541,38.033,17.2,34.417,17.218ZM7.589,26.263c-1.154,1.257-2.762,1.732-3.456,1.33-.745-.431-.453-2.287.964-3.617a18.406,18.406,0,0,1,2.711-2.024c.168-.1.416-.248.716-.431.051-.029.08-.044.08-.044h0l.175-.11A4.99,4.99,0,0,1,7.589,26.263Zm8.4-5.713c-.4.979-1.242,3.485-1.753,3.346-.438-.117-.709-2.016-.088-3.894A8.847,8.847,0,0,1,15.516,17.5c.628-.7,1.322-.935,1.49-.65C17.218,17.218,16.239,19.936,15.991,20.55Zm6.934,3.317c-.168.088-.329.146-.4.1-.051-.029.073-.146.073-.146s.869-.935,1.213-1.359c.2-.248.431-.541.679-.869v.095C24.488,22.807,23.407,23.56,22.924,23.867Zm5.348-1.22c-.124-.088-.1-.38.314-1.293a4.868,4.868,0,0,1,1.191-1.534,2.068,2.068,0,0,1,.117.672A2.21,2.21,0,0,1,28.272,22.647Z" transform="translate(0.026 0.026)" fill="#cd6799"/>
</svg>
