<svg xmlns="http://www.w3.org/2000/svg" width="40" height="40" viewBox="0 0 40 40">
  <g id="ico-os" transform="translate(-6085 -5704)">
    <path id="settings" d="M39.059,15.445l-3.074-.668A16.731,16.731,0,0,0,35,12.391l1.7-2.647a1.2,1.2,0,0,0-.16-1.491L31.747,3.463a1.2,1.2,0,0,0-1.491-.16L27.609,5a16.732,16.732,0,0,0-2.386-.989L24.554.941A1.2,1.2,0,0,0,23.386,0H16.613a1.2,1.2,0,0,0-1.168.941l-.668,3.074A16.731,16.731,0,0,0,12.391,5L9.744,3.3a1.2,1.2,0,0,0-1.491.16L3.463,8.252A1.2,1.2,0,0,0,3.3,9.744L5,12.391a16.732,16.732,0,0,0-.989,2.386l-3.074.668A1.2,1.2,0,0,0,0,16.613v6.773a1.2,1.2,0,0,0,.941,1.168l3.074.668A16.731,16.731,0,0,0,5,27.608L3.3,30.256a1.2,1.2,0,0,0,.16,1.491l4.789,4.789a1.2,1.2,0,0,0,1.491.16l2.647-1.7a16.731,16.731,0,0,0,2.386.989l.668,3.074A1.2,1.2,0,0,0,16.613,40h6.773a1.2,1.2,0,0,0,1.168-.941l.668-3.074a16.731,16.731,0,0,0,2.386-.989l2.647,1.7a1.2,1.2,0,0,0,1.491-.16l4.789-4.789a1.2,1.2,0,0,0,.16-1.491L35,27.608a16.732,16.732,0,0,0,.989-2.386l3.074-.668A1.2,1.2,0,0,0,40,23.386V16.613A1.2,1.2,0,0,0,39.059,15.445Z" transform="translate(6085 5704)" fill="#343a77"/>
    <text id="OS" transform="translate(6091 5731)" fill="#f6f6f6" font-size="19" font-family="OpenSans-ExtraBold, Open Sans" font-weight="800"><tspan x="0" y="0">OS</tspan></text>
  </g>
</svg>
