<svg xmlns="http://www.w3.org/2000/svg" width="40" height="35.622" viewBox="0 0 40 35.622">
  <g id="ico-react" transform="translate(-175.7 -78)">
    <path id="Trazado_269" data-name="Trazado 269" d="M215.7,95.815c0-2.65-3.318-5.161-8.406-6.718,1.174-5.185.652-9.311-1.647-10.632a3.575,3.575,0,0,0-1.826-.457v1.818a1.888,1.888,0,0,1,.929.212c1.109.636,1.59,3.057,1.215,6.172-.09.766-.236,1.574-.416,2.4a39.513,39.513,0,0,0-5.177-.889,39.771,39.771,0,0,0-3.392-4.077c2.658-2.47,5.153-3.824,6.849-3.824V78c-2.242,0-5.177,1.6-8.145,4.37-2.968-2.756-5.9-4.338-8.145-4.338v1.818c1.688,0,4.191,1.345,6.849,3.8a38.506,38.506,0,0,0-3.367,4.068,38.075,38.075,0,0,0-5.186.9c-.188-.815-.326-1.606-.424-2.364-.383-3.115.09-5.536,1.19-6.18a1.815,1.815,0,0,1,.938-.212V78.041a3.635,3.635,0,0,0-1.843.457c-2.291,1.321-2.8,5.438-1.623,10.607C179,90.67,175.7,93.173,175.7,95.815s3.318,5.161,8.406,6.718c-1.174,5.185-.652,9.311,1.647,10.632a3.584,3.584,0,0,0,1.834.457c2.242,0,5.177-1.6,8.145-4.37,2.968,2.756,5.9,4.338,8.145,4.338a3.635,3.635,0,0,0,1.843-.457c2.291-1.321,2.8-5.438,1.623-10.607,5.055-1.557,8.357-4.068,8.357-6.71Zm-10.616-5.438c-.3,1.052-.677,2.136-1.1,3.221-.334-.652-.685-1.3-1.068-1.957s-.775-1.288-1.174-1.908C202.9,89.9,204.016,90.116,205.085,90.377ZM201.35,99.06c-.636,1.1-1.288,2.144-1.965,3.115-1.215.106-2.446.163-3.685.163s-2.462-.057-3.669-.155q-1.015-1.455-1.973-3.1-.929-1.6-1.7-3.245c.506-1.093,1.076-2.185,1.688-3.253.636-1.1,1.288-2.144,1.965-3.115,1.215-.106,2.446-.163,3.685-.163s2.462.057,3.669.155q1.015,1.455,1.973,3.1.929,1.6,1.7,3.245C202.524,96.9,201.962,97.992,201.35,99.06ZM203.984,98c.44,1.093.815,2.185,1.125,3.245-1.068.261-2.193.481-3.359.652.4-.628.8-1.272,1.174-1.932S203.65,98.652,203.984,98Zm-8.267,8.7a33.614,33.614,0,0,1-2.267-2.609c.734.033,1.484.057,2.242.057s1.525-.016,2.267-.057A31.826,31.826,0,0,1,195.716,106.7Zm-6.066-4.8c-1.158-.171-2.275-.383-3.343-.644.3-1.052.677-2.136,1.1-3.221.334.652.685,1.3,1.068,1.957S189.251,101.278,189.65,101.9Zm6.025-16.967a33.609,33.609,0,0,1,2.267,2.609c-.734-.033-1.484-.057-2.242-.057s-1.525.016-2.267.057A31.819,31.819,0,0,1,195.676,84.93Zm-6.033,4.8c-.4.628-.8,1.272-1.174,1.932s-.726,1.3-1.06,1.957c-.44-1.093-.815-2.185-1.125-3.245C187.351,90.124,188.476,89.9,189.642,89.733ZM182.264,99.94c-2.886-1.231-4.753-2.845-4.753-4.126s1.867-2.9,4.753-4.126c.7-.3,1.468-.571,2.258-.823a39.162,39.162,0,0,0,1.834,4.965,38.61,38.61,0,0,0-1.81,4.941C183.739,100.519,182.973,100.242,182.264,99.94Zm4.386,11.651c-1.109-.636-1.59-3.057-1.215-6.172.09-.766.236-1.574.416-2.4a39.51,39.51,0,0,0,5.177.889,39.775,39.775,0,0,0,3.392,4.077c-2.658,2.47-5.153,3.824-6.849,3.824A1.946,1.946,0,0,1,186.65,111.592Zm19.34-6.213c.383,3.115-.09,5.536-1.19,6.18a1.815,1.815,0,0,1-.938.212c-1.688,0-4.191-1.345-6.849-3.8a38.511,38.511,0,0,0,3.367-4.068,38.075,38.075,0,0,0,5.186-.9A22.828,22.828,0,0,1,205.99,105.379Zm3.139-5.438c-.7.3-1.468.571-2.258.823a39.16,39.16,0,0,0-1.834-4.965,38.607,38.607,0,0,0,1.81-4.941c.807.253,1.574.53,2.291.832,2.886,1.231,4.753,2.845,4.753,4.126s-1.875,2.9-4.762,4.126Z" transform="translate(0)" fill="#61dafb"/>
    <circle id="Elipse_5" data-name="Elipse 5" cx="3.715" cy="3.715" r="3.715" transform="translate(191.976 92.099)" fill="#61dafb"/>
  </g>
</svg>
