<svg xmlns="http://www.w3.org/2000/svg" width="40" height="40" viewBox="0 0 40 40">
  <path id="ico-wordpress" d="M28.4,48.4a19.847,19.847,0,0,1-20-20c.084-11.166,8.5-20,20-20a19.742,19.742,0,0,1,20,20A20,20,0,0,1,28.4,48.4Zm5.916-3.084L28.65,30.066,23.316,45.649C27.233,46.567,29.9,46.816,34.316,45.316Zm-13.833-.833-8.5-23.25A18.241,18.241,0,0,0,10.4,28.4,18.055,18.055,0,0,0,20.483,44.483ZM46.316,28.4a19.224,19.224,0,0,0-2.084-8.416,17.959,17.959,0,0,1-.916,7.083l-5.834,16.75A17.869,17.869,0,0,0,46.4,28.4Zm-18.5-.75L24.983,19.9,22.9,19.733a.792.792,0,0,1,.25-1.5,61.323,61.323,0,0,0,9.583,0,.751.751,0,1,1,.083,1.5l-2,.166,6.5,19.166,3.083-10.5c.167-4.583-1.084-5.083-2.75-8.416-1.334-2.584.084-5.084,2.667-5.166a17.886,17.886,0,0,0-26.917,3.5l6.167-.166a.857.857,0,0,1,0,1.5l-2.166.166,6.5,19.5L27.817,27.65Z" transform="translate(-8.399 -8.4)" fill="#21759b"/>
</svg>
