<svg id="inovo" xmlns="http://www.w3.org/2000/svg" width="54.428" height="53.954" viewBox="0 0 54.428 53.954">
  <g id="Grupo_16" data-name="Grupo 16" transform="translate(0 0)">
    <path id="Trazado_87" data-name="Trazado 87" d="M2569.658,660.291h-.2a27.133,27.133,0,0,1-19.289-8.152,26.68,26.68,0,0,1-7.718-19.342c.273-14.59,12.156-26.46,26.488-26.46,10.594,0,16.23,3.935,21.891,10.282a4.5,4.5,0,0,1,.6,5.093l-.108.2-.156.169c-2.332,2.536-4.42,5.541-4.47,6.431v10.828a6.753,6.753,0,0,1-2.107,4.919,6.851,6.851,0,0,1-5.037,1.912,6.981,6.981,0,0,1-6.644-6.951V627.273a3.184,3.184,0,0,0-.994-2.32,3.229,3.229,0,0,0-2.378-.9,3.325,3.325,0,0,0-3.131,3.342v11.949a6.75,6.75,0,0,1-2.107,4.919,6.848,6.848,0,0,1-5.036,1.912,6.981,6.981,0,0,1-6.644-6.951v-9.241a1.821,1.821,0,0,1,3.642,0v9.241a3.326,3.326,0,0,0,3.131,3.342,3.252,3.252,0,0,0,2.377-.9,3.184,3.184,0,0,0,.994-2.32V627.394a6.981,6.981,0,0,1,6.644-6.951,6.862,6.862,0,0,1,5.037,1.912,6.751,6.751,0,0,1,2.107,4.918v11.949a3.326,3.326,0,0,0,3.131,3.342,3.267,3.267,0,0,0,2.377-.9,3.185,3.185,0,0,0,.994-2.32V628.508c0-2.574,3.5-6.747,5.222-8.64a.885.885,0,0,0-.177-.857c-5.119-5.74-9.9-9.063-19.162-9.063-12.361,0-22.61,10.28-22.846,22.916a23.112,23.112,0,0,0,6.685,16.754,23.5,23.5,0,0,0,16.707,7.061h.174a23.532,23.532,0,0,0,23.572-23.039,23.137,23.137,0,0,0-1.381-8.242,1.8,1.8,0,0,1,1.1-2.31,1.825,1.825,0,0,1,2.33,1.088,26.723,26.723,0,0,1,1.6,9.514A27.171,27.171,0,0,1,2569.658,660.291Z" transform="translate(-2542.446 -606.336)" fill="azure"/>
  </g>
  <g id="Grupo_17" data-name="Grupo 17" transform="translate(10.15 16.31)">
    <circle id="Elipse_2" data-name="Elipse 2" cx="1.88" cy="1.88" r="1.88" fill="azure"/>
  </g>
</svg>
