<svg id="ksa" xmlns="http://www.w3.org/2000/svg" width="108.96" height="36.227" viewBox="0 0 108.96 36.227">
  <path id="Trazado_71" data-name="Trazado 71" d="M754.11,1220.57H723.757l-2.047-4.8h32.4Z" transform="translate(-645.15 -1192.949)" fill="#fff"/>
  <path id="Trazado_72" data-name="Trazado 72" d="M742.577,1185.91h-33.6l-2.047-4.8h35.643Z" transform="translate(-633.616 -1165.896)" fill="#fff"/>
  <path id="Trazado_73" data-name="Trazado 73" d="M731.043,1151.249H694.2l-2.047-4.8h38.886Z" transform="translate(-622.083 -1138.841)" fill="#fff"/>
  <path id="Trazado_74" data-name="Trazado 74" d="M719.509,1116.588H679.428l-2.047-4.8h42.128Z" transform="translate(-610.549 -1111.786)" fill="#fff"/>
  <path id="Trazado_75" data-name="Trazado 75" d="M397.4,1116.184a4.211,4.211,0,0,0-.925.3,5.171,5.171,0,0,0-.811.491,8.655,8.655,0,0,0-.887.755q-.472.453-1.114,1.132l-8.154,8.116,8.856,11.026q1.019,1.209,1.7,1.963a7.475,7.475,0,0,0,1.284,1.171,4.419,4.419,0,0,0,.585.339q.245.113.623.3v.529h-3.813a9.76,9.76,0,0,1-1.284-.076,5.1,5.1,0,0,1-2.6-1.114,22.646,22.646,0,0,1-2.038-1.944l-8.4-10.385V1138q.038.529.057,1.17a3.419,3.419,0,0,0,.207,1.133,1.592,1.592,0,0,0,.453.717,3.577,3.577,0,0,0,.6.434,2,2,0,0,0,.585.227,3.777,3.777,0,0,1,.4.094v.529h-9.891v-.529a1.889,1.889,0,0,1,.377-.094,2.312,2.312,0,0,0,.6-.208,1.946,1.946,0,0,0,.812-.6,2.621,2.621,0,0,0,.415-.812,3.612,3.612,0,0,0,.151-.906q.019-.472.019-.963v-19.48a2.475,2.475,0,0,0-.076-.6,2.094,2.094,0,0,0-.415-1,2.531,2.531,0,0,0-.661-.566,2.089,2.089,0,0,0-.7-.264q-.34-.057-.528-.094v-.528h9.815v.528c-.051,0-.176.013-.378.038a1.877,1.877,0,0,0-.6.189,1.74,1.74,0,0,0-1.076,1.265,8.536,8.536,0,0,0-.17,1.68v8.758l8.645-8.73q.6-.64,1-1.11a1.228,1.228,0,0,0,.359-.884,1.064,1.064,0,0,0-.3-.715,1.735,1.735,0,0,0-1.057-.452v-.566h8.381Z" transform="translate(-372.829 -1114.807)" fill="#fff"/>
  <path id="Trazado_76" data-name="Trazado 76" d="M515.183,1122.04h-.541q-.289-.721-.469-1.082a4.292,4.292,0,0,0-.4-.649,6.086,6.086,0,0,0-.559-.631,3.874,3.874,0,0,0-.866-.632,5.314,5.314,0,0,0-1.208-.469,6.123,6.123,0,0,0-1.551-.18q-.289,0-.812.054a5.564,5.564,0,0,0-1.172.27,5.194,5.194,0,0,0-.7.342,3.454,3.454,0,0,0-.794.63,3.753,3.753,0,0,0-.667,1.008,3.433,3.433,0,0,0-.289,1.476,3.18,3.18,0,0,0,.108.9c.072.24.132.421.18.54a3.3,3.3,0,0,0,.721.991,6.734,6.734,0,0,0,1.028.81q.559.36,1.136.666t1.082.558l1.227.612q.36.181.7.379t.667.414q.432.252,1.1.739a7.072,7.072,0,0,1,1.3,1.26,7.4,7.4,0,0,1,1.082,1.873,6.76,6.76,0,0,1,.451,2.575,8.88,8.88,0,0,1-.072,1.009,7.023,7.023,0,0,1-.307,1.332,8.278,8.278,0,0,1-.686,1.513,7.4,7.4,0,0,1-3.264,2.972,10.552,10.552,0,0,1-2.092.7,11.272,11.272,0,0,1-1.821.252q-.811.036-1.172.036-.253,0-.812-.018t-1.28-.09q-.722-.073-1.569-.217a13.534,13.534,0,0,1-1.677-.4q-.4-.144-.74-.289t-.739-.324v-5.122h.541q.072.181.252.631a5.983,5.983,0,0,0,.469.92,3.992,3.992,0,0,0,1.28,1.226,6.862,6.862,0,0,0,1.443.649,5.533,5.533,0,0,0,1.281.252c.384.024.65.036.793.036q.252,0,.794-.036a4.769,4.769,0,0,0,1.19-.252,5.46,5.46,0,0,0,1.3-.649,4.21,4.21,0,0,0,1.154-1.19,4.3,4.3,0,0,0,.686-2.344,3.683,3.683,0,0,0-.379-1.731,4.392,4.392,0,0,0-.992-1.263,7.853,7.853,0,0,0-1.352-.956q-.74-.414-1.5-.848l-1.371-.685q-.614-.325-1.064-.613t-1.028-.722q-.361-.251-.866-.685a5.681,5.681,0,0,1-.956-1.082,6.652,6.652,0,0,1-.776-1.551,6.29,6.29,0,0,1-.325-2.128,7.044,7.044,0,0,1,.235-1.912,7.909,7.909,0,0,1,.559-1.46,4.831,4.831,0,0,1,.722-1.064,10.058,10.058,0,0,1,.721-.721,8.923,8.923,0,0,1,2.363-1.371,10.566,10.566,0,0,1,4.058-.649,14.268,14.268,0,0,1,3.823.438q1.55.439,2.417.768Z" transform="translate(-471.866 -1114.807)" fill="#fff"/>
  <path id="Trazado_77" data-name="Trazado 77" d="M598.2,1141.5h-9.966v-.528a4.227,4.227,0,0,0,1-.321,1.32,1.32,0,0,0,.51-.472,1.079,1.079,0,0,0,.208-.415,1.867,1.867,0,0,0,.057-.453,3.434,3.434,0,0,0-.208-1.038,7.88,7.88,0,0,0-.4-1l-1.736-4.3h-9.7l-1.888,4.3q-.3.756-.453,1.208a2.737,2.737,0,0,0-.151.868,2.608,2.608,0,0,0,.019.283.936.936,0,0,0,.17.4,1.271,1.271,0,0,0,.7.642q.434.151.887.3v.528h-7.626l.038-.528c.126-.025.3-.057.51-.095a1.868,1.868,0,0,0,.736-.359,3.062,3.062,0,0,0,.887-1.019q.358-.641.887-1.812l10.193-23.066h2.567l9.4,22.311q.566,1.283.887,1.963a4.274,4.274,0,0,0,.85,1.208,2.373,2.373,0,0,0,.736.528q.358.151.887.34Zm-11.665-11.25-3.624-8.8-3.775,8.8Z" transform="translate(-526.437 -1114.001)" fill="#fff"/>
  <path id="Trazado_78" data-name="Trazado 78" d="M426.6,1196.176a22.65,22.65,0,0,0,2.038,1.944,5.1,5.1,0,0,0,2.6,1.114,9.72,9.72,0,0,0,1.284.076h3.813v-.529q-.377-.188-.623-.3a4.413,4.413,0,0,1-.585-.339,7.485,7.485,0,0,1-1.284-1.171q-.68-.755-1.7-1.963l-5.069-6.327q-3,.375-5.85.86Z" transform="translate(-410.606 -1171.805)" fill="#fff"/>
  <path id="Trazado_79" data-name="Trazado 79" d="M382.72,1203.81a3.824,3.824,0,0,0-.4-.095,2,2,0,0,1-.585-.227,3.589,3.589,0,0,1-.6-.434,1.591,1.591,0,0,1-.453-.717,3.418,3.418,0,0,1-.207-1.132q-.02-.642-.057-1.171v-4.909q-2.686.525-5.21,1.145v3.953q0,.491-.019.963a3.618,3.618,0,0,1-.151.906,2.625,2.625,0,0,1-.415.812,1.947,1.947,0,0,1-.812.6,2.316,2.316,0,0,1-.6.208,1.9,1.9,0,0,0-.377.095v.528h9.891Z" transform="translate(-372.829 -1176.837)" fill="#fff"/>
  <path id="Trazado_80" data-name="Trazado 80" d="M511.612,1194.135a7.4,7.4,0,0,0,3.264-2.972,8.278,8.278,0,0,0,.686-1.513,7.023,7.023,0,0,0,.307-1.332,8.887,8.887,0,0,0,.072-1.009,6.759,6.759,0,0,0-.451-2.575,8.055,8.055,0,0,0-.675-1.3q-3.053-.115-6.19-.116-.793,0-1.582.008c.377.214.754.429,1.124.636a7.859,7.859,0,0,1,1.352.956,4.4,4.4,0,0,1,.992,1.263,3.681,3.681,0,0,1,.379,1.731,4.3,4.3,0,0,1-.686,2.345,4.209,4.209,0,0,1-1.154,1.19,5.46,5.46,0,0,1-1.3.649,4.786,4.786,0,0,1-1.19.252q-.541.037-.794.036c-.144,0-.409-.012-.793-.036a5.555,5.555,0,0,1-1.281-.252,6.862,6.862,0,0,1-1.443-.649,3.991,3.991,0,0,1-1.28-1.226,5.976,5.976,0,0,1-.469-.92q-.181-.451-.252-.631h-.541v5.122q.4.181.739.324t.74.289a13.623,13.623,0,0,0,1.677.4q.847.144,1.569.217t1.28.09q.559.018.812.018.36,0,1.172-.036a11.245,11.245,0,0,0,1.821-.252A10.529,10.529,0,0,0,511.612,1194.135Z" transform="translate(-471.866 -1167.62)" fill="#fff"/>
  <path id="Trazado_81" data-name="Trazado 81" d="M572.68,1193.342q-.529,1.17-.887,1.812a3.063,3.063,0,0,1-.887,1.019,1.864,1.864,0,0,1-.736.359c-.214.038-.384.07-.51.095l-.038.528h7.626v-.528q-.453-.151-.887-.3a1.27,1.27,0,0,1-.7-.642.935.935,0,0,1-.17-.4,2.608,2.608,0,0,1-.019-.283,2.736,2.736,0,0,1,.151-.868q.151-.453.453-1.208l1.888-4.3h9.7l1.736,4.3a7.9,7.9,0,0,1,.4,1,3.433,3.433,0,0,1,.208,1.038,1.867,1.867,0,0,1-.057.453,1.078,1.078,0,0,1-.208.415,1.322,1.322,0,0,1-.51.472,4.235,4.235,0,0,1-1,.321v.528H598.2v-.528q-.529-.189-.887-.34a2.366,2.366,0,0,1-.736-.528,4.271,4.271,0,0,1-.85-1.208q-.321-.68-.887-1.963l-1.741-4.131a134.153,134.153,0,0,0-17.141-2.534Z" transform="translate(-526.437 -1169.653)" fill="#fff"/>
  <g id="Grupo_11" data-name="Grupo 11" transform="translate(0 30.424)">
    <path id="Trazado_82" data-name="Trazado 82" d="M484.664,1257.461a.536.536,0,0,0-.136-.13.591.591,0,0,0-.154-.071.918.918,0,0,0-.173-.031q-.092-.008-.185-.008h-.308v1.223h.313a1.7,1.7,0,0,0,.355-.047.485.485,0,0,0,.287-.209.528.528,0,0,0,.083-.172.686.686,0,0,0,.026-.183,1.27,1.27,0,0,0-.016-.152A.5.5,0,0,0,484.664,1257.461Z" transform="translate(-459.376 -1255.73)" fill="#fff"/>
    <path id="Trazado_83" data-name="Trazado 83" d="M508.635,1260.813h1.029l-.5-1.223Z" transform="translate(-478.833 -1257.579)" fill="#fff"/>
    <path id="Trazado_84" data-name="Trazado 84" d="M623.678,1260.813h1.029l-.5-1.223Z" transform="translate(-568.631 -1257.579)" fill="#fff"/>
    <path id="Trazado_85" data-name="Trazado 85" d="M372.829,1250.428v5.8h108.96v-5.8Zm4.152,1.674v2.5c0,.08.006.149.008.207a.409.409,0,0,0,.024.139.213.213,0,0,0,.065.094.469.469,0,0,0,.092.06.45.45,0,0,0,.087.034.388.388,0,0,1,.05.016v.074h-1.391l.005-.073a.676.676,0,0,0,.194-.084.3.3,0,0,0,.1-.11.356.356,0,0,0,.034-.149c0-.058,0-.127,0-.207v-2.5c0-.07,0-.143-.01-.22a.286.286,0,0,0-.1-.194.337.337,0,0,0-.108-.063.847.847,0,0,0-.118-.026v-.079h1.391l-.005.074a.319.319,0,0,0-.055.01.478.478,0,0,0-.081.026.288.288,0,0,0-.152.158A.914.914,0,0,0,376.981,1252.1Zm6.436-.5a.348.348,0,0,0-.262.144.583.583,0,0,0-.052.292v3.223h-.315l-2.6-3.024v2.462a1.168,1.168,0,0,0,.021.22.268.268,0,0,0,.126.179.293.293,0,0,0,.084.037l.089.021v.074h-1.05l.005-.074.081-.018a.321.321,0,0,0,.118-.055.268.268,0,0,0,.1-.176,1.666,1.666,0,0,0,.013-.207v-2.661a.594.594,0,0,0-.005-.179.3.3,0,0,0-.058-.136.307.307,0,0,0-.089-.079.3.3,0,0,0-.095-.034.485.485,0,0,0-.074-.008v-.079h1.05l2.189,2.562v-2.027a.938.938,0,0,0-.023-.244.273.273,0,0,0-.1-.139.334.334,0,0,0-.079-.042.836.836,0,0,0-.126-.032v-.079h1.045Zm4.562,2.721a1.017,1.017,0,0,1-.045.194,1.192,1.192,0,0,1-.1.22,1.077,1.077,0,0,1-.475.433,1.532,1.532,0,0,1-.3.1,1.644,1.644,0,0,1-.265.037c-.079,0-.136,0-.171,0l-.118,0c-.054,0-.116-.006-.186-.013s-.146-.017-.228-.031a2.023,2.023,0,0,1-.244-.058c-.038-.014-.074-.028-.108-.042l-.108-.047v-.746h.079l.037.092a.886.886,0,0,0,.068.134.583.583,0,0,0,.186.179,1.023,1.023,0,0,0,.21.094.8.8,0,0,0,.186.037l.115.005c.024,0,.063,0,.115-.005a.691.691,0,0,0,.173-.037.81.81,0,0,0,.189-.094.613.613,0,0,0,.168-.173.627.627,0,0,0,.1-.342.537.537,0,0,0-.055-.252.634.634,0,0,0-.144-.183,1.151,1.151,0,0,0-.2-.139l-.218-.123-.2-.1c-.06-.031-.111-.061-.155-.089s-.094-.063-.15-.1c-.035-.025-.077-.058-.126-.1a.814.814,0,0,1-.139-.157.971.971,0,0,1-.113-.226.913.913,0,0,1-.047-.31,1.022,1.022,0,0,1,.034-.278,1.145,1.145,0,0,1,.081-.213.7.7,0,0,1,.1-.155q.058-.063.105-.105a1.3,1.3,0,0,1,.344-.2,1.537,1.537,0,0,1,.591-.095,2.078,2.078,0,0,1,.557.064q.225.064.352.112v.754H387.8c-.028-.07-.051-.122-.068-.157a.61.61,0,0,0-.058-.094.907.907,0,0,0-.081-.092.561.561,0,0,0-.126-.092.765.765,0,0,0-.176-.068.9.9,0,0,0-.226-.026c-.028,0-.067,0-.118.008a.833.833,0,0,0-.171.039.807.807,0,0,0-.1.05.516.516,0,0,0-.115.091.55.55,0,0,0-.1.147.5.5,0,0,0-.042.215.459.459,0,0,0,.016.131c.011.035.019.061.026.079a.482.482,0,0,0,.1.144.978.978,0,0,0,.15.118c.054.035.109.067.165.1l.158.082.178.089c.035.017.069.036.1.055s.066.039.1.06.1.06.16.108a1.03,1.03,0,0,1,.189.184,1.068,1.068,0,0,1,.158.273.978.978,0,0,1,.066.374A1.308,1.308,0,0,1,387.979,1254.319Zm6.006-2.726-.095.026a.308.308,0,0,0-.089.042.252.252,0,0,0-.121.182,1.151,1.151,0,0,0-.011.218v1.706c-.007.126-.015.248-.024.365a1.369,1.369,0,0,1-.076.354,1.306,1.306,0,0,1-.155.3,1.053,1.053,0,0,1-.273.268,1.472,1.472,0,0,1-.42.192,2.135,2.135,0,0,1-.6.073c-.031,0-.084,0-.158-.005a2.118,2.118,0,0,1-.252-.029,2.009,2.009,0,0,1-.3-.076,1.347,1.347,0,0,1-.3-.147,1.13,1.13,0,0,1-.3-.289,1.086,1.086,0,0,1-.134-.228q-.044-.107-.06-.16a1.344,1.344,0,0,1-.044-.231c-.009-.081-.015-.2-.018-.346v-1.743q0-.052,0-.108a.4.4,0,0,0-.008-.1.288.288,0,0,0-.058-.134.293.293,0,0,0-.089-.073.424.424,0,0,0-.092-.034l-.071-.016v-.074H391.6v.074a.422.422,0,0,0-.063.013.323.323,0,0,0-.094.039.255.255,0,0,0-.139.184,2.027,2.027,0,0,0-.023.231v1.706c0,.07,0,.137,0,.2a1.387,1.387,0,0,0,.018.192,1.078,1.078,0,0,0,.047.184.826.826,0,0,0,.094.184.785.785,0,0,0,.365.313,1.222,1.222,0,0,0,.47.092,1.082,1.082,0,0,0,.349-.047,1.689,1.689,0,0,0,.213-.089.743.743,0,0,0,.223-.194.893.893,0,0,0,.126-.239,1.143,1.143,0,0,0,.058-.271c.009-.094.013-.191.013-.289v-1.743a1.783,1.783,0,0,0-.008-.2.327.327,0,0,0-.045-.123.237.237,0,0,0-.089-.092.691.691,0,0,0-.173-.055v-.074h1.04Zm5.57,3.633h-.436c-.018,0-.045,0-.084-.005a1.174,1.174,0,0,1-.131-.021,1.129,1.129,0,0,1-.158-.047.506.506,0,0,1-.152-.089.785.785,0,0,1-.131-.147,2.754,2.754,0,0,1-.152-.252l-.63-1.134-.168.008c-.056,0-.114,0-.173,0a.828.828,0,0,0-.092-.005.734.734,0,0,1-.086-.005v1.139c0,.01,0,.037,0,.079a1.024,1.024,0,0,0,.013.126.263.263,0,0,0,.115.2.879.879,0,0,0,.215.081v.074h-1.4v-.074l.084-.018a.324.324,0,0,0,.115-.055.244.244,0,0,0,.108-.171,1.622,1.622,0,0,0,.013-.207v-2.62a1.957,1.957,0,0,0-.011-.233.248.248,0,0,0-.063-.139.213.213,0,0,0-.11-.081c-.042-.012-.088-.024-.136-.034v-.074h1.575c.049,0,.1,0,.149,0a1.455,1.455,0,0,1,.15,0,1.6,1.6,0,0,1,.444.089.794.794,0,0,1,.354.268,1.436,1.436,0,0,1,.126.215.832.832,0,0,1,.073.373,1.072,1.072,0,0,1-.013.147.9.9,0,0,1-.052.192,1.088,1.088,0,0,1-.113.213.877.877,0,0,1-.323.281l-.081.039.693,1.292a2.819,2.819,0,0,0,.16.281.719.719,0,0,0,.144.16.458.458,0,0,0,.1.057l.066.026Zm5.727,0H403.9v-.074a.585.585,0,0,0,.139-.045.183.183,0,0,0,.071-.066.152.152,0,0,0,.029-.058.26.26,0,0,0,.008-.063.476.476,0,0,0-.029-.144,1.088,1.088,0,0,0-.055-.139l-.242-.6h-1.349l-.263.6c-.028.07-.049.126-.063.168a.382.382,0,0,0-.021.121.318.318,0,0,0,0,.039.126.126,0,0,0,.023.055.176.176,0,0,0,.1.089l.123.042v.074h-1.061l.005-.074.071-.013a.258.258,0,0,0,.1-.05.424.424,0,0,0,.123-.141q.05-.089.123-.252l1.417-3.208h.357l1.307,3.1c.052.119.094.21.123.273a.591.591,0,0,0,.118.168.326.326,0,0,0,.1.073c.033.014.074.03.123.047Zm5.8-3.628a.347.347,0,0,0-.262.144.583.583,0,0,0-.053.292v3.223h-.315l-2.6-3.024v2.462a1.17,1.17,0,0,0,.021.22.268.268,0,0,0,.126.179.291.291,0,0,0,.084.037l.089.021v.074h-1.05l.005-.074.081-.018a.322.322,0,0,0,.118-.055.267.267,0,0,0,.1-.176,1.631,1.631,0,0,0,.013-.207v-2.661a.593.593,0,0,0-.005-.179.3.3,0,0,0-.058-.136.309.309,0,0,0-.089-.079.294.294,0,0,0-.094-.034.489.489,0,0,0-.073-.008v-.079h1.05l2.189,2.562v-2.027a.939.939,0,0,0-.023-.244.274.274,0,0,0-.1-.139.339.339,0,0,0-.079-.042.838.838,0,0,0-.126-.032v-.079h1.045Zm2.714,1.974a1.422,1.422,0,0,0,.095.385,1.9,1.9,0,0,0,.144.291,1.266,1.266,0,0,0,.27.315,1.561,1.561,0,0,0,.428.254,1.606,1.606,0,0,0,.612.1l.126,0a1.42,1.42,0,0,0,.244-.031,1.612,1.612,0,0,0,.286-.089.741.741,0,0,0,.257-.176.559.559,0,0,0,.1-.157l.042-.11h.079l.011.737-.165.053-.171.053a3.444,3.444,0,0,1-.386.079,3.827,3.827,0,0,1-.612.043,3.312,3.312,0,0,1-.751-.084,1.712,1.712,0,0,1-.677-.331,2.053,2.053,0,0,1-.214-.2,1.723,1.723,0,0,1-.229-.31,1.962,1.962,0,0,1-.185-.428,1.888,1.888,0,0,1-.076-.559,2.672,2.672,0,0,1,.018-.278,1.856,1.856,0,0,1,.083-.368,1.909,1.909,0,0,1,.2-.41,1.8,1.8,0,0,1,.355-.4,1.944,1.944,0,0,1,.477-.3,2.623,2.623,0,0,1,.467-.158,2.55,2.55,0,0,1,.4-.061q.178-.01.278-.01a3.323,3.323,0,0,1,.727.066c.191.044.346.081.465.113l-.011.761-.079-.005-.063-.129a.62.62,0,0,0-.136-.176.682.682,0,0,0-.181-.121,1.113,1.113,0,0,0-.215-.073,1.657,1.657,0,0,0-.228-.037q-.116-.011-.215-.011l-.105,0q-.068,0-.157.013c-.06.007-.123.017-.192.031a1.419,1.419,0,0,0-.2.058,1.366,1.366,0,0,0-.4.225,1.384,1.384,0,0,0-.467.726,1.755,1.755,0,0,0-.058.453Q413.776,1253.391,413.791,1253.572Zm7.759,1.654h-2.735v-.079l.105-.029a.273.273,0,0,0,.142-.1.276.276,0,0,0,.06-.157c.005-.063.008-.151.008-.262v-2.515a2.229,2.229,0,0,0-.01-.255.237.237,0,0,0-.079-.15.241.241,0,0,0-.084-.058.661.661,0,0,0-.142-.026v-.079h2.42v.714h-.084a.549.549,0,0,0-.063-.181.32.32,0,0,0-.095-.092.375.375,0,0,0-.129-.034q-.076-.008-.2-.008h-.814v1.15h.64a.9.9,0,0,1,.118,0,.55.55,0,0,0,.118-.008.36.36,0,0,0,.15-.055.305.305,0,0,0,.084-.087.311.311,0,0,0,.039-.1c.007-.033.012-.061.016-.081h.079v1.045h-.079c-.007-.035-.014-.065-.021-.089a.2.2,0,0,0-.021-.052.257.257,0,0,0-.092-.108.408.408,0,0,0-.121-.05.582.582,0,0,0-.137-.015h-.774v.882a1.305,1.305,0,0,0,.018.249.256.256,0,0,0,.076.145.268.268,0,0,0,.165.071c.065.006.153.01.265.013H421a.539.539,0,0,0,.068-.005.911.911,0,0,0,.163-.013.236.236,0,0,0,.137-.087.324.324,0,0,0,.073-.134.848.848,0,0,1,.026-.087h.079Zm8.977,0h-1.386v-.074a.587.587,0,0,0,.139-.045.183.183,0,0,0,.071-.066.152.152,0,0,0,.029-.058.26.26,0,0,0,.008-.063.479.479,0,0,0-.029-.144,1.134,1.134,0,0,0-.055-.139l-.242-.6h-1.349l-.262.6q-.042.1-.063.168a.342.342,0,0,0-.018.16.131.131,0,0,0,.024.055.176.176,0,0,0,.1.089l.124.042v.074h-1.06l.005-.074.071-.013a.256.256,0,0,0,.1-.05.419.419,0,0,0,.123-.141q.05-.089.123-.252l1.418-3.208h.357l1.307,3.1c.053.119.094.21.123.273a.6.6,0,0,0,.118.168.326.326,0,0,0,.1.073q.05.021.123.047Zm5.47-1.354a.711.711,0,0,0-.178.058.245.245,0,0,0-.1.136.881.881,0,0,0-.029.257l-.005.709-.155.06c-.051.019-.1.037-.16.055-.038.014-.1.031-.17.05s-.163.038-.262.057-.208.035-.326.047a3.52,3.52,0,0,1-.365.018c-.052,0-.129,0-.228-.008a2.334,2.334,0,0,1-.735-.171,1.663,1.663,0,0,1-.407-.242,2.009,2.009,0,0,1-.21-.194,1.435,1.435,0,0,1-.213-.294,1.94,1.94,0,0,1-.165-.407,1.9,1.9,0,0,1-.068-.533q0-.089.013-.239a1.938,1.938,0,0,1,.06-.328,2.222,2.222,0,0,1,.142-.378,1.645,1.645,0,0,1,.262-.388,2.12,2.12,0,0,1,.27-.255,1.815,1.815,0,0,1,.383-.231,2.6,2.6,0,0,1,.517-.168,3.087,3.087,0,0,1,.672-.066,4.539,4.539,0,0,1,.454.029,3.441,3.441,0,0,1,.669.155l-.011.756h-.079a1.516,1.516,0,0,0-.108-.207.581.581,0,0,0-.16-.16.718.718,0,0,0-.215-.1,1.493,1.493,0,0,0-.231-.053,1.417,1.417,0,0,0-.192-.016h-.1a1.94,1.94,0,0,0-.5.058,1.646,1.646,0,0,0-.375.147,1.335,1.335,0,0,0-.27.194,1.3,1.3,0,0,0-.178.2,1.729,1.729,0,0,0-.179.347,1.579,1.579,0,0,0-.089.582,2.041,2.041,0,0,0,.074.559,1.443,1.443,0,0,0,.257.5,1.2,1.2,0,0,0,.459.38,1.4,1.4,0,0,0,.585.118h.068a1.137,1.137,0,0,0,.124-.008c.047-.005.1-.013.152-.024a.75.75,0,0,0,.155-.047.593.593,0,0,0,.068-.034c.021-.012.044-.027.068-.044v-.4c0-.035,0-.073,0-.115a.736.736,0,0,0-.016-.124.313.313,0,0,0-.045-.108.238.238,0,0,0-.094-.078.868.868,0,0,0-.087-.026.779.779,0,0,1-.086-.026v-.079H436Zm4.851,1.354h-2.735v-.079l.105-.029a.273.273,0,0,0,.142-.1.276.276,0,0,0,.06-.157q.008-.095.008-.262v-2.515a2.212,2.212,0,0,0-.011-.255.237.237,0,0,0-.079-.15.241.241,0,0,0-.084-.058.659.659,0,0,0-.142-.026v-.079h2.42v.714h-.084a.55.55,0,0,0-.063-.181.321.321,0,0,0-.095-.092.375.375,0,0,0-.129-.034q-.076-.008-.2-.008h-.814v1.15h.64a.9.9,0,0,1,.118,0,.552.552,0,0,0,.118-.008.36.36,0,0,0,.15-.055.3.3,0,0,0,.084-.087.312.312,0,0,0,.039-.1c.007-.033.012-.061.016-.081h.079v1.045h-.079c-.007-.035-.014-.065-.021-.089a.2.2,0,0,0-.021-.052.257.257,0,0,0-.092-.108.408.408,0,0,0-.121-.05.582.582,0,0,0-.137-.015h-.774v.882a1.326,1.326,0,0,0,.018.249.257.257,0,0,0,.076.145.268.268,0,0,0,.165.071c.065.006.153.01.265.013h.625a.539.539,0,0,0,.068-.005.911.911,0,0,0,.163-.013.237.237,0,0,0,.137-.087.328.328,0,0,0,.074-.134.835.835,0,0,1,.026-.087h.079Zm6.053-3.628a.348.348,0,0,0-.262.144.585.585,0,0,0-.052.292v3.223h-.315l-2.6-3.024v2.462a1.165,1.165,0,0,0,.021.22.268.268,0,0,0,.126.179.288.288,0,0,0,.084.037l.089.021v.074h-1.05l.005-.074.081-.018a.322.322,0,0,0,.118-.055.267.267,0,0,0,.1-.176,1.66,1.66,0,0,0,.013-.207v-2.661a.587.587,0,0,0-.005-.179.3.3,0,0,0-.058-.136.309.309,0,0,0-.089-.079.293.293,0,0,0-.095-.034.484.484,0,0,0-.073-.008v-.079h1.05l2.189,2.562v-2.027a.936.936,0,0,0-.024-.244.272.272,0,0,0-.1-.139.331.331,0,0,0-.079-.042.834.834,0,0,0-.126-.032v-.079H446.9Zm2.714,1.974a1.421,1.421,0,0,0,.095.385,1.9,1.9,0,0,0,.144.291,1.267,1.267,0,0,0,.27.315,1.561,1.561,0,0,0,.428.254,1.606,1.606,0,0,0,.612.1l.126,0a1.421,1.421,0,0,0,.244-.031,1.619,1.619,0,0,0,.286-.089.742.742,0,0,0,.257-.176.566.566,0,0,0,.105-.157l.042-.11h.079l.011.737-.165.053-.171.053a3.453,3.453,0,0,1-.386.079,3.826,3.826,0,0,1-.612.043,3.312,3.312,0,0,1-.751-.084,1.714,1.714,0,0,1-.677-.331,2.03,2.03,0,0,1-.214-.2,1.723,1.723,0,0,1-.23-.31,1.965,1.965,0,0,1-.185-.428,1.889,1.889,0,0,1-.076-.559,2.622,2.622,0,0,1,.018-.278,1.835,1.835,0,0,1,.083-.368,1.906,1.906,0,0,1,.2-.41,1.789,1.789,0,0,1,.354-.4,1.945,1.945,0,0,1,.477-.3,2.625,2.625,0,0,1,.467-.158,2.549,2.549,0,0,1,.4-.061q.178-.01.278-.01a3.323,3.323,0,0,1,.727.066c.191.044.346.081.465.113l-.011.761-.079-.005-.063-.129a.62.62,0,0,0-.137-.176.682.682,0,0,0-.181-.121,1.119,1.119,0,0,0-.215-.073,1.658,1.658,0,0,0-.228-.037q-.115-.011-.215-.011l-.105,0q-.068,0-.157.013c-.059.007-.123.017-.192.031a1.427,1.427,0,0,0-.2.058,1.366,1.366,0,0,0-.4.225,1.385,1.385,0,0,0-.467.726,1.755,1.755,0,0,0-.058.453Q449.6,1253.391,449.615,1253.572Zm8.158-1.979a.544.544,0,0,0-.15.052.39.39,0,0,0-.113.11,1,1,0,0,0-.089.136l-1.082,1.748v1.055a1.579,1.579,0,0,0,.013.2.269.269,0,0,0,.1.176.246.246,0,0,0,.1.052,1.134,1.134,0,0,0,.113.026v.074h-1.381v-.074a.482.482,0,0,1,.068-.013.218.218,0,0,0,.063-.018.26.26,0,0,0,.176-.179.946.946,0,0,0,.023-.257v-1.045l-1.071-1.712q-.058-.089-.1-.147a.669.669,0,0,0-.082-.095.312.312,0,0,0-.086-.058.674.674,0,0,0-.11-.037v-.074h1.412l-.005.079a.363.363,0,0,0-.1.024.2.2,0,0,0-.081.066.21.21,0,0,0-.032.073.327.327,0,0,0-.005.052.334.334,0,0,0,.042.165c.028.051.045.081.052.092l.714,1.146.693-1.155.06-.11a.275.275,0,0,0,.034-.131.22.22,0,0,0-.136-.194.346.346,0,0,0-.047-.016l-.068-.016v-.074h1.081Zm6.085.509v2.5c0,.08.006.149.008.207a.416.416,0,0,0,.024.139.214.214,0,0,0,.066.094.467.467,0,0,0,.092.06.463.463,0,0,0,.087.034.4.4,0,0,1,.05.016v.074h-1.391l.005-.073a.673.673,0,0,0,.194-.084.3.3,0,0,0,.1-.11.357.357,0,0,0,.034-.149c0-.058,0-.127,0-.207v-2.5c0-.07,0-.143-.011-.22a.286.286,0,0,0-.1-.194.338.338,0,0,0-.108-.063.85.85,0,0,0-.118-.026v-.079h1.391l-.005.074a.314.314,0,0,0-.055.01.478.478,0,0,0-.082.026.289.289,0,0,0-.152.158A.909.909,0,0,0,463.858,1252.1Zm6.436-.5a.348.348,0,0,0-.262.144.585.585,0,0,0-.052.292v3.223h-.315l-2.6-3.024v2.462a1.172,1.172,0,0,0,.021.22.269.269,0,0,0,.126.179.291.291,0,0,0,.084.037l.089.021v.074h-1.05l.005-.074.081-.018a.323.323,0,0,0,.118-.055.267.267,0,0,0,.1-.176,1.672,1.672,0,0,0,.013-.207v-2.661a.6.6,0,0,0-.005-.179.3.3,0,0,0-.147-.215.294.294,0,0,0-.094-.034.491.491,0,0,0-.074-.008v-.079h1.05l2.189,2.562v-2.027a.938.938,0,0,0-.024-.244.271.271,0,0,0-.1-.139.338.338,0,0,0-.079-.042.833.833,0,0,0-.126-.032v-.079h1.045Zm2.714,1.974a1.421,1.421,0,0,0,.094.385,1.931,1.931,0,0,0,.144.291,1.269,1.269,0,0,0,.27.315,1.561,1.561,0,0,0,.428.254,1.6,1.6,0,0,0,.612.1l.126,0a1.416,1.416,0,0,0,.244-.031,1.615,1.615,0,0,0,.286-.089.743.743,0,0,0,.257-.176.558.558,0,0,0,.1-.157l.042-.11h.079l.011.737-.166.053-.17.053a3.467,3.467,0,0,1-.386.079,3.826,3.826,0,0,1-.612.043,3.31,3.31,0,0,1-.751-.084,1.714,1.714,0,0,1-.677-.331,2.06,2.06,0,0,1-.214-.2,1.729,1.729,0,0,1-.229-.31,1.975,1.975,0,0,1-.185-.428,1.894,1.894,0,0,1-.075-.559,2.679,2.679,0,0,1,.018-.278,1.824,1.824,0,0,1,.083-.368,1.9,1.9,0,0,1,.2-.41,1.794,1.794,0,0,1,.354-.4,1.953,1.953,0,0,1,.477-.3,2.63,2.63,0,0,1,.467-.158,2.543,2.543,0,0,1,.4-.061q.178-.01.278-.01a3.326,3.326,0,0,1,.727.066c.191.044.346.081.465.113l-.011.761-.079-.005-.063-.129a.617.617,0,0,0-.136-.176.679.679,0,0,0-.181-.121,1.11,1.11,0,0,0-.215-.073,1.662,1.662,0,0,0-.228-.037c-.077-.007-.149-.011-.215-.011l-.105,0c-.045,0-.1.006-.158.013s-.123.017-.192.031a1.426,1.426,0,0,0-.2.058,1.368,1.368,0,0,0-.4.225,1.387,1.387,0,0,0-.467.726,1.755,1.755,0,0,0-.058.453Q472.992,1253.391,473.008,1253.572Zm5.7,1.586a.347.347,0,0,1-.268.115.343.343,0,0,1-.1-.013l-.055-.018a.318.318,0,0,1-.115-.079.382.382,0,0,1-.066-.1.424.424,0,0,1-.032-.094.391.391,0,0,1-.008-.069.374.374,0,0,1,.113-.26.354.354,0,0,1,.26-.108.347.347,0,0,1,.255.1.381.381,0,0,1,.113.25A.374.374,0,0,1,478.7,1255.158Z" transform="translate(-372.829 -1250.428)" fill="#fff"/>
  </g>
</svg>
