<svg xmlns="http://www.w3.org/2000/svg" width="138.278" height="91.545" viewBox="0 0 138.278 91.545">
  <path id="Trazado_318" data-name="Trazado 318" d="M637.638,249.436q-6.405-10.956-15.567-15.66-7.367-3.714-17.888-3.714H585.789V234.7h18.08c9.16,0,12.61,2.992,17.149,8.975Q629,254.326,629,277.228q0,15.474-3.652,24.263a22.2,22.2,0,0,1-7.8,10.089,31.631,31.631,0,0,1-18.322,5.385h-3.17q-6.118-.006-8.1-5.076l-28.61-72.984a5.4,5.4,0,0,1,1.972-3.025,6.1,6.1,0,0,1,4.116-1.175h6.818v-4.643h-40V234.7h9.346a5.7,5.7,0,0,1,3.776,1.144,3.771,3.771,0,0,1,1.358,2.892l-26.871,67.083q-2.6,6.5-5.693,8.82t-8.417,2.322v4.642h33.177v-4.642h-3.094q-5.385,0-8.2-2.167a6.4,6.4,0,0,1-2.816-5.2,21.589,21.589,0,0,1,1.671-7.057l4.252-11.141,2-4.828,16.436-40.79,15.893,40.79,1.881,4.828,7.573,19.435a6.469,6.469,0,0,1,.433,2.229,2.835,2.835,0,0,1-1.609,2.662q-2.353,1.239-8.046,1.238H562.4v4.642h36.828q10.831,0,17.331-2.1a38.639,38.639,0,0,0,14.7-8.542,35.535,35.535,0,0,0,8.944-13.308,61.249,61.249,0,0,0,3.838-22.283Q644.044,260.392,637.638,249.436Z" transform="translate(-505.766 -230.062)" fill="#fff"/>
</svg>
