<svg xmlns="http://www.w3.org/2000/svg" width="80" height="52.963" viewBox="0 0 80 52.963">
  <path id="logo" d="M582.06,241.271a22.562,22.562,0,0,0-9.006-9.06,22.791,22.791,0,0,0-10.349-2.149H552.063v2.686h10.46c5.3,0,7.3,1.731,9.922,5.192q4.62,6.16,4.62,19.409,0,8.953-2.113,14.037a12.841,12.841,0,0,1-4.512,5.837,18.3,18.3,0,0,1-10.6,3.116h-1.834q-3.54,0-4.684-2.937l-16.552-42.225a3.123,3.123,0,0,1,1.141-1.75,3.527,3.527,0,0,1,2.381-.68h3.945v-2.686H521.1v2.686H526.5a3.3,3.3,0,0,1,2.185.662,2.182,2.182,0,0,1,.786,1.673l-15.546,38.811q-1.5,3.759-3.294,5.1a7.939,7.939,0,0,1-4.869,1.343v2.685H524.96V280.34h-1.79a7.671,7.671,0,0,1-4.745-1.253,3.7,3.7,0,0,1-1.629-3.008,12.49,12.49,0,0,1,.967-4.083l2.46-6.446,1.156-2.793,9.509-23.6,9.195,23.6,1.088,2.793,4.381,11.244a3.742,3.742,0,0,1,.25,1.289,1.64,1.64,0,0,1-.931,1.54,10.8,10.8,0,0,1-4.655.716h-1.683v2.685h21.307a33.5,33.5,0,0,0,10.027-1.217,22.354,22.354,0,0,0,8.505-4.942,20.558,20.558,0,0,0,5.174-7.7,35.436,35.436,0,0,0,2.22-12.892A29.2,29.2,0,0,0,582.06,241.271Z" transform="translate(-505.766 -230.062)" fill="#171c53"/>
</svg>
