<svg id="mch" xmlns="http://www.w3.org/2000/svg" width="108.96" height="28.365" viewBox="0 0 108.96 28.365">
  <g id="Grupo_67" data-name="Grupo 67" transform="translate(46.762 7.445)">
    <path id="Trazado_141" data-name="Trazado 141" d="M585.728,917.774l-5.777-7.842h-3.492V923.5h3.334v-8.261l5.934,8.052,5.94-8.052V923.5h3.327V909.932h-3.463Z" transform="translate(-576.459 -909.932)" fill="azure"/>
    <path id="Trazado_142" data-name="Trazado 142" d="M597.393,911.157a3.955,3.955,0,0,0-1.354,3.071v4.981a3.949,3.949,0,0,0,1.354,3.072,4.74,4.74,0,0,0,3.3,1.224H611.75v-3.161H600.692c-.88,0-1.327-.386-1.327-1.135v-4.976c0-.754.446-1.13,1.327-1.13H611.75v-3.171H600.692A4.765,4.765,0,0,0,597.393,911.157Z" transform="translate(-575.52 -909.932)" fill="azure"/>
    <path id="Trazado_143" data-name="Trazado 143" d="M627.286,915.131H616.41v-5.2h-3.337V923.5h3.337v-5.2h10.877v5.2h3.382V909.932h-3.382Z" transform="translate(-574.703 -909.932)" fill="azure"/>
    <path id="Trazado_144" data-name="Trazado 144" d="M635.394,910.529a1.967,1.967,0,0,0-1.449-.6,2.047,2.047,0,0,0-2.035,2.039,2.044,2.044,0,1,0,3.485-1.442Zm-.2,2.7a1.687,1.687,0,0,1-1.247.518,1.667,1.667,0,0,1-1.239-.518,1.763,1.763,0,1,1,2.486-2.5,1.78,1.78,0,0,1,0,2.5Z" transform="translate(-573.799 -909.932)" fill="azure"/>
    <path id="Trazado_145" data-name="Trazado 145" d="M634.818,911.452a.568.568,0,0,0-.354-.57,1.707,1.707,0,0,0-.611-.081h-.787v2.243h.4v-.878h.313a.94.94,0,0,1,.438.069.544.544,0,0,1,.213.517v.177l.012.071v.025l.009.019h.37l-.018-.027a.3.3,0,0,1-.017-.113c0-.062-.01-.116-.01-.169v-.165a.631.631,0,0,0-.114-.348.591.591,0,0,0-.389-.222.742.742,0,0,0,.328-.106A.512.512,0,0,0,634.818,911.452Zm-.618.382a1.083,1.083,0,0,1-.38.051h-.356v-.814h.339a.936.936,0,0,1,.473.086.339.339,0,0,1,.152.327A.351.351,0,0,1,634.2,911.833Z" transform="translate(-573.743 -909.89)" fill="azure"/>
  </g>
  <path id="Trazado_146" data-name="Trazado 146" d="M576.529,881.214c.007.07.016.139.024.208.045.4.1.8.185,1.2,1.49,7.338,8.528,13.085,15.687,12.814a11.385,11.385,0,0,0,4.779-1.218,14.228,14.228,0,0,0,6.83,1.541,11.172,11.172,0,0,0,5.807-1.811,10.335,10.335,0,0,0,1.5-1.213l.471-.46.969-.945-.011.01.01-.01c-.1.1-.218.193-.326.29a11.488,11.488,0,0,0,3.3-11.07c-1.488-7.339-8.522-13.086-15.68-12.815a11.407,11.407,0,0,0-4.785,1.215,14.217,14.217,0,0,0-6.824-1.538,10.855,10.855,0,0,0-7.557,3.28c.082-.085.16-.173.245-.255l-.013.013.013-.013L580,871.562l-.233.227-.056.054c-.227.222-.439.456-.645.7-.046.054-.092.107-.136.163-.2.242-.389.492-.565.753-.019.027-.036.057-.054.085-.161.242-.311.493-.452.75-.033.058-.066.116-.1.176q-.221.42-.408.861c-.021.05-.039.1-.059.152-.107.267-.2.54-.292.818-.018.056-.037.112-.054.169q-.139.468-.239.954c-.014.065-.025.132-.038.2-.056.3-.1.605-.137.916,0,.042-.011.082-.016.125-.034.34-.051.687-.056,1.037,0,.034-.005.067-.006.1v.21c0,.024,0,.05,0,.075Q576.471,880.642,576.529,881.214Zm15.979.217a9.29,9.29,0,0,1,1.688-7.767c.037-.029.076-.056.114-.084a13.385,13.385,0,0,1,1.319.979,12.866,12.866,0,0,1,4.356,7.181,9.316,9.316,0,0,1-1.646,7.733c-.051.039-.1.079-.153.116A13.015,13.015,0,0,1,592.508,881.432Zm19.085.626a10.752,10.752,0,0,1,.207,2.181,8.919,8.919,0,0,1-1.854,5.559,8.716,8.716,0,0,1-5.038,1.768,10.837,10.837,0,0,1-3.745-.547l.011-.01-.007.006.007-.007-.013.011-.016-.005a11.543,11.543,0,0,0,3-10.781,16.143,16.143,0,0,0-4.634-8.3,12.533,12.533,0,0,1,9.956,5.356A12.392,12.392,0,0,1,611.593,882.058Zm-24-10.45a10.818,10.818,0,0,1,3.742.546l-.014.013c-.009.008-.016.018-.024.027-.215.211-.417.434-.613.663-.051.059-.1.118-.151.179-.195.239-.382.485-.556.742-.023.034-.044.07-.067.105-.156.236-.3.48-.439.729-.034.062-.069.123-.1.186q-.218.416-.4.853c-.023.055-.044.113-.066.168q-.157.392-.285.8c-.018.06-.039.118-.057.178q-.137.463-.235.943c-.015.073-.028.147-.042.221-.055.293-.1.59-.133.891-.005.047-.013.094-.017.141-.033.334-.049.675-.055,1.02,0,.039-.006.077-.006.116v.172c0,.03,0,.061.005.091q.007.553.062,1.118c.007.077.018.155.027.233.045.393.1.789.184,1.19v.005a16.139,16.139,0,0,0,4.635,8.3c-5.551.037-10.927-4.432-12.082-10.123a9.3,9.3,0,0,1,1.687-7.774A8.742,8.742,0,0,1,587.591,871.607Z" transform="translate(-576.459 -867.404)" fill="azure"/>
</svg>
