<svg id="mktindustrial" xmlns="http://www.w3.org/2000/svg" width="109.889" height="45.453" viewBox="0 0 109.889 45.453">
  <g id="Grupo_147" data-name="Grupo 147" transform="translate(0 0)">
    <path id="Trazado_402" data-name="Trazado 402" d="M530.044,218.955v-2.446a1.228,1.228,0,0,1,1.229-1.228h4.891a1.228,1.228,0,0,1,1.229,1.228v1.835Z" transform="translate(-441.52 -215.281)" fill="#fff"/>
    <path id="Trazado_403" data-name="Trazado 403" d="M462.435,218.955v-2.446a1.228,1.228,0,0,1,1.228-1.228h4.892a1.229,1.229,0,0,1,1.229,1.228v2.446Z" transform="translate(-390.848 -215.281)" fill="#fff"/>
    <path id="Trazado_404" data-name="Trazado 404" d="M395.407,218.955v-2.446a1.228,1.228,0,0,1,1.229-1.228h4.892a1.228,1.228,0,0,1,1.228,1.228v2.446Z" transform="translate(-340.611 -215.281)" fill="#fff"/>
    <path id="Trazado_405" data-name="Trazado 405" d="M327.907,218.955v-2.446a1.227,1.227,0,0,1,1.227-1.228h4.892a1.228,1.228,0,0,1,1.229,1.228v2.446Z" transform="translate(-290.021 -215.281)" fill="#fff"/>
    <path id="Trazado_406" data-name="Trazado 406" d="M260.292,218.955v-2.446a1.228,1.228,0,0,1,1.229-1.228h4.891a1.227,1.227,0,0,1,1.228,1.228v2.446Z" transform="translate(-239.344 -215.281)" fill="#fff"/>
    <path id="Trazado_407" data-name="Trazado 407" d="M199.983,238.028l-1.636-1.819a1.228,1.228,0,0,1,.092-1.735l3.637-3.271a1.228,1.228,0,0,1,1.735.092l1.635,1.818Z" transform="translate(-192.68 -226.978)" fill="#fff"/>
    <path id="Trazado_408" data-name="Trazado 408" d="M199.4,352.384l-1.635,1.819a1.228,1.228,0,0,0,.092,1.735l3.637,3.271a1.229,1.229,0,0,0,1.735-.092l1.635-1.819Z" transform="translate(-192.243 -318.038)" fill="#fff"/>
    <path id="Trazado_409" data-name="Trazado 409" d="M180.347,298.751H177.9a1.228,1.228,0,0,1-1.228-1.228v-4.893A1.228,1.228,0,0,1,177.9,291.4h2.446Z" transform="translate(-176.672 -272.333)" fill="#fff"/>
    <path id="Trazado_410" data-name="Trazado 410" d="M267.64,382.053V384.5a1.227,1.227,0,0,1-1.228,1.228h-4.891a1.228,1.228,0,0,1-1.229-1.228v-2.446Z" transform="translate(-239.344 -340.274)" fill="#fff"/>
    <path id="Trazado_411" data-name="Trazado 411" d="M335.144,382.053V384.5a1.228,1.228,0,0,1-1.229,1.228h-4.892a1.229,1.229,0,0,1-1.229-1.228v-2.446Z" transform="translate(-289.937 -340.274)" fill="#fff"/>
    <path id="Trazado_412" data-name="Trazado 412" d="M402.756,382.053V384.5a1.228,1.228,0,0,1-1.228,1.228h-4.892a1.228,1.228,0,0,1-1.229-1.228v-2.446Z" transform="translate(-340.611 -340.274)" fill="#fff"/>
  </g>
  <path id="Sustracción_5" data-name="Sustracción 5" d="M-6089.6-1469.315a17.22,17.22,0,0,1-17.2-17.2,17.22,17.22,0,0,1,17.2-17.2,17.221,17.221,0,0,1,17.2,17.2c0,.042.458,4.254-2.337,9.778-1.012,2-1.211,3.7-.592,5.048a4.757,4.757,0,0,0,2.93,2.362h-16.742l-.127,0C-6089.372-1469.319-6089.484-1469.315-6089.6-1469.315Zm.2-16.753,2.153,6.254h2.157l-2.4-6.792,2.224-6.61h-2.107l-2.043,6.169v-6.169h-2.04v13.4h2.055v-6.253Zm8.437-5.382v11.636h2.032v-11.636h1.508v-1.767h-5.11v1.767Zm-13.78,2.067h0l-.077,4.574v4.995h1.819v-13.4h-2.552l-1.789,9.793-1.905-9.793h-2.535v13.4h1.805v-4.995l-.078-4.586,1.882,9.521h1.622Zm8.983,2.2v1.332h3.642v-1.332Z" transform="translate(6112.397 1509.259)" fill="#fff" stroke="rgba(0,0,0,0)" stroke-miterlimit="10" stroke-width="1"/>
  <path id="Trazado_418" data-name="Trazado 418" d="M363.989,260.44V247.213H366V260.44Z" transform="translate(-317.064 -239.214)" fill="#fff"/>
  <path id="Trazado_419" data-name="Trazado 419" d="M379.3,260.44V247.213h1.579l2.8,7.936-.144-3.607v-4.329h1.812V260.44h-1.428l-2.879-8.214.114,3.472v4.742Z" transform="translate(-328.543 -239.214)" fill="#fff"/>
  <path id="Trazado_420" data-name="Trazado 420" d="M410.575,260.44V247.213h2.97a2.494,2.494,0,0,1,2.114.86,4.129,4.129,0,0,1,.658,2.536l.008,5.967a5.128,5.128,0,0,1-.662,2.931,2.5,2.5,0,0,1-2.187.932Zm2.014-1.564h.662a.916.916,0,0,0,.807-.36,2.461,2.461,0,0,0,.253-1.323l-.008-6.531a3.1,3.1,0,0,0-.253-1.466.917.917,0,0,0-.867-.436h-.594Z" transform="translate(-351.979 -239.214)" fill="#fff"/>
  <path id="Trazado_421" data-name="Trazado 421" d="M445.19,259.707a3.295,3.295,0,0,1-4.445,0,4.252,4.252,0,0,1-.7-2.684v-9.836h2.014v9.8a4.581,4.581,0,0,0,.1,1.27,2.042,2.042,0,0,0,.236.409.7.7,0,0,0,.577.184.719.719,0,0,0,.623-.257,1.293,1.293,0,0,0,.23-.634,9.594,9.594,0,0,0,.041-.972v-9.8h2.014v9.836A4.259,4.259,0,0,1,445.19,259.707Z" transform="translate(-374.07 -239.191)" fill="#fff"/>
  <path id="Trazado_422" data-name="Trazado 422" d="M469.657,256.246v-1.18h1.908v1.33a4.441,4.441,0,0,0,.188,1.551.7.7,0,0,0,.706.448.679.679,0,0,0,.687-.368,3.081,3.081,0,0,0,.17-1.2,3.286,3.286,0,0,0-.3-1.453,5.131,5.131,0,0,0-.954-1.3l-.977-1.007a6.006,6.006,0,0,1-1.064-1.48,3.956,3.956,0,0,1-.38-1.774,3.889,3.889,0,0,1,.632-2.435,2.62,2.62,0,0,1,2.172-.8,2.208,2.208,0,0,1,2.084.928,5.425,5.425,0,0,1,.545,2.709v.818h-1.856v-.946a4.091,4.091,0,0,0-.164-1.379.625.625,0,0,0-.637-.416.747.747,0,0,0-.675.314,1.746,1.746,0,0,0-.208.946,2.059,2.059,0,0,0,.211,1.007,5.486,5.486,0,0,0,.759.962l1.09,1.179a6.951,6.951,0,0,1,1.237,1.8,4.713,4.713,0,0,1,.417,1.984,4.816,4.816,0,0,1-.625,2.743,2.484,2.484,0,0,1-2.182.887,2.348,2.348,0,0,1-2.172-.988A5.515,5.515,0,0,1,469.657,256.246Z" transform="translate(-396.248 -238.74)" fill="#fff"/>
  <path id="Trazado_423" data-name="Trazado 423" d="M497.285,260.44V248.957h-1.547v-1.744h5.041v1.744h-1.488V260.44Z" transform="translate(-415.808 -239.214)" fill="#fff"/>
  <path id="Trazado_424" data-name="Trazado 424" d="M523.826,254.224l-.647-.03v6.246h-2.013V247.213h3.33a2.415,2.415,0,0,1,1.547.417,1.991,1.991,0,0,1,.673,1.165,9.568,9.568,0,0,1,.161,1.954,5.1,5.1,0,0,1-.256,1.838,1.425,1.425,0,0,1-.946.849,1.226,1.226,0,0,1,.952.924,12.858,12.858,0,0,1,.271,3.348,21.937,21.937,0,0,0,.075,2.733h-2.014q-.076-.15-.075-4.742a2.185,2.185,0,0,0-.211-1.169A1.03,1.03,0,0,0,523.826,254.224Zm-.639-1.594h.8a.807.807,0,0,0,.568-.173,1.047,1.047,0,0,0,.255-.593,8.348,8.348,0,0,0,.072-1.285V250.5a3.459,3.459,0,0,0-.181-1.405q-.18-.331-.834-.331h-.683Z" transform="translate(-434.866 -239.214)" fill="#fff"/>
  <path id="Trazado_425" data-name="Trazado 425" d="M551.092,260.44V247.213h2.016V260.44Z" transform="translate(-457.295 -239.214)" fill="#fff"/>
  <path id="Trazado_426" data-name="Trazado 426" d="M568.384,248.657l-1.711,11.783h-1.55l1.886-13.227h2.66l2.006,13.227h-1.491Z" transform="translate(-467.81 -239.214)" fill="#fff"/>
  <path id="Trazado_427" data-name="Trazado 427" d="M597.118,260.44V247.213h2.015v11.513h2.547v1.714Z" transform="translate(-491.791 -239.214)" fill="#fff"/>
  <path id="Trazado_428" data-name="Trazado 428" d="M368.1,324.162a2.5,2.5,0,0,1-2.15.921,2.548,2.548,0,0,1-2.191-.981,4.69,4.69,0,0,1-.725-2.822v-5.764q0-2.953,1.548-3.69a3.2,3.2,0,0,1,1.383-.271q2.787,0,2.788,3.518v1.818H366.8V315.2a4.36,4.36,0,0,0-.173-1.462.66.66,0,0,0-.675-.439.7.7,0,0,0-.7.466,3.907,3.907,0,0,0-.2,1.427v6.178a4.417,4.417,0,0,0,.188,1.526.738.738,0,0,0,1.369-.008,4.506,4.506,0,0,0,.187-1.54v-1.894h1.977v1.871A4.778,4.778,0,0,1,368.1,324.162Z" transform="translate(-316.345 -287.437)" fill="#fff"/>
  <path id="Trazado_429" data-name="Trazado 429" d="M397.154,324.108a2.546,2.546,0,0,1-2.213.954,2.593,2.593,0,0,1-2.233-.959,4.838,4.838,0,0,1-.711-2.889v-6.05q0-3.636,2.969-3.637a2.544,2.544,0,0,1,2.206.924,4.578,4.578,0,0,1,.672,2.713v6.05A4.942,4.942,0,0,1,397.154,324.108Zm-2.949-1.247a.8.8,0,0,0,1.447-.012,5.237,5.237,0,0,0,.173-1.611v-6.163a3.921,3.921,0,0,0-.177-1.372.678.678,0,0,0-.692-.432.736.736,0,0,0-.721.432,3.348,3.348,0,0,0-.206,1.364v6.171A5.08,5.08,0,0,0,394.2,322.861Z" transform="translate(-338.056 -287.417)" fill="#fff"/>
  <path id="Trazado_430" data-name="Trazado 430" d="M424.757,319.169l-.647-.03v6.245H422.1V312.157h3.329a2.415,2.415,0,0,1,1.548.417,1.986,1.986,0,0,1,.672,1.165,9.517,9.517,0,0,1,.162,1.954,5.119,5.119,0,0,1-.255,1.836,1.43,1.43,0,0,1-.946.85,1.225,1.225,0,0,1,.953.924,12.919,12.919,0,0,1,.271,3.348,21.767,21.767,0,0,0,.075,2.732h-2.014q-.074-.15-.076-4.742a2.194,2.194,0,0,0-.209-1.168A1.036,1.036,0,0,0,424.757,319.169Zm-.639-1.594h.8a.806.806,0,0,0,.567-.173,1.035,1.035,0,0,0,.255-.594,8.354,8.354,0,0,0,.071-1.284v-.083a3.476,3.476,0,0,0-.18-1.406c-.12-.221-.4-.33-.835-.33h-.684Z" transform="translate(-360.615 -287.888)" fill="#fff"/>
  <path id="Trazado_431" data-name="Trazado 431" d="M451.887,325.384V312.157h3.036a2.261,2.261,0,0,1,2.108.936,5.654,5.654,0,0,1,.6,2.791v.278a6.335,6.335,0,0,1-.561,2.987,2.155,2.155,0,0,1-2.077,1.019H453.9v5.216Zm2.014-6.876h.691a.8.8,0,0,0,.831-.492,6.038,6.038,0,0,0,.192-1.875v-.256a5.046,5.046,0,0,0-.208-1.675.775.775,0,0,0-.8-.5H453.9Z" transform="translate(-382.942 -287.888)" fill="#fff"/>
  <path id="Trazado_432" data-name="Trazado 432" d="M473.4,359.424v-1.849h1.691v1.849Z" transform="translate(-399.069 -321.928)" fill="#fff"/>
  <path id="Trazado_433" data-name="Trazado 433" d="M279.308,224.931H206.88a20.326,20.326,0,1,0,0,40.651h51.754a.645.645,0,1,0,0-1.29v-.005H206.88a19.03,19.03,0,0,1,0-38.061h72.428v-.005a.645.645,0,0,0,0-1.29Z" transform="translate(-184.078 -222.514)" fill="#fff"/>
  <g id="Grupo_149" data-name="Grupo 149" transform="translate(98.069 0)">
    <path id="Trazado_434" data-name="Trazado 434" d="M572.812,216.588a1.307,1.307,0,1,1,2.614,0,13.179,13.179,0,0,1-1.307,3.093A13.183,13.183,0,0,1,572.812,216.588Z" transform="translate(-571.643 -215.281)" fill="#fff"/>
    <path id="Trazado_435" data-name="Trazado 435" d="M579.931,232.639a.822.822,0,0,1,1.163,1.163,8.249,8.249,0,0,1-1.957.8A8.278,8.278,0,0,1,579.931,232.639Z" transform="translate(-576.384 -228.111)" fill="#fff"/>
    <path id="Trazado_436" data-name="Trazado 436" d="M568.386,233.8a.823.823,0,0,1,1.163-1.163,8.294,8.294,0,0,1,.795,1.958A8.3,8.3,0,0,1,568.386,233.8Z" transform="translate(-568.146 -228.109)" fill="#fff"/>
  </g>
  <g id="Grupo_150" data-name="Grupo 150" transform="translate(98.212 12.073)">
    <path id="Trazado_437" data-name="Trazado 437" d="M569.349,272.629l-.492-.6,3.095-2.581-3.095-2.535a.388.388,0,0,1,0-.6l3.461-2.836.492.6-3.095,2.536,3.095,2.535a.388.388,0,0,1,0,.6Z" transform="translate(-568.716 -263.476)" fill="#fff"/>
  </g>
</svg>
