<svg id="mktnetwork" xmlns="http://www.w3.org/2000/svg" width="108.96" height="41.151" viewBox="0 0 108.96 41.151">
  <g id="Grupo_141" data-name="Grupo 141" transform="translate(46.507 12.397)">
    <path id="Trazado_369" data-name="Trazado 369" d="M438.12,706.965V690.393H440.1l3.512,9.943-.179-4.519v-5.424H445.7v16.572H443.91L440.3,696.673l.141,4.35v5.942Z" transform="translate(-438.12 -690.393)" fill="azure"/>
    <path id="Trazado_370" data-name="Trazado 370" d="M467.5,706.965V690.393h5.555v2.175h-3.031v4.821H472.9v2.128h-2.881v5.273h3.145v2.175Z" transform="translate(-458.449 -690.393)" fill="azure"/>
    <path id="Trazado_371" data-name="Trazado 371" d="M492.614,706.965V692.578h-1.939v-2.185h6.318v2.185h-1.865v14.387Z" transform="translate(-474.484 -690.393)" fill="azure"/>
    <path id="Trazado_372" data-name="Trazado 372" d="M517.983,706.965l-2.024-16.572h2.26l1.214,11.807,1.544-11.807h2.034l1.554,11.807,1.073-11.807h2.27l-1.9,16.572h-2.513l-1.469-11.016L520.5,706.965Z" transform="translate(-491.979 -690.393)" fill="azure"/>
    <path id="Trazado_373" data-name="Trazado 373" d="M564.792,705.769a3.19,3.19,0,0,1-2.773,1.2,3.25,3.25,0,0,1-2.8-1.2,6.062,6.062,0,0,1-.889-3.621V694.95q0-4.557,3.718-4.557a3.187,3.187,0,0,1,2.763,1.158,5.743,5.743,0,0,1,.843,3.4v7.194A6.186,6.186,0,0,1,564.792,705.769Zm-3.7-1.562a1,1,0,0,0,1.812-.015,6.508,6.508,0,0,0,.217-2.019v-7.336a4.886,4.886,0,0,0-.222-1.718.848.848,0,0,0-.866-.541.92.92,0,0,0-.9.541,4.2,4.2,0,0,0-.259,1.709v7.345A6.4,6.4,0,0,0,561.1,704.207Z" transform="translate(-521.299 -690.393)" fill="azure"/>
    <path id="Trazado_374" data-name="Trazado 374" d="M590.221,699.178l-.81-.038v7.824h-2.523V690.393h4.171a3.027,3.027,0,0,1,1.939.522,2.494,2.494,0,0,1,.843,1.459,12.023,12.023,0,0,1,.2,2.448,6.414,6.414,0,0,1-.32,2.3,1.786,1.786,0,0,1-1.186,1.064,1.535,1.535,0,0,1,1.195,1.158,16.187,16.187,0,0,1,.339,4.2,26.934,26.934,0,0,0,.1,3.422h-2.524q-.094-.189-.095-5.942a2.745,2.745,0,0,0-.263-1.464A1.3,1.3,0,0,0,590.221,699.178Zm-.8-2h1.008a1,1,0,0,0,.71-.217,1.3,1.3,0,0,0,.32-.743,10.529,10.529,0,0,0,.089-1.61v-.1a4.357,4.357,0,0,0-.226-1.761q-.226-.415-1.045-.414h-.856Z" transform="translate(-541.056 -690.393)" fill="azure"/>
    <path id="Trazado_375" data-name="Trazado 375" d="M615.29,706.965V690.393h2.523v7.627l2.523-7.627h2.608l-2.749,8.173,2.966,8.4H620.5l-2.665-7.74v7.74Z" transform="translate(-560.708 -690.393)" fill="azure"/>
  </g>
  <g id="Grupo_142" data-name="Grupo 142" transform="translate(0 0)">
    <path id="Trazado_376" data-name="Trazado 376" d="M287.234,720.043a20.6,20.6,0,0,0,20.559,19.62c.185,0,.367-.019.55-.019h16.79A52.668,52.668,0,0,1,287.234,720.043Z" transform="translate(-287.211 -698.512)" fill="azure"/>
    <path id="Trazado_377" data-name="Trazado 377" d="M328.364,671.877a6.575,6.575,0,0,0-.04-1.128,20.75,20.75,0,0,0-5.6-14.179l-.046.016a20.523,20.523,0,0,0-14.932-6.433c-.081,0-.162,0-.242,0l-.01.009.01-.013a20.594,20.594,0,0,0-14.84,6.578v.008a20.519,20.519,0,0,0-5.5,13.993c0,.32.009.631.023.948,8.839,13.032,22.589,18.68,37.9,19.6h3.242s-6.469-1.586-2.8-8.849A24.336,24.336,0,0,0,328.364,671.877Z" transform="translate(-287.159 -650.153)" fill="azure"/>
  </g>
  <g id="Grupo_143" data-name="Grupo 143" transform="translate(6.768 12.397)">
    <path id="Trazado_378" data-name="Trazado 378" d="M309.127,706.97V690.393h3.136l2.355,12.112,2.214-12.112h3.155V706.97h-2.251v-6.179l.094-5.67L315.6,706.894h-2.007l-2.326-11.773.094,5.67v6.179Z" transform="translate(-309.127 -690.393)" fill="#343a77"/>
    <path id="Trazado_379" data-name="Trazado 379" d="M349.275,706.97V690.393H351.8v7.629l2.525-7.629h2.609l-2.75,8.176,4.688,8.4H356.2l-4.386-7.742v7.742Z" transform="translate(-336.906 -690.393)" fill="#343a77"/>
    <path id="Trazado_380" data-name="Trazado 380" d="M379.357,706.97V692.578H376.7l.713-2.185h6.32v2.185h-1.865V706.97Z" transform="translate(-355.885 -690.393)" fill="#343a77"/>
  </g>
</svg>
