<svg xmlns="http://www.w3.org/2000/svg" width="109.509" height="42.165" viewBox="0 0 109.509 42.165">
  <g id="mktnetwork" transform="translate(0.548 0.514)">
    <g id="Grupo_141" data-name="Grupo 141" transform="translate(46.507 12.397)">
      <path id="Trazado_369" data-name="Trazado 369" d="M438.12,706.965V690.393H440.1l3.512,9.943-.179-4.519v-5.424H445.7v16.572H443.91L440.3,696.673l.141,4.35v5.942Z" transform="translate(-438.12 -690.393)" fill="azure"/>
      <path id="Trazado_370" data-name="Trazado 370" d="M467.5,706.965V690.393h5.555v2.175h-3.031v4.821H472.9v2.128h-2.881v5.273h3.145v2.175Z" transform="translate(-458.449 -690.393)" fill="azure"/>
      <path id="Trazado_371" data-name="Trazado 371" d="M492.614,706.965V692.578h-1.939v-2.185h6.318v2.185h-1.865v14.387Z" transform="translate(-474.484 -690.393)" fill="azure"/>
      <path id="Trazado_372" data-name="Trazado 372" d="M517.983,706.965l-2.024-16.572h2.26l1.214,11.807,1.544-11.807h2.034l1.554,11.807,1.073-11.807h2.27l-1.9,16.572h-2.513l-1.469-11.016L520.5,706.965Z" transform="translate(-491.979 -690.393)" fill="azure"/>
      <path id="Trazado_373" data-name="Trazado 373" d="M564.792,705.769a3.19,3.19,0,0,1-2.773,1.2,3.25,3.25,0,0,1-2.8-1.2,6.062,6.062,0,0,1-.889-3.621V694.95q0-4.557,3.718-4.557a3.187,3.187,0,0,1,2.763,1.158,5.743,5.743,0,0,1,.843,3.4v7.194A6.186,6.186,0,0,1,564.792,705.769Zm-3.7-1.562a1,1,0,0,0,1.812-.015,6.508,6.508,0,0,0,.217-2.019v-7.336a4.886,4.886,0,0,0-.222-1.718.848.848,0,0,0-.866-.541.92.92,0,0,0-.9.541,4.2,4.2,0,0,0-.259,1.709v7.345A6.4,6.4,0,0,0,561.1,704.207Z" transform="translate(-521.299 -690.393)" fill="azure"/>
      <path id="Trazado_374" data-name="Trazado 374" d="M590.221,699.178l-.81-.038v7.824h-2.523V690.393h4.171a3.027,3.027,0,0,1,1.939.522,2.494,2.494,0,0,1,.843,1.459,12.023,12.023,0,0,1,.2,2.448,6.414,6.414,0,0,1-.32,2.3,1.786,1.786,0,0,1-1.186,1.064,1.535,1.535,0,0,1,1.195,1.158,16.187,16.187,0,0,1,.339,4.2,26.934,26.934,0,0,0,.1,3.422h-2.524q-.094-.189-.095-5.942a2.745,2.745,0,0,0-.263-1.464A1.3,1.3,0,0,0,590.221,699.178Zm-.8-2h1.008a1,1,0,0,0,.71-.217,1.3,1.3,0,0,0,.32-.743,10.529,10.529,0,0,0,.089-1.61v-.1a4.357,4.357,0,0,0-.226-1.761q-.226-.415-1.045-.414h-.856Z" transform="translate(-541.056 -690.393)" fill="azure"/>
      <path id="Trazado_375" data-name="Trazado 375" d="M615.29,706.965V690.393h2.523v7.627l2.523-7.627h2.608l-2.749,8.173,2.966,8.4H620.5l-2.665-7.74v7.74Z" transform="translate(-560.708 -690.393)" fill="azure"/>
    </g>
    <path id="Sustracción_3" data-name="Sustracción 3" d="M-5517.418-1760.507a20.482,20.482,0,0,1-14.227-5.72,20.477,20.477,0,0,1-6.333-13.9l.013.015-.007-.009-.006-.009c-.016-.333-.023-.643-.023-.948a20.519,20.519,0,0,1,5.5-13.993v-.008a20.6,20.6,0,0,1,6.62-4.757,20.406,20.406,0,0,1,8.221-1.821.084.084,0,0,0-.01.013l.01-.008.092,0h.015l.136,0a20.383,20.383,0,0,1,8.261,1.732,20.57,20.57,0,0,1,6.671,4.7l.007,0,.009,0,.03-.011a20.561,20.561,0,0,1,4.1,6.43,20.661,20.661,0,0,1,1.5,7.749,6.632,6.632,0,0,1,.041,1.129,24.351,24.351,0,0,1-2.837,10.56c-1.211,2.395-1.449,4.426-.708,6.036a5.664,5.664,0,0,0,3.5,2.812h-20.032c-.092,0-.185,0-.274.01S-5517.327-1760.507-5517.418-1760.507Zm7.718-28.755h0l-.713,2.186h2.653v14.391h2.515v-14.391h1.865v-2.186Zm-6.62,8.835,0,0,4.385,7.738h2.666l-4.689-8.4,2.752-8.177h-2.609l-2.525,7.629v-7.629h-2.524v16.577h2.543v-7.742Zm-6.21-4.1h0l-.094,5.658v6.179h2.25v-16.577h-3.153l-2.214,12.113-2.354-12.113h-3.137v16.577H-5529v-6.179l-.094-5.669,2.327,11.772h2.007Z" transform="translate(5538 1801.658)" fill="azure" stroke="rgba(0,0,0,0)" stroke-miterlimit="10" stroke-width="1"/>
  </g>
</svg>
