<svg id="nova" xmlns="http://www.w3.org/2000/svg" width="108.857" height="47.557" viewBox="0 0 108.857 47.557">
  <path id="Trazado_329" data-name="Trazado 329" d="M323.589,271.813a16.2,16.2,0,0,0-2.9.232,12.565,12.565,0,0,0-2.218.6,7.965,7.965,0,0,0-1.651.851,7.135,7.135,0,0,0-1.168.984,5.609,5.609,0,0,0-1.434,2.635v21.526h-4.27V277.6a9.371,9.371,0,0,1,.717-3.587A8.092,8.092,0,0,1,313,270.894a12.469,12.469,0,0,1,4.2-2.218,20.393,20.393,0,0,1,6.321-.852,22.074,22.074,0,0,1,4.9.484,14.667,14.667,0,0,1,3.6,1.285,9.585,9.585,0,0,1,2.469,1.818,9.235,9.235,0,0,1,1.535,2.118,8.453,8.453,0,0,1,.783,2.168,9.865,9.865,0,0,1,.217,1.935v21.042h-4.471V276.783a3.443,3.443,0,0,0-.366-1.068,5.22,5.22,0,0,0-1.368-1.667,9.431,9.431,0,0,0-2.752-1.551A12.488,12.488,0,0,0,323.589,271.813Z" transform="translate(-309.928 -267.076)" fill="#fff"/>
  <path id="Trazado_330" data-name="Trazado 330" d="M371.65,286.558a18.163,18.163,0,0,1,6.321.99,14.847,14.847,0,0,1,4.41,2.449,9.714,9.714,0,0,1,2.566,3.135,7,7,0,0,1,.821,3.019,6.3,6.3,0,0,1-1.274,3.79,12.046,12.046,0,0,1-3.3,3.035,17.233,17.233,0,0,1-4.562,2.012,18.32,18.32,0,0,1-5.048.721,20.415,20.415,0,0,1-5.1-.655,16.586,16.586,0,0,1-4.6-1.911,11.281,11.281,0,0,1-3.32-3.035,6.782,6.782,0,0,1-1.275-4.058,6.238,6.238,0,0,1,.637-2.8,8.631,8.631,0,0,1,1.711-2.348,11.74,11.74,0,0,1,2.5-1.861,18.2,18.2,0,0,1,3.019-1.358,20.244,20.244,0,0,1,3.27-.839A19.294,19.294,0,0,1,371.65,286.558Zm9.794,9.76a5.829,5.829,0,0,0-.739-2.85,7.562,7.562,0,0,0-2.045-2.348,10.3,10.3,0,0,0-3.1-1.594,12.519,12.519,0,0,0-3.906-.587,13.935,13.935,0,0,0-3.942.537,10.778,10.778,0,0,0-3.17,1.475,7.278,7.278,0,0,0-2.112,2.231,5.355,5.355,0,0,0-.772,2.8,5.619,5.619,0,0,0,.772,2.851,7.78,7.78,0,0,0,2.112,2.348,10.674,10.674,0,0,0,3.17,1.593,12.8,12.8,0,0,0,3.942.588,13.587,13.587,0,0,0,3.906-.537,10.37,10.37,0,0,0,3.1-1.475,7.052,7.052,0,0,0,2.045-2.23A5.558,5.558,0,0,0,381.444,296.318Z" transform="translate(-327.791 -274.144)" fill="#fff"/>
  <path id="Trazado_331" data-name="Trazado 331" d="M421.756,286.51h4.47l-13.51,19.214L399.14,286.543h4.269l9.374,13.677Z" transform="translate(-343.577 -274.126)" fill="#fff"/>
  <path id="Trazado_332" data-name="Trazado 332" d="M453.681,286.671a17.177,17.177,0,0,1,6.271,1.034,15.963,15.963,0,0,1,4.336,2.436,10.56,10.56,0,0,1,2.519,2.835,5.048,5.048,0,0,1,.817,2.235v10.507h-3.869v-3q-.5.333-1.418.851a14.831,14.831,0,0,1-2.2.983,22.193,22.193,0,0,1-2.919.817,17.215,17.215,0,0,1-3.6.351,20.306,20.306,0,0,1-5.07-.651,16.462,16.462,0,0,1-4.57-1.9,11.22,11.22,0,0,1-3.3-3.019,6.746,6.746,0,0,1-1.267-4.037,6.213,6.213,0,0,1,.633-2.785,8.635,8.635,0,0,1,1.7-2.335,11.739,11.739,0,0,1,2.485-1.851,18.317,18.317,0,0,1,3-1.351,20.179,20.179,0,0,1,3.253-.834A19.084,19.084,0,0,1,453.681,286.671Zm9.741,9.707a5.8,5.8,0,0,0-.735-2.835,7.508,7.508,0,0,0-2.034-2.335,10.232,10.232,0,0,0-3.086-1.584,12.438,12.438,0,0,0-3.887-.583,13.887,13.887,0,0,0-3.919.533,10.728,10.728,0,0,0-3.152,1.468,7.233,7.233,0,0,0-2.1,2.218,5.333,5.333,0,0,0-.767,2.786,5.6,5.6,0,0,0,.767,2.835,7.718,7.718,0,0,0,2.1,2.335,10.58,10.58,0,0,0,3.152,1.585,12.749,12.749,0,0,0,3.919.583,13.524,13.524,0,0,0,3.887-.534,10.317,10.317,0,0,0,3.086-1.468,7,7,0,0,0,2.034-2.218A5.523,5.523,0,0,0,463.422,296.378Z" transform="translate(-358.768 -274.186)" fill="#fff"/>
  <g id="Grupo_111" data-name="Grupo 111" transform="translate(0 35.823)">
    <path id="Trazado_333" data-name="Trazado 333" d="M317.021,327.746a9.014,9.014,0,0,1,3.128.49,7.364,7.364,0,0,1,2.182,1.212A4.8,4.8,0,0,1,323.6,331a3.448,3.448,0,0,1,.407,1.494,3.111,3.111,0,0,1-.631,1.874,5.95,5.95,0,0,1-1.634,1.5,8.508,8.508,0,0,1-2.258,1,9.036,9.036,0,0,1-2.5.358,10.127,10.127,0,0,1-2.522-.324,8.219,8.219,0,0,1-2.274-.947,5.585,5.585,0,0,1-1.643-1.5,3.358,3.358,0,0,1-.63-2.008,3.093,3.093,0,0,1,.315-1.386,4.3,4.3,0,0,1,.846-1.162,5.855,5.855,0,0,1,1.236-.92,9.148,9.148,0,0,1,1.494-.673,10.132,10.132,0,0,1,1.619-.415A9.512,9.512,0,0,1,317.021,327.746Zm4.846,4.83a2.885,2.885,0,0,0-.366-1.41A3.725,3.725,0,0,0,320.489,330a5.081,5.081,0,0,0-1.536-.788,6.18,6.18,0,0,0-1.932-.291,6.876,6.876,0,0,0-1.95.266,5.325,5.325,0,0,0-1.569.73,3.6,3.6,0,0,0-1.045,1.1,2.644,2.644,0,0,0-.382,1.385,2.777,2.777,0,0,0,.382,1.411,3.85,3.85,0,0,0,1.045,1.161,5.274,5.274,0,0,0,1.569.789,6.342,6.342,0,0,0,1.95.29,6.7,6.7,0,0,0,1.932-.266,5.11,5.11,0,0,0,1.536-.73,3.478,3.478,0,0,0,1.012-1.1A2.744,2.744,0,0,0,321.866,332.576Z" transform="translate(-309.917 -325.505)" fill="#fff"/>
    <path id="Trazado_334" data-name="Trazado 334" d="M341.17,335.905a6.214,6.214,0,0,0,2.232-.34,4.7,4.7,0,0,0,1.369-.772,2.6,2.6,0,0,0,.681-.83,1.7,1.7,0,0,0,.182-.531v-5.793h2.224v4.681a4.857,4.857,0,0,1-.108.963,4.177,4.177,0,0,1-.391,1.078,4.578,4.578,0,0,1-.763,1.054,4.759,4.759,0,0,1-1.228.9,7.252,7.252,0,0,1-1.793.639,10.907,10.907,0,0,1-2.439.241,10.349,10.349,0,0,1-3.145-.415,6.015,6.015,0,0,1-2.091-1.1,4.087,4.087,0,0,1-1.161-1.56,4.666,4.666,0,0,1-.357-1.784v-4.68h2.124v5.609a2.8,2.8,0,0,0,.714,1.328,3.362,3.362,0,0,0,.581.481,4.537,4.537,0,0,0,.821.423,5.351,5.351,0,0,0,1.1.3A8.6,8.6,0,0,0,341.17,335.905Z" transform="translate(-319.147 -325.465)" fill="#fff"/>
    <path id="Trazado_335" data-name="Trazado 335" d="M365.083,328.5h-2.589v2.789a7.094,7.094,0,0,0,.174,1.742,2.422,2.422,0,0,0,.506,1.029,1.686,1.686,0,0,0,.8.5,3.812,3.812,0,0,0,1.046.133,6.929,6.929,0,0,0,1.627-.184,5.9,5.9,0,0,0,1.394-.514v1.378a11.852,11.852,0,0,1-1.519.365,8.864,8.864,0,0,1-1.5.133,5.81,5.81,0,0,1-1.642-.207,4.141,4.141,0,0,1-1.188-.548,3.413,3.413,0,0,1-.813-.78,3.706,3.706,0,0,1-.5-.913,4.615,4.615,0,0,1-.241-.937,6.221,6.221,0,0,1-.066-.864V328.5h-2.788V327.1h2.788v-2.955h1.925V327.1h2.589Z" transform="translate(-327.974 -324.148)" fill="#fff"/>
    <path id="Trazado_336" data-name="Trazado 336" d="M383.406,335.917a9.52,9.52,0,0,1-1.594-.141,10.125,10.125,0,0,1-1.618-.415,9.068,9.068,0,0,1-1.493-.673,5.852,5.852,0,0,1-1.237-.92,4.28,4.28,0,0,1-.846-1.163,3.083,3.083,0,0,1-.315-1.386,3.374,3.374,0,0,1,.63-2,5.541,5.541,0,0,1,1.643-1.51,8.171,8.171,0,0,1,2.274-.946,10.1,10.1,0,0,1,2.523-.324,8.542,8.542,0,0,1,1.792.175,10.945,10.945,0,0,1,1.452.407,7.4,7.4,0,0,1,1.1.49q.456.256.7.423v-3.652h1.926v7.385a2.51,2.51,0,0,1-.407,1.112,5.258,5.258,0,0,1-1.253,1.411,7.933,7.933,0,0,1-2.157,1.211A8.534,8.534,0,0,1,383.406,335.917Zm4.846-4.83a2.75,2.75,0,0,0-.365-1.386,3.489,3.489,0,0,0-1.013-1.1,5.166,5.166,0,0,0-1.535-.73,6.728,6.728,0,0,0-1.934-.266,6.365,6.365,0,0,0-1.95.29,5.3,5.3,0,0,0-1.568.789,3.838,3.838,0,0,0-1.046,1.162,2.782,2.782,0,0,0-.382,1.41,2.652,2.652,0,0,0,.382,1.386,3.6,3.6,0,0,0,1.046,1.1,5.337,5.337,0,0,0,1.568.73,6.9,6.9,0,0,0,1.95.266,6.186,6.186,0,0,0,1.934-.291,5.079,5.079,0,0,0,1.535-.788,3.728,3.728,0,0,0,1.013-1.162A2.887,2.887,0,0,0,388.252,331.087Z" transform="translate(-334.962 -324.199)" fill="#fff"/>
    <path id="Trazado_337" data-name="Trazado 337" d="M408.138,327.746a9.012,9.012,0,0,1,3.128.49,7.376,7.376,0,0,1,2.183,1.212,4.812,4.812,0,0,1,1.27,1.552,3.446,3.446,0,0,1,.406,1.494,3.111,3.111,0,0,1-.631,1.874,5.95,5.95,0,0,1-1.634,1.5,8.512,8.512,0,0,1-2.257,1,9.036,9.036,0,0,1-2.5.358,10.128,10.128,0,0,1-2.523-.324,8.227,8.227,0,0,1-2.274-.947,5.582,5.582,0,0,1-1.643-1.5,3.354,3.354,0,0,1-.631-2.008,3.085,3.085,0,0,1,.316-1.386,4.3,4.3,0,0,1,.846-1.162,5.859,5.859,0,0,1,1.237-.92,9.146,9.146,0,0,1,1.494-.673,10.1,10.1,0,0,1,1.618-.415A9.5,9.5,0,0,1,408.138,327.746Zm4.846,4.83a2.885,2.885,0,0,0-.365-1.41A3.733,3.733,0,0,0,411.606,330a5.093,5.093,0,0,0-1.535-.788,6.193,6.193,0,0,0-1.934-.291,6.876,6.876,0,0,0-1.95.266,5.329,5.329,0,0,0-1.568.73,3.6,3.6,0,0,0-1.046,1.1,2.65,2.65,0,0,0-.382,1.385,2.783,2.783,0,0,0,.382,1.411,3.842,3.842,0,0,0,1.046,1.161,5.279,5.279,0,0,0,1.568.789,6.342,6.342,0,0,0,1.95.29,6.715,6.715,0,0,0,1.934-.266,5.122,5.122,0,0,0,1.535-.73,3.486,3.486,0,0,0,1.012-1.1A2.743,2.743,0,0,0,412.983,332.576Z" transform="translate(-344.292 -325.505)" fill="#fff"/>
    <path id="Trazado_338" data-name="Trazado 338" d="M432.869,327.746a9.007,9.007,0,0,1,3.128.49,7.38,7.38,0,0,1,2.183,1.212A4.811,4.811,0,0,1,439.449,331a3.457,3.457,0,0,1,.407,1.494,3.111,3.111,0,0,1-.631,1.874,5.944,5.944,0,0,1-1.635,1.5,8.5,8.5,0,0,1-2.257,1,9.035,9.035,0,0,1-2.5.358,10.125,10.125,0,0,1-2.523-.324,8.21,8.21,0,0,1-2.274-.947,5.584,5.584,0,0,1-1.643-1.5,3.358,3.358,0,0,1-.63-2.008,3.085,3.085,0,0,1,.315-1.386,4.31,4.31,0,0,1,.846-1.162,5.831,5.831,0,0,1,1.237-.92,9.1,9.1,0,0,1,1.494-.673,10.09,10.09,0,0,1,1.618-.415A9.505,9.505,0,0,1,432.869,327.746Zm4.846,4.83a2.886,2.886,0,0,0-.366-1.41A3.727,3.727,0,0,0,436.338,330a5.093,5.093,0,0,0-1.535-.788,6.185,6.185,0,0,0-1.934-.291,6.883,6.883,0,0,0-1.95.266,5.329,5.329,0,0,0-1.568.73,3.6,3.6,0,0,0-1.046,1.1,2.65,2.65,0,0,0-.382,1.385,2.783,2.783,0,0,0,.382,1.411,3.844,3.844,0,0,0,1.046,1.161,5.279,5.279,0,0,0,1.568.789,6.348,6.348,0,0,0,1.95.29,6.707,6.707,0,0,0,1.934-.266,5.122,5.122,0,0,0,1.535-.73,3.48,3.48,0,0,0,1.012-1.1A2.744,2.744,0,0,0,437.715,332.576Z" transform="translate(-353.622 -325.505)" fill="#fff"/>
    <path id="Trazado_339" data-name="Trazado 339" d="M457.434,327.694a8.923,8.923,0,0,1,1.5.132,11.943,11.943,0,0,1,1.518.366v1.378a5.939,5.939,0,0,0-1.394-.516,7.03,7.03,0,0,0-1.627-.182,6.268,6.268,0,0,0-1.858.266,5.394,5.394,0,0,0-1.527.73,4.276,4.276,0,0,0-1.087,1.079,3.22,3.22,0,0,0-.539,1.327v4.93H450.5v-5.262a2.552,2.552,0,0,1,.4-1.112,5.118,5.118,0,0,1,1.245-1.41,7.95,7.95,0,0,1,2.157-1.212A8.6,8.6,0,0,1,457.434,327.694Z" transform="translate(-362.952 -325.486)" fill="#fff"/>
    <path id="Trazado_340" data-name="Trazado 340" d="M476.442,334.733a1.478,1.478,0,0,0-.722-1.269,4.014,4.014,0,0,0-2.183-.507,8.9,8.9,0,0,1-1.792-.215,7.03,7.03,0,0,1-1.61-.556,3.935,3.935,0,0,1-1.161-.847,1.57,1.57,0,0,1-.448-1.087,1.428,1.428,0,0,1,.489-1.062,4.193,4.193,0,0,1,1.237-.789,7.63,7.63,0,0,1,1.643-.49,9.464,9.464,0,0,1,1.726-.166,6.575,6.575,0,0,1,1.685.209,7.552,7.552,0,0,1,1.411.514,6.964,6.964,0,0,1,1.087.656,4.278,4.278,0,0,1,.713.647h-2.107a4.967,4.967,0,0,0-1.128-.73,3.765,3.765,0,0,0-1.66-.332,6.3,6.3,0,0,0-2.365.357,1.211,1.211,0,0,0-.854,1.17,1.126,1.126,0,0,0,.813,1.112,6.72,6.72,0,0,0,2.274.331,7.171,7.171,0,0,1,1.793.266,6.576,6.576,0,0,1,1.61.672,4.313,4.313,0,0,1,1.153.963,1.771,1.771,0,0,1,.44,1.136,1.429,1.429,0,0,1-.489,1.062,4.225,4.225,0,0,1-1.236.788,7.679,7.679,0,0,1-1.643.49,9.513,9.513,0,0,1-1.726.166,6.821,6.821,0,0,1-1.7-.207,8.6,8.6,0,0,1-1.469-.515,6.872,6.872,0,0,1-1.145-.655,4.658,4.658,0,0,1-.746-.648h2.107a3.584,3.584,0,0,0,1.22.648,5.544,5.544,0,0,0,1.734.249,7.188,7.188,0,0,0,2.281-.275A1.061,1.061,0,0,0,476.442,334.733Z" transform="translate(-369.679 -325.505)" fill="#fff"/>
  </g>
  <path id="Trazado_341" data-name="Trazado 341" d="M420.683,266.623s4.837,7.26,2.645,12.366a8.1,8.1,0,0,1-4.577,4.03s3.93-6.142,2.051-12.313c0,0,1.51,5-2.63,12.063,0,0-3.7-3.748-2.316-8.557A16.383,16.383,0,0,1,420.683,266.623Z" transform="translate(-349.767 -266.623)" fill="#fff"/>
</svg>
