<svg id="opni" xmlns="http://www.w3.org/2000/svg" width="108.96" height="43.897" viewBox="0 0 108.96 43.897">
  <g id="Grupo_3" data-name="Grupo 3" transform="translate(0 0.099)">
    <path id="Trazado_38" data-name="Trazado 38" d="M29.975,234.582A12.72,12.72,0,1,0,42.7,247.3,12.719,12.719,0,0,0,29.975,234.582Zm0,20.251a7.531,7.531,0,1,1,7.531-7.531A7.531,7.531,0,0,1,29.975,254.833Z" transform="translate(-12.477 -229.804)" fill="#fff"/>
    <path id="Trazado_39" data-name="Trazado 39" d="M17.5,217.324a17.5,17.5,0,1,0,17.5,17.5A17.5,17.5,0,0,0,17.5,217.324Zm0,30.611A13.112,13.112,0,1,1,30.61,234.822,13.112,13.112,0,0,1,17.5,247.935Z" transform="translate(0 -217.324)" fill="#fff"/>
  </g>
  <g id="Grupo_4" data-name="Grupo 4" transform="translate(63.284 0.099)">
    <path id="Trazado_40" data-name="Trazado 40" d="M263.554,234.64a17.494,17.494,0,0,0-34.987,0h-.005v17.68h4.385v-17.5a13.113,13.113,0,0,1,26.225,0h0v17.5h4.386V234.64Z" transform="translate(-228.562 -217.324)" fill="#fff"/>
    <path id="Trazado_41" data-name="Trazado 41" d="M271.255,247.12a12.717,12.717,0,0,0-25.431,0h-.005V264.8h5.19V247.3a7.532,7.532,0,0,1,15.064,0v17.5h5.189V247.12Z" transform="translate(-241.04 -229.804)" fill="#fff"/>
  </g>
  <g id="Grupo_5" data-name="Grupo 5" transform="translate(98.7 0.099)">
    <rect id="Rect치ngulo_4" data-name="Rect치ngulo 4" width="4.385" height="34.996" transform="translate(5.582)" fill="#fff"/>
    <rect id="Rect치ngulo_5" data-name="Rect치ngulo 5" width="5.19" height="34.996" fill="#fff"/>
  </g>
  <g id="Grupo_6" data-name="Grupo 6" transform="translate(1.156 13.845)" opacity="0.43">
    <path id="Trazado_42" data-name="Trazado 42" d="M39.523,274.879a7.532,7.532,0,0,1-14.622,2.54q-2.522.848-4.874,1.788a12.72,12.72,0,0,0,24.5-6.495q-2.6.411-5.109.906A7.557,7.557,0,0,1,39.523,274.879Z" transform="translate(-15.638 -271.122)" fill="#fff"/>
    <path id="Trazado_43" data-name="Trazado 43" d="M33.641,273.138A13.114,13.114,0,0,1,8.2,277.613q-2.084.843-4.025,1.756A17.5,17.5,0,0,0,37.8,270.3q-2.2.274-4.348.6A13.056,13.056,0,0,1,33.641,273.138Z" transform="translate(-4.176 -269.382)" fill="#fff"/>
    <path id="Trazado_44" data-name="Trazado 44" d="M343.546,286.17q-2.135-.717-4.386-1.366v16.317h4.386Z" transform="translate(-246.41 -279.866)" fill="#fff"/>
    <path id="Trazado_45" data-name="Trazado 45" d="M232.991,270.727a13.088,13.088,0,0,1,.459-3.438q-2.2-.188-4.435-.318a17.6,17.6,0,0,0-.405,3.574h0v17.681h4.385Z" transform="translate(-166.466 -266.971)" fill="#fff"/>
    <path id="Trazado_46" data-name="Trazado 46" d="M245.861,271.466v17.681h5.189v-17.5a7.5,7.5,0,0,1,.557-2.844q-2.6-.322-5.28-.559a12.716,12.716,0,0,0-.462,3.221Z" transform="translate(-178.943 -267.892)" fill="#fff"/>
    <path id="Trazado_47" data-name="Trazado 47" d="M324.177,297.312V280.884q-2.533-.719-5.2-1.348c0,.092.007.185.007.277v17.5Z" transform="translate(-231.818 -276.057)" fill="#fff"/>
    <path id="Trazado_48" data-name="Trazado 48" d="M376.674,297.858v12.7h4.385V299.844Q378.959,298.81,376.674,297.858Z" transform="translate(-273.537 -289.306)" fill="#fff"/>
    <path id="Trazado_49" data-name="Trazado 49" d="M361.706,292.194q-2.494-1.023-5.189-1.942v14.809h5.189Z" transform="translate(-258.961 -283.806)" fill="#fff"/>
  </g>
  <path id="Trazado_50" data-name="Trazado 50" d="M120.161,300.5l-8.391,4.927V278.6h8.391Z" transform="translate(-80.823 -261.534)" fill="#fff"/>
  <path id="Trazado_51" data-name="Trazado 51" d="M135.313,227.727c.069-.058.136-.117.2-.177a9.6,9.6,0,0,1,12.071,14.933l-.092.073a4.3,4.3,0,1,0,5.453,6.638c.1-.084.2-.172.292-.264a18.176,18.176,0,0,0-23.18-28q-.1.073-.2.152a4.3,4.3,0,0,0,5.453,6.64Z" transform="translate(-92.769 -216.967)" fill="#fff"/>
  <path id="Trazado_52" data-name="Trazado 52" d="M135.785,248.841c-.071.056-.14.113-.206.173a9.6,9.6,0,0,1-11.705-15.224c.033-.023.064-.045.094-.07a4.3,4.3,0,0,0-5.289-6.77c-.105.082-.2.168-.3.257a18.176,18.176,0,0,0,22.493,28.551c.068-.048.135-.1.2-.149a4.3,4.3,0,0,0-5.291-6.768Z" transform="translate(-80.779 -223.527)" fill="#fff"/>
  <g id="Grupo_7" data-name="Grupo 7" transform="translate(37.706 24.403)">
    <path id="Trazado_53" data-name="Trazado 53" d="M159.51,306.754a4.3,4.3,0,0,0-6.03-.739c-.071.056-.139.114-.207.172a9.6,9.6,0,0,1-10.66.484,15.863,15.863,0,0,1-6.43,5.938,18.181,18.181,0,0,0,22.386.324c.069-.048.135-.1.2-.149A4.3,4.3,0,0,0,159.51,306.754Z" transform="translate(-136.183 -305.104)" fill="#fff"/>
  </g>
  <g id="Grupo_8" data-name="Grupo 8" transform="translate(46.841 24.406)">
    <path id="Trazado_54" data-name="Trazado 54" d="M183.369,306.76a4.287,4.287,0,0,0-3.808-1.625c-1.921,3.894-5.546,7.917-10.386,11.357a18.119,18.119,0,0,0,13.254-3.553c.068-.048.135-.1.2-.149A4.294,4.294,0,0,0,183.369,306.76Z" transform="translate(-169.175 -305.115)" fill="#fff"/>
  </g>
  <g id="Grupo_9" data-name="Grupo 9" transform="translate(42.438 38.715)">
    <path id="Trazado_55" data-name="Trazado 55" d="M153.544,357.8c0-.49,0-.577-.007-.678s-.031-.157-.134-.178a.533.533,0,0,0-.107-.01c-.012,0-.025-.006-.025-.019s.016-.025.051-.025c.072,0,.156,0,.226,0l.128.006c.022,0,.647,0,.719,0a.711.711,0,0,0,.135-.015c.016,0,.029-.015.044-.015s.012.012.012.028-.016.059-.025.147c0,.032-.009.169-.016.207,0,.015-.01.034-.022.034s-.026-.016-.026-.04a.329.329,0,0,0-.019-.113c-.022-.05-.053-.088-.223-.107-.053-.006-.4-.009-.43-.009-.013,0-.019.009-.019.031v.867c0,.022,0,.032.019.032.041,0,.426,0,.5-.006s.12-.012.148-.044.035-.04.047-.04.016.006.016.025-.016.072-.025.176c-.006.063-.013.178-.013.2s0,.06-.022.06-.022-.013-.022-.029a.315.315,0,0,0-.013-.1c-.012-.044-.041-.1-.163-.109-.086-.01-.4-.016-.449-.016a.02.02,0,0,0-.022.022v.276c0,.107,0,.471,0,.537.009.216.056.258.365.258a.884.884,0,0,0,.3-.035c.081-.034.119-.1.141-.226.007-.035.012-.046.028-.046s.019.025.019.046-.025.239-.04.3c-.022.082-.048.082-.169.082-.236,0-.409-.007-.531-.01s-.2-.008-.245-.008c-.006,0-.06,0-.125,0s-.135.006-.182.006-.051-.006-.051-.025.007-.018.025-.018a.44.44,0,0,0,.094-.014c.063-.012.079-.081.092-.172.016-.132.016-.38.016-.682Z" transform="translate(-153.271 -356.841)" fill="#fff"/>
    <path id="Trazado_56" data-name="Trazado 56" d="M168.262,359.169c-.043-.022-.046-.035-.046-.119,0-.158.012-.283.015-.333,0-.035.009-.051.025-.051s.022.011.022.034a.537.537,0,0,0,.01.117.426.426,0,0,0,.464.32.419.419,0,0,0,.45-.417c0-.216-.092-.342-.361-.565l-.141-.117c-.332-.273-.408-.468-.408-.681a.575.575,0,0,1,.649-.565,1.228,1.228,0,0,1,.293.031.487.487,0,0,0,.109.016c.025,0,.031.006.031.021s-.012.12-.012.333c0,.05-.007.073-.022.073s-.022-.016-.025-.041a.547.547,0,0,0-.04-.158c-.019-.034-.1-.166-.393-.166a.357.357,0,0,0-.385.365c0,.178.081.291.384.527l.088.07c.37.292.458.486.458.737a.652.652,0,0,1-.266.522.827.827,0,0,1-.475.132A.962.962,0,0,1,168.262,359.169Z" transform="translate(-164.078 -356.792)" fill="#fff"/>
    <path id="Trazado_57" data-name="Trazado 57" d="M182.924,358.3c0,.3,0,.55.015.682.01.091.028.16.123.172a1.261,1.261,0,0,0,.141.014c.019,0,.024.009.024.018s-.015.025-.049.025c-.173,0-.37-.008-.387-.008s-.213.008-.307.008c-.034,0-.051-.006-.051-.025s.006-.018.025-.018a.443.443,0,0,0,.094-.014c.063-.012.079-.081.091-.172.016-.132.016-.38.016-.682v-1.328l-.465.006c-.194,0-.269.026-.32.1a.557.557,0,0,0-.053.1c-.009.025-.019.032-.031.032s-.016-.009-.016-.029.063-.3.069-.326.019-.06.031-.06a.627.627,0,0,0,.139.038c.091.009.21.016.247.016h1.178a1.255,1.255,0,0,0,.223-.016c.048-.007.075-.016.088-.016s.016.019.016.038c0,.094-.01.31-.01.345s-.009.04-.022.04-.021-.009-.024-.053l0-.034c-.01-.094-.085-.167-.387-.173l-.395-.006Z" transform="translate(-173.882 -356.792)" fill="#fff"/>
    <path id="Trazado_58" data-name="Trazado 58" d="M197.911,357.86c0-.49,0-.577-.007-.678s-.031-.157-.136-.178a.52.52,0,0,0-.106-.01c-.012,0-.025-.006-.025-.019s.015-.025.05-.025c.14,0,.332.009.36.009s.217-.009.311-.009c.034,0,.05.006.05.025s-.012.019-.024.019a.421.421,0,0,0-.079.01c-.086.012-.11.069-.117.178s-.007.189-.007.678v.44a.964.964,0,0,0,.236.775.612.612,0,0,0,.475.172.656.656,0,0,0,.491-.226,1.208,1.208,0,0,0,.183-.769v-.392c0-.49,0-.577-.007-.678s-.031-.157-.135-.178a.536.536,0,0,0-.106-.01c-.012,0-.026-.006-.026-.019s.015-.025.051-.025c.141,0,.314.009.333.009s.17-.009.264-.009c.034,0,.05.006.05.025s-.012.019-.025.019a.419.419,0,0,0-.078.01c-.086.018-.111.069-.116.178s-.007.189-.007.678v.336a1.224,1.224,0,0,1-.289.939.919.919,0,0,1-.647.233.968.968,0,0,1-.647-.223,1.041,1.041,0,0,1-.272-.826Z" transform="translate(-185.354 -356.906)" fill="#fff"/>
    <path id="Trazado_59" data-name="Trazado 59" d="M215.915,357.859c0-.49,0-.577-.007-.678s-.031-.157-.134-.178a.533.533,0,0,0-.107-.01c-.012,0-.025-.006-.025-.019s.016-.025.05-.025c.141,0,.339.009.354.009.038,0,.236-.009.424-.009a1.665,1.665,0,0,1,1.259.358,1.124,1.124,0,0,1,.3.8,1.286,1.286,0,0,1-.339.886,1.249,1.249,0,0,1-.952.362c-.135,0-.3-.01-.437-.019s-.245-.019-.261-.019-.06,0-.126,0-.134.006-.181.006-.051-.006-.051-.025.007-.018.026-.018a.453.453,0,0,0,.094-.014c.063-.012.078-.081.091-.172.016-.132.016-.38.016-.682Zm.264.339c0,.332,0,.622.006.682a.68.68,0,0,0,.035.238c.041.06.163.125.534.125a1.053,1.053,0,0,0,.747-.291,1.1,1.1,0,0,0,.251-.75,1.125,1.125,0,0,0-.3-.791,1.292,1.292,0,0,0-1.027-.355.771.771,0,0,0-.2.022c-.029.012-.037.027-.037.062,0,.108,0,.427,0,.67Z" transform="translate(-198.373 -356.905)" fill="#fff"/>
    <path id="Trazado_60" data-name="Trazado 60" d="M234.5,358.413c0,.3,0,.55.015.682.01.091.029.16.123.172a1.238,1.238,0,0,0,.14.014c.019,0,.025.009.025.018s-.015.025-.049.025c-.173,0-.372-.008-.387-.008s-.213.008-.307.008c-.034,0-.051-.006-.051-.025s.007-.018.026-.018a.46.46,0,0,0,.094-.014c.062-.012.079-.081.091-.172.016-.132.016-.38.016-.682v-.552c0-.49,0-.577-.006-.678s-.038-.16-.107-.176a.4.4,0,0,0-.1-.013c-.013,0-.025-.006-.025-.019s.015-.025.05-.025c.1,0,.3.009.317.009s.214-.009.308-.009c.034,0,.05.006.05.025s-.012.019-.026.019a.425.425,0,0,0-.078.01c-.085.016-.11.069-.116.178s-.007.189-.007.678Z" transform="translate(-211.649 -356.906)" fill="#fff"/>
    <path id="Trazado_61" data-name="Trazado 61" d="M247.436,356.792a1.143,1.143,0,0,1,1.233,1.177,1.232,1.232,0,0,1-1.252,1.285,1.178,1.178,0,0,1-1.219-1.234A1.216,1.216,0,0,1,247.436,356.792Zm.065,2.342c.283,0,.867-.163.867-1.077,0-.753-.458-1.159-.954-1.159a.9.9,0,0,0-.916,1.033A1.07,1.07,0,0,0,247.5,359.134Z" transform="translate(-220.468 -356.792)" fill="#fff"/>
    <path id="Trazado_62" data-name="Trazado 62" d="M276.511,358.914a1.2,1.2,0,0,1-.38-.93,1.252,1.252,0,0,1,.352-.857,1.27,1.27,0,0,1,.957-.336,2.7,2.7,0,0,1,.456.038,2.43,2.43,0,0,0,.32.046c.034,0,.04.016.04.035s-.01.063-.015.176-.006.277-.009.324-.01.066-.029.066-.024-.022-.024-.066a.439.439,0,0,0-.132-.32,1.05,1.05,0,0,0-.629-.179.96.96,0,0,0-.722.229,1.054,1.054,0,0,0-.282.82,1.133,1.133,0,0,0,1.132,1.149.723.723,0,0,0,.547-.157.582.582,0,0,0,.117-.264c.007-.034.012-.047.032-.047s.021.021.021.047a3.388,3.388,0,0,1-.068.4c-.019.058-.026.065-.082.091a1.836,1.836,0,0,1-.565.072A1.447,1.447,0,0,1,276.511,358.914Z" transform="translate(-242.114 -356.792)" fill="#fff"/>
    <path id="Trazado_63" data-name="Trazado 63" d="M293.773,357.86c0-.49,0-.577-.006-.678s-.032-.157-.135-.178a.531.531,0,0,0-.106-.01c-.012,0-.026-.006-.026-.019s.015-.025.051-.025c.141,0,.338.009.355.009.035,0,.273-.009.371-.009a.964.964,0,0,1,.574.138.55.55,0,0,1,.217.427.969.969,0,0,1-.38.725c.258.329.471.609.653.8a.647.647,0,0,0,.384.226.691.691,0,0,0,.123.01c.015,0,.028.009.028.018s-.019.025-.075.025h-.224a.632.632,0,0,1-.336-.06,1.664,1.664,0,0,1-.424-.461c-.132-.173-.279-.383-.342-.464a.047.047,0,0,0-.04-.019l-.387-.007c-.015,0-.022.009-.022.026v.074c0,.3,0,.55.016.682.009.091.029.16.122.172a1.255,1.255,0,0,0,.141.014c.019,0,.026.009.026.018s-.016.025-.05.025c-.173,0-.371-.008-.387-.008s-.2.008-.295.008c-.034,0-.05-.006-.05-.025s.006-.018.025-.018a.439.439,0,0,0,.094-.014c.063-.012.078-.081.091-.172.015-.132.015-.38.015-.682Zm.252.273a.04.04,0,0,0,.022.038.871.871,0,0,0,.331.05.41.41,0,0,0,.235-.06.574.574,0,0,0,.192-.483c0-.392-.207-.629-.544-.629a.941.941,0,0,0-.21.019.038.038,0,0,0-.025.037Z" transform="translate(-254.673 -356.906)" fill="#fff"/>
    <path id="Trazado_64" data-name="Trazado 64" d="M310.261,357.8c0-.49,0-.577-.006-.678s-.032-.157-.134-.178a.546.546,0,0,0-.108-.01c-.012,0-.024-.006-.024-.019s.016-.025.05-.025c.072,0,.158,0,.226,0l.128.006c.022,0,.648,0,.72,0a.721.721,0,0,0,.135-.015c.015,0,.027-.015.043-.015s.012.012.012.028-.015.059-.025.147c0,.032-.009.169-.015.207,0,.015-.009.034-.022.034s-.025-.016-.025-.04a.331.331,0,0,0-.019-.113c-.022-.05-.053-.088-.222-.107-.054-.006-.4-.009-.431-.009-.012,0-.019.009-.019.031v.867c0,.022,0,.032.019.032.041,0,.427,0,.5-.006s.119-.012.148-.044.034-.04.046-.04.016.006.016.025-.016.072-.026.176c-.006.063-.012.178-.012.2s0,.06-.022.06-.021-.013-.021-.029a.291.291,0,0,0-.014-.1c-.012-.044-.04-.1-.163-.109-.084-.01-.4-.016-.449-.016a.02.02,0,0,0-.022.022v.276c0,.107,0,.471,0,.537.01.216.056.258.365.258a.888.888,0,0,0,.3-.035c.08-.034.118-.1.14-.226.007-.035.012-.046.029-.046s.019.025.019.046-.026.239-.041.3c-.022.082-.047.082-.17.082-.236,0-.409-.007-.531-.01s-.2-.008-.245-.008c-.006,0-.06,0-.125,0s-.135.006-.182.006-.051-.006-.051-.025.007-.018.026-.018a.442.442,0,0,0,.094-.014c.062-.012.079-.081.091-.172.016-.132.016-.38.016-.682Z" transform="translate(-266.596 -356.841)" fill="#fff"/>
    <path id="Trazado_65" data-name="Trazado 65" d="M324.6,356.914c.038-.1.05-.122.069-.122s.032.015.069.113c.047.119.54,1.416.732,1.893.113.279.2.331.269.349a.406.406,0,0,0,.127.02c.019,0,.031,0,.031.018s-.028.025-.063.025-.276,0-.491-.006c-.06,0-.1,0-.1-.021s.01-.019.022-.022.038-.034.019-.085L325,358.3a.028.028,0,0,0-.029-.019h-.676a.033.033,0,0,0-.031.025l-.188.557a.649.649,0,0,0-.044.21c0,.063.066.092.119.092h.031c.022,0,.032.005.032.018s-.019.025-.047.025c-.076,0-.21-.008-.245-.008s-.207.008-.355.008c-.041,0-.059-.006-.059-.025s.013-.018.028-.018a.9.9,0,0,0,.091-.007c.144-.019.207-.139.264-.295Zm.326,1.257c.016,0,.016-.01.013-.022l-.3-.848c-.016-.048-.032-.048-.048,0l-.276.848c-.007.015,0,.022.009.022Z" transform="translate(-276.37 -356.792)" fill="#fff"/>
    <path id="Trazado_66" data-name="Trazado 66" d="M340.321,358.3c0,.3,0,.55.016.682.009.091.028.16.122.172a1.232,1.232,0,0,0,.142.014c.019,0,.025.009.025.018s-.016.025-.051.025c-.172,0-.37-.008-.385-.008s-.214.008-.308.008c-.034,0-.05-.006-.05-.025s0-.018.025-.018a.443.443,0,0,0,.094-.014c.063-.012.078-.081.091-.172.017-.132.017-.38.017-.682v-1.328l-.465.006c-.194,0-.27.026-.32.1a.564.564,0,0,0-.054.1c-.008.025-.018.032-.031.032s-.015-.009-.015-.029.062-.3.069-.326.018-.06.031-.06a.621.621,0,0,0,.138.038c.092.009.211.016.248.016h1.178a1.266,1.266,0,0,0,.223-.016c.047-.007.076-.016.088-.016s.015.019.015.038c0,.094-.009.31-.009.345s-.01.04-.022.04-.022-.009-.026-.053l0-.034c-.009-.094-.085-.167-.385-.173l-.4-.006Z" transform="translate(-287.7 -356.792)" fill="#fff"/>
    <path id="Trazado_67" data-name="Trazado 67" d="M356.326,358.413c0,.3,0,.55.015.682.011.091.028.16.123.172a1.228,1.228,0,0,0,.142.014c.018,0,.024.009.024.018s-.015.025-.049.025c-.173,0-.371-.008-.387-.008s-.213.008-.307.008c-.035,0-.051-.006-.051-.025s.006-.018.025-.018a.441.441,0,0,0,.094-.014c.063-.012.079-.081.092-.172.016-.132.016-.38.016-.682v-.552c0-.49,0-.577-.007-.678s-.037-.16-.106-.176a.4.4,0,0,0-.1-.013c-.013,0-.025-.006-.025-.019s.016-.025.051-.025c.1,0,.3.009.317.009s.214-.009.308-.009c.035,0,.05.006.05.025s-.013.019-.026.019a.426.426,0,0,0-.078.01c-.085.016-.111.069-.117.178s-.006.189-.006.678Z" transform="translate(-299.743 -356.906)" fill="#fff"/>
    <path id="Trazado_68" data-name="Trazado 68" d="M368.613,358.941c.182-.421.6-1.517.672-1.743a.462.462,0,0,0,.029-.118.078.078,0,0,0-.041-.073.383.383,0,0,0-.12-.013c-.018,0-.034,0-.034-.019s.019-.025.069-.025c.126,0,.27.009.307.009.019,0,.154-.009.245-.009.034,0,.053.006.053.021s-.012.022-.038.022a.283.283,0,0,0-.151.038c-.04.028-.088.082-.172.3-.034.088-.192.465-.352.851-.192.459-.332.8-.405.951-.088.189-.1.239-.132.239s-.053-.045-.113-.2l-.769-1.924c-.068-.176-.117-.211-.226-.242a.47.47,0,0,0-.119-.013c-.019,0-.025-.008-.025-.022s.031-.021.081-.021c.151,0,.33.009.367.009s.172-.009.292-.009c.056,0,.084.006.084.021s-.009.022-.032.022a.355.355,0,0,0-.119.016.062.062,0,0,0-.041.063,1.184,1.184,0,0,0,.085.26Z" transform="translate(-308.034 -356.906)" fill="#fff"/>
    <path id="Trazado_69" data-name="Trazado 69" d="M385.84,356.792a1.144,1.144,0,0,1,1.234,1.177,1.233,1.233,0,0,1-1.254,1.285,1.177,1.177,0,0,1-1.218-1.234A1.216,1.216,0,0,1,385.84,356.792Zm.066,2.342c.283,0,.866-.163.866-1.077,0-.753-.458-1.159-.954-1.159a.9.9,0,0,0-.917,1.033A1.071,1.071,0,0,0,385.906,359.134Z" transform="translate(-320.551 -356.792)" fill="#fff"/>
  </g>
  <path id="Trazado_70" data-name="Trazado 70" d="M201.432,309.376a4.256,4.256,0,1,1-4.256-4.257A4.256,4.256,0,0,1,201.432,309.376Z" transform="translate(-139.504 -280.711)" fill="#fff"/>
</svg>
