<svg id="overland" xmlns="http://www.w3.org/2000/svg" width="108.96" height="40.038" viewBox="0 0 108.96 40.038">
  <path id="Trazado_243" data-name="Trazado 243" d="M320.273,932.85h.058a13.059,13.059,0,0,1,2.218.177l4.563-4.531c1.5-1.572-.371-3.795-.371-3.795l-10.2-10.265a2.658,2.658,0,0,0-1.9-.9,2.469,2.469,0,0,0-1.461.5l-10.651,10.578-.3.383a2.727,2.727,0,0,0,.413,3.837l9.645,9.712c.02-.124.043-.251.069-.379C312.883,935.737,314.681,932.85,320.273,932.85Z" transform="translate(-292.457 -913.538)" fill="#fff"/>
  <path id="Trazado_244" data-name="Trazado 244" d="M309.742,944.3c0-.036,0-.074,0-.11l-7.9-7.955c-1.245-1.186-3.006.294-3.006.294l-8.129,8.074a2.1,2.1,0,0,0-.711,1.509,1.956,1.956,0,0,0,.4,1.156l8.378,8.435.3.236a2.16,2.16,0,0,0,3.039-.327l8.594-8.534A4.144,4.144,0,0,1,309.742,944.3Z" transform="translate(-289.999 -918.258)" fill="#fff"/>
  <path id="Trazado_245" data-name="Trazado 245" d="M315.763,950.8l-4.388,4.36c-.633.664.155,1.6.155,1.6l4.31,4.339a1.027,1.027,0,0,0,1.422.166l4.5-4.47.125-.162a1.154,1.154,0,0,0-.174-1.622l-3.076-3.1A6.182,6.182,0,0,1,315.763,950.8Z" transform="translate(-294.483 -921.446)" fill="#fff"/>
  <path id="Trazado_246" data-name="Trazado 246" d="M327.06,940.5a7.808,7.808,0,0,0-3.489-.633q-5.663-.02-6.57,4.182a5.727,5.727,0,0,0-.128,1.13q-.011,3.12,4.906,3.136,5.7.02,6.615-4.2a5.547,5.547,0,0,0,.128-1.119A2.59,2.59,0,0,0,327.06,940.5Zm-1.289,3.613a3.345,3.345,0,0,1-3.705,2.813q-2.577-.009-2.571-2.01a4.036,4.036,0,0,1,.1-.858,3.317,3.317,0,0,1,3.683-2.79q2.61.008,2.6,1.953A4.112,4.112,0,0,1,325.771,944.112Z" transform="translate(-295.701 -919.125)" fill="#fff"/>
  <path id="Trazado_247" data-name="Trazado 247" d="M341.266,940.125l-4.8,6.028-2.115-6.051-2.388-.008h-.3l1.394,3.564,1.788,4.57,2.486.008,6.471-8.1Z" transform="translate(-298.839 -919.173)" fill="#fff"/>
  <path id="Trazado_248" data-name="Trazado 248" d="M352.534,941.582l3.922.013.31-1.412-3.956-.013a7.38,7.38,0,0,0-4.5,1.16,5.368,5.368,0,0,0-1.9,3.982q-.011,2.96,4.579,2.975l4.023.014.3-1.412-3.923-.014a3.691,3.691,0,0,1-1.75-.321,1.158,1.158,0,0,1-.584-1.086,2.731,2.731,0,0,1,.07-.586l6.623.023.3-1.413-6.612-.022Q350,941.574,352.534,941.582Z" transform="translate(-301.968 -919.19)" fill="#fff"/>
  <path id="Trazado_249" data-name="Trazado 249" d="M367.483,944.939a3.779,3.779,0,0,0,1.9-.807,2.53,2.53,0,0,0,.863-1.454,2.8,2.8,0,0,0,.07-.588,1.486,1.486,0,0,0-.865-1.427,6.144,6.144,0,0,0-2.655-.45l-5.877-.02-1.757,8.118,2.4.008.689-3.173,2.791.01,1.832,3.183,2.679.009Zm-2-1.217-2.928-.009.437-2.056,2.928.01q1.965.007,1.963.7a1.907,1.907,0,0,1-.046.327,1.065,1.065,0,0,1-.641.818A4.755,4.755,0,0,1,365.486,943.722Z" transform="translate(-304.675 -919.194)" fill="#fff"/>
  <path id="Trazado_250" data-name="Trazado 250" d="M374.486,947.968a8.242,8.242,0,0,0,3.017.407l3.04.01.288-1.344-2.849-.009a4.246,4.246,0,0,1-1.818-.277.894.894,0,0,1-.461-.861,6.722,6.722,0,0,1,.185-1.186l.965-4.459-2.374-.009-1.045,4.833a5.064,5.064,0,0,0-.117,1.005A1.874,1.874,0,0,0,374.486,947.968Z" transform="translate(-307.679 -919.204)" fill="#fff"/>
  <path id="Trazado_251" data-name="Trazado 251" d="M389.263,940.3l-6.527,8.1,2.532.009,1.4-1.94,4.951.017.626,1.946,2.656.01-3.1-8.135Zm-1.508,4.74,2.35-3.1,1.052,3.111Z" transform="translate(-309.677 -919.216)" fill="#fff"/>
  <path id="Trazado_252" data-name="Trazado 252" d="M410.814,940.365l-2.408-.008-1.173,5.849-3.371-5.864-3.04-.01-1.758,8.118,2.453.008,1.23-6.133,3.55,6.15,2.758.009Z" transform="translate(-313.142 -919.223)" fill="#fff"/>
  <path id="Trazado_253" data-name="Trazado 253" d="M420.6,940.4l-5.188-.017-1.758,8.118,5.256.018q5.312.018,6.15-3.877a5.551,5.551,0,0,0,.139-1.164Q425.208,940.415,420.6,940.4Zm1.873,4.074a3.437,3.437,0,0,1-1.16,2.2,4.041,4.041,0,0,1-2.194.433l-2.769-.009,1.137-5.294,2.769.009a3.483,3.483,0,0,1,1.84.363,1.3,1.3,0,0,1,.528,1.171A5.7,5.7,0,0,1,422.471,944.472Z" transform="translate(-316.237 -919.234)" fill="#fff"/>
</svg>
