<svg id="picari" xmlns="http://www.w3.org/2000/svg" width="108.96" height="33.706" viewBox="0 0 108.96 33.706">
  <g id="Grupo_31" data-name="Grupo 31" transform="translate(0 0)">
    <path id="Trazado_113" data-name="Trazado 113" d="M120.175,286.823s2.455-1.848,2.455-4.3-1.014-4.145-3.244-4.145c-2.084,0-4.538,1.586-6.8,3.165-1.571,1.1-1.2,1.926-3.858,1.926-2.715,0-2.816,1.977-2.816,3.357,0,2.016,1.622,4.044,5.385,5.181v.229a8.778,8.778,0,0,1-4.252-1.434,6.713,6.713,0,0,1-2.574-5.193,3.237,3.237,0,0,1,3-3c.361,0,.315.158.878.158A5.9,5.9,0,0,0,112.6,280.7c1.937-1.983,4.6-3.627,6.939-3.627s4.326,1.735,4.326,4.911a5.264,5.264,0,0,1-3.718,5.047Z" transform="translate(-104.472 -277.068)" fill="#fff"/>
    <path id="Trazado_114" data-name="Trazado 114" d="M130.613,290.517a33.173,33.173,0,0,0,1.234,5.424l-.22.152S129.177,293.17,130.613,290.517Z" transform="translate(-115.197 -282.683)" fill="#fff"/>
    <path id="Trazado_115" data-name="Trazado 115" d="M125.476,300.081a7.912,7.912,0,0,0-2.41-.394,9.678,9.678,0,0,0-5.9,2.264s-.676-2.906-2.421-3.379c0,0,1.881,3.222,1.881,4.326,0,.349-.18.383-.18.383s.2.654,1.566.654,4.123-1.194,6.646-2.828c0,0-5.8,2.05-6.725,1.791C117.928,302.9,118.233,300.408,125.476,300.081Z" transform="translate(-108.759 -286.046)" fill="#fff"/>
    <path id="Trazado_116" data-name="Trazado 116" d="M121.5,287.839s-1.127,4.1-4.315,4.1a3.117,3.117,0,0,1-2.129-.721s-.394,1.96-1.881,1.96a2.826,2.826,0,0,1-1.521-.608l-.181.2a3.983,3.983,0,0,0,2.253,1.048,2.174,2.174,0,0,0,1.859-1.239,5.035,5.035,0,0,0,1.971.461c1.036,0,3.323-.619,4.224-5.159Z" transform="translate(-107.394 -281.565)" fill="#fff"/>
  </g>
  <g id="Grupo_44" data-name="Grupo 44" transform="translate(55.625 17.458)">
    <g id="Grupo_33" data-name="Grupo 33">
      <g id="Grupo_32" data-name="Grupo 32">
        <path id="Trazado_117" data-name="Trazado 117" d="M210.2,307.622a.878.878,0,0,1,.729.929v.032a.966.966,0,0,1-1.2.929,5.973,5.973,0,0,0-1.5-.19,5.979,5.979,0,1,0,0,11.958,6.336,6.336,0,0,0,1.5-.179.966.966,0,0,1,1.2.928v.021a.885.885,0,0,1-.729.94,8.126,8.126,0,0,1-1.973.242,7.926,7.926,0,0,1,0-15.852A8.1,8.1,0,0,1,210.2,307.622Z" transform="translate(-200.108 -307.181)" fill="#fff"/>
        <path id="Trazado_118" data-name="Trazado 118" d="M208.09,323.287a8.124,8.124,0,0,1,0-16.248,8.361,8.361,0,0,1,2.021.249h0a1.073,1.073,0,0,1,.877,1.12,1.133,1.133,0,0,1-.457.948,1.1,1.1,0,0,1-.994.2,5.822,5.822,0,0,0-1.449-.183,5.781,5.781,0,1,0,0,11.561,6.147,6.147,0,0,0,1.452-.174,1.164,1.164,0,0,1,1.448,1.121,1.087,1.087,0,0,1-.877,1.152A8.331,8.331,0,0,1,208.09,323.287Zm0-15.852a7.728,7.728,0,0,0,0,15.456,7.955,7.955,0,0,0,1.925-.237.692.692,0,0,0,.578-.747.768.768,0,0,0-.956-.758,6.543,6.543,0,0,1-1.548.185,6.177,6.177,0,0,1,0-12.353,6.2,6.2,0,0,1,1.548.2.716.716,0,0,0,.653-.134.727.727,0,0,0,.3-.6.7.7,0,0,0-.58-.769A7.973,7.973,0,0,0,208.09,307.435Z" transform="translate(-199.966 -307.039)" fill="#fff"/>
      </g>
    </g>
    <g id="Grupo_35" data-name="Grupo 35" transform="translate(8.762 4.327)">
      <g id="Grupo_34" data-name="Grupo 34">
        <path id="Trazado_119" data-name="Trazado 119" d="M221.11,314.808a5.765,5.765,0,1,1-4.074,1.689A5.551,5.551,0,0,1,221.11,314.808Zm0,1.973A3.82,3.82,0,1,0,223.8,317.9,3.681,3.681,0,0,0,221.11,316.781Z" transform="translate(-215.15 -314.61)" fill="#fff"/>
        <path id="Trazado_120" data-name="Trazado 120" d="M220.968,326.388a5.963,5.963,0,1,1,4.213-1.746A5.767,5.767,0,0,1,220.968,326.388Zm0-11.525a5.568,5.568,0,1,0,3.934,1.631A5.384,5.384,0,0,0,220.968,314.863Zm0,9.6a4.018,4.018,0,1,1,2.831-1.177A3.887,3.887,0,0,1,220.968,324.468Zm0-7.631a3.624,3.624,0,1,0,2.551,1.061A3.5,3.5,0,0,0,220.968,316.837Z" transform="translate(-215.008 -314.468)" fill="#fff"/>
      </g>
    </g>
    <g id="Grupo_37" data-name="Grupo 37" transform="translate(29.011 0.011)">
      <g id="Grupo_36" data-name="Grupo 36">
        <path id="Trazado_121" data-name="Trazado 121" d="M251.272,309.709a1.155,1.155,0,1,1,.813-1.973,1.093,1.093,0,0,1,.348.813,1.17,1.17,0,0,1-1.161,1.16Zm.01,2.006a.9.9,0,0,1,.675.285.933.933,0,0,1,.285.686v9.593a.973.973,0,0,1-.96.961h-.021a.937.937,0,0,1-.686-.285.9.9,0,0,1-.285-.676v-9.593a.973.973,0,0,1,.971-.971Z" transform="translate(-249.913 -307.2)" fill="#fff"/>
        <path id="Trazado_122" data-name="Trazado 122" d="M251.14,323.295a1.144,1.144,0,0,1-.847-.343,1.094,1.094,0,0,1-.343-.816v-9.593a1.171,1.171,0,0,1,1.169-1.169h.021a1.094,1.094,0,0,1,.818.346,1.126,1.126,0,0,1,.34.823v9.593a1.17,1.17,0,0,1-1.158,1.158Zm-.021-11.524a.775.775,0,0,0-.773.773v9.593a.7.7,0,0,0,.224.533.742.742,0,0,0,.549.23.721.721,0,0,0,.554-.224.712.712,0,0,0,.23-.538v-9.593a.738.738,0,0,0-.227-.546.706.706,0,0,0-.535-.227Zm.01-2.006a1.353,1.353,0,1,1,.952-2.311,1.332,1.332,0,0,1,0,1.918A1.3,1.3,0,0,1,251.13,309.765Zm0-2.311a.922.922,0,0,0-.683.28.91.91,0,0,0-.28.673.959.959,0,0,0,1.636.683.909.909,0,0,0,.29-.683.9.9,0,0,0-.288-.671A.913.913,0,0,0,251.13,307.454Z" transform="translate(-249.771 -307.058)" fill="#fff"/>
      </g>
    </g>
    <g id="Grupo_39" data-name="Grupo 39" transform="translate(31.79 4.327)">
      <g id="Grupo_38" data-name="Grupo 38">
        <path id="Trazado_123" data-name="Trazado 123" d="M256.833,325.372a.9.9,0,0,1-.285.675.923.923,0,0,1-.676.285h-.031a.923.923,0,0,1-.676-.285.9.9,0,0,1-.285-.675V319.6a4.786,4.786,0,1,1,9.572,0v5.773a.974.974,0,0,1-.961.961h-.021a.935.935,0,0,1-.686-.285.9.9,0,0,1-.285-.675V319.6a2.834,2.834,0,1,0-5.668,0Z" transform="translate(-254.683 -314.61)" fill="#fff"/>
        <path id="Trazado_124" data-name="Trazado 124" d="M263.35,326.388a1.142,1.142,0,0,1-.846-.343,1.091,1.091,0,0,1-.343-.815v-5.773a2.636,2.636,0,1,0-5.272,0v5.773a1.094,1.094,0,0,1-.346.818,1.114,1.114,0,0,1-.813.34,1.136,1.136,0,0,1-.846-.343,1.091,1.091,0,0,1-.343-.815v-5.773a4.984,4.984,0,1,1,9.968,0v5.773a1.172,1.172,0,0,1-1.159,1.158Zm-3.82-9.968a3.027,3.027,0,0,1,3.027,3.037v5.773a.7.7,0,0,0,.224.532.741.741,0,0,0,.549.23.718.718,0,0,0,.554-.225.709.709,0,0,0,.229-.538v-5.773a4.588,4.588,0,1,0-9.176,0v5.773a.7.7,0,0,0,.224.532.73.73,0,0,0,.539.23.746.746,0,0,0,.567-.228.705.705,0,0,0,.227-.535v-5.773a3.027,3.027,0,0,1,3.037-3.037Z" transform="translate(-254.541 -314.468)" fill="#fff"/>
      </g>
    </g>
    <g id="Grupo_41" data-name="Grupo 41" transform="translate(41.415 4.327)">
      <g id="Grupo_40" data-name="Grupo 40">
        <path id="Trazado_125" data-name="Trazado 125" d="M281.24,316.5a5.552,5.552,0,0,1,1.688,4.073v4.8a.9.9,0,0,1-.285.675.924.924,0,0,1-.676.285h-.031a.924.924,0,0,1-.676-.285.9.9,0,0,1-.285-.675v-.486a5.759,5.759,0,1,1,.264-8.39Zm-6.776,1.382a3.815,3.815,0,1,0,5.393,0,3.81,3.81,0,0,0-5.393,0Z" transform="translate(-271.206 -314.61)" fill="#fff"/>
        <path id="Trazado_126" data-name="Trazado 126" d="M281.826,326.388a1.139,1.139,0,0,1-.847-.343,1.092,1.092,0,0,1-.343-.815v-.065a5.953,5.953,0,1,1,2.349-4.737v4.8a1.094,1.094,0,0,1-.346.818A1.114,1.114,0,0,1,281.826,326.388Zm-.794-2.083v.925a.7.7,0,0,0,.224.532.73.73,0,0,0,.538.23.746.746,0,0,0,.567-.228.706.706,0,0,0,.227-.535v-4.8A5.578,5.578,0,1,0,280.7,324.6Zm-4.008.131a4.011,4.011,0,0,1-2.842-6.839h0a4.011,4.011,0,1,1,2.841,6.839Zm-2.561-6.559a3.616,3.616,0,1,0,5.113,0,3.611,3.611,0,0,0-5.113,0Z" transform="translate(-271.064 -314.468)" fill="#fff"/>
      </g>
    </g>
    <g id="Grupo_43" data-name="Grupo 43" transform="translate(20.344 3.562)">
      <g id="Grupo_42" data-name="Grupo 42">
        <path id="Trazado_127" data-name="Trazado 127" d="M243.233,313.786a.938.938,0,0,1,.72.979v.056a.965.965,0,0,1-.416.822.979.979,0,0,1-.923.158,3.8,3.8,0,0,0-1.238-.2,4.068,4.068,0,1,0,0,8.137,4.028,4.028,0,0,0,1.238-.191,1,1,0,0,1,.923.146.976.976,0,0,1,.416.833.948.948,0,0,1-.72.979,6.175,6.175,0,0,1-1.857.282,6.145,6.145,0,1,1,1.857-12Z" transform="translate(-235.034 -313.295)" fill="#fff"/>
        <path id="Trazado_128" data-name="Trazado 128" d="M241.235,325.84a6.343,6.343,0,1,1,1.917-12.384,1.135,1.135,0,0,1,.858,1.168v.056a1.157,1.157,0,0,1-.5.982,1.172,1.172,0,0,1-1.1.187,3.646,3.646,0,0,0-1.178-.193,3.87,3.87,0,1,0,0,7.741,3.852,3.852,0,0,0,1.178-.182,1.186,1.186,0,0,1,1.1.174,1.169,1.169,0,0,1,.5.994,1.146,1.146,0,0,1-.857,1.167A6.431,6.431,0,0,1,241.235,325.84Zm0-12.29a5.947,5.947,0,0,0,0,11.895,6.013,6.013,0,0,0,1.8-.273.752.752,0,0,0,.582-.79.781.781,0,0,0-.336-.673.8.8,0,0,0-.746-.118,4.246,4.246,0,0,1-1.3.2,4.267,4.267,0,1,1,0-8.533,4.032,4.032,0,0,1,1.3.213.781.781,0,0,0,.742-.13.771.771,0,0,0,.336-.662v-.056a.745.745,0,0,0-.582-.79h0A5.807,5.807,0,0,0,241.235,313.549Z" transform="translate(-234.892 -313.154)" fill="#fff"/>
      </g>
    </g>
  </g>
  <g id="Grupo_57" data-name="Grupo 57" transform="translate(10.791 17.458)">
    <g id="Grupo_46" data-name="Grupo 46">
      <g id="Grupo_45" data-name="Grupo 45">
        <path id="Trazado_129" data-name="Trazado 129" d="M125.291,317.954v4.316a.9.9,0,0,1-.285.675.925.925,0,0,1-.676.285H124.3a.924.924,0,0,1-.676-.285.9.9,0,0,1-.285-.675v-9.6a5.283,5.283,0,1,1,5.287,5.288Zm0-1.953h3.335a3.344,3.344,0,1,0-3.335-3.335Z" transform="translate(-123.14 -307.181)" fill="#fff"/>
        <path id="Trazado_130" data-name="Trazado 130" d="M124.188,323.287a1.137,1.137,0,0,1-.847-.343,1.092,1.092,0,0,1-.343-.815v-9.6a5.481,5.481,0,1,1,5.485,5.486h-3.137v4.118a1.1,1.1,0,0,1-.346.818A1.116,1.116,0,0,1,124.188,323.287Zm4.3-15.852a5.081,5.081,0,0,0-5.089,5.089v9.6a.7.7,0,0,0,.224.532.729.729,0,0,0,.538.23.746.746,0,0,0,.567-.228.7.7,0,0,0,.227-.535v-4.514h3.533a5.09,5.09,0,1,0,0-10.179Zm0,8.623h-3.533v-3.533a3.534,3.534,0,1,1,3.533,3.533Zm-3.137-.4h3.137a3.145,3.145,0,1,0-3.137-3.137Z" transform="translate(-122.998 -307.039)" fill="#fff"/>
      </g>
    </g>
    <g id="Grupo_48" data-name="Grupo 48" transform="translate(10.913 0.011)">
      <g id="Grupo_47" data-name="Grupo 47">
        <path id="Trazado_131" data-name="Trazado 131" d="M143.233,309.709a1.154,1.154,0,0,1-1.161-1.161,1.108,1.108,0,0,1,.338-.813,1.12,1.12,0,0,1,.823-.337,1.107,1.107,0,0,1,.813.337,1.134,1.134,0,0,1,0,1.636A1.107,1.107,0,0,1,143.233,309.709Zm.01,2a.9.9,0,0,1,.676.285.935.935,0,0,1,.285.686v9.594a.974.974,0,0,1-.961.961h-.021a.936.936,0,0,1-.686-.285.9.9,0,0,1-.285-.675v-9.594a.973.973,0,0,1,.971-.97Z" transform="translate(-141.874 -307.2)" fill="#fff"/>
        <path id="Trazado_132" data-name="Trazado 132" d="M143.1,323.295a1.144,1.144,0,0,1-.847-.343,1.092,1.092,0,0,1-.343-.815v-9.594a1.171,1.171,0,0,1,1.169-1.168h.021a1.1,1.1,0,0,1,.818.345,1.126,1.126,0,0,1,.341.823v9.594a1.172,1.172,0,0,1-1.159,1.158Zm-.021-11.525a.775.775,0,0,0-.773.773v9.594a.7.7,0,0,0,.224.532.741.741,0,0,0,.549.23.718.718,0,0,0,.554-.225.709.709,0,0,0,.229-.538v-9.594a.736.736,0,0,0-.227-.546.708.708,0,0,0-.535-.227Zm.01-2a1.353,1.353,0,1,1,.952-2.311,1.285,1.285,0,0,1,.407.952,1.369,1.369,0,0,1-1.359,1.359Zm0-2.311a.922.922,0,0,0-.683.28.911.911,0,0,0-.28.673.958.958,0,0,0,1.636.683.908.908,0,0,0,.29-.683.9.9,0,0,0-.288-.67A.912.912,0,0,0,143.091,307.454Z" transform="translate(-141.732 -307.058)" fill="#fff"/>
      </g>
    </g>
    <g id="Grupo_50" data-name="Grupo 50" transform="translate(13.525 4.327)">
      <g id="Grupo_49" data-name="Grupo 49">
        <path id="Trazado_133" data-name="Trazado 133" d="M154.061,315.082a.88.88,0,0,1,.675.918v.053a.9.9,0,0,1-.39.77.918.918,0,0,1-.866.148,3.574,3.574,0,0,0-1.161-.191,3.815,3.815,0,1,0,0,7.631,3.782,3.782,0,0,0,1.161-.179.933.933,0,0,1,.866.137.915.915,0,0,1,.39.781.891.891,0,0,1-.675.919,5.824,5.824,0,0,1-1.742.263,5.762,5.762,0,1,1,1.742-11.25Z" transform="translate(-146.359 -314.61)" fill="#fff"/>
        <path id="Trazado_134" data-name="Trazado 134" d="M152.177,326.388a5.96,5.96,0,1,1,1.8-11.637,1.076,1.076,0,0,1,.813,1.107v.053a1.1,1.1,0,0,1-.471.93,1.111,1.111,0,0,1-1.043.176,3.4,3.4,0,0,0-1.1-.181,3.617,3.617,0,1,0,0,7.235,3.6,3.6,0,0,0,1.1-.17,1.125,1.125,0,0,1,1.04.164,1.109,1.109,0,0,1,.474.943,1.088,1.088,0,0,1-.811,1.106A6.031,6.031,0,0,1,152.177,326.388Zm0-11.525a5.565,5.565,0,0,0,0,11.129,5.653,5.653,0,0,0,1.683-.255.7.7,0,0,0,.536-.729.723.723,0,0,0-.309-.622.735.735,0,0,0-.689-.108,4,4,0,0,1-1.221.189,4.013,4.013,0,1,1,0-8.026,3.792,3.792,0,0,1,1.225.2.722.722,0,0,0,.684-.119.713.713,0,0,0,.31-.611v-.053a.687.687,0,0,0-.537-.729h0A5.415,5.415,0,0,0,152.177,314.863Z" transform="translate(-146.217 -314.468)" fill="#fff"/>
      </g>
    </g>
    <g id="Grupo_52" data-name="Grupo 52" transform="translate(20.951 4.327)">
      <g id="Grupo_51" data-name="Grupo 51">
        <path id="Trazado_135" data-name="Trazado 135" d="M169.141,316.5a5.55,5.55,0,0,1,1.689,4.073v4.8a.9.9,0,0,1-.285.675.923.923,0,0,1-.675.285h-.032a.922.922,0,0,1-.675-.285.9.9,0,0,1-.285-.675v-.486a5.76,5.76,0,1,1,.264-8.39Zm-6.775,1.382a3.815,3.815,0,1,0,5.393,0,3.81,3.81,0,0,0-5.393,0Z" transform="translate(-159.107 -314.61)" fill="#fff"/>
        <path id="Trazado_136" data-name="Trazado 136" d="M169.728,326.388a1.139,1.139,0,0,1-.848-.343,1.092,1.092,0,0,1-.343-.815v-.065a5.954,5.954,0,1,1,2.348-4.737v4.8a1.1,1.1,0,0,1-.346.818A1.114,1.114,0,0,1,169.728,326.388Zm-.795-2.083v.925a.7.7,0,0,0,.224.532.729.729,0,0,0,.538.23.745.745,0,0,0,.567-.228.7.7,0,0,0,.227-.535v-4.8A5.578,5.578,0,1,0,168.6,324.6Zm-4.008.131a4.012,4.012,0,0,1-2.843-6.839h0a4.012,4.012,0,1,1,2.842,6.839Zm-2.562-6.559a3.617,3.617,0,1,0,5.113,0,3.611,3.611,0,0,0-5.113,0Z" transform="translate(-158.966 -314.468)" fill="#fff"/>
      </g>
    </g>
    <g id="Grupo_54" data-name="Grupo 54" transform="translate(39.365 0.011)">
      <g id="Grupo_53" data-name="Grupo 53">
        <path id="Trazado_137" data-name="Trazado 137" d="M192.078,309.709a1.155,1.155,0,1,1,.813-1.973,1.134,1.134,0,0,1,0,1.636A1.108,1.108,0,0,1,192.078,309.709Zm.01,2.006a.9.9,0,0,1,.676.285.935.935,0,0,1,.285.686v9.594a.973.973,0,0,1-.961.96h-.021a.935.935,0,0,1-.686-.285.9.9,0,0,1-.285-.675v-9.594a.973.973,0,0,1,.971-.97Z" transform="translate(-190.719 -307.2)" fill="#fff"/>
        <path id="Trazado_138" data-name="Trazado 138" d="M191.946,323.295a1.143,1.143,0,0,1-.847-.343,1.092,1.092,0,0,1-.343-.815v-9.594a1.171,1.171,0,0,1,1.169-1.168h.021a1.1,1.1,0,0,1,.818.345,1.128,1.128,0,0,1,.341.823v9.594a1.172,1.172,0,0,1-1.159,1.158Zm-.021-11.525a.775.775,0,0,0-.773.773v9.594a.7.7,0,0,0,.224.532.74.74,0,0,0,.549.23.718.718,0,0,0,.554-.225.708.708,0,0,0,.229-.538v-9.594a.739.739,0,0,0-.227-.546.708.708,0,0,0-.535-.227Zm.01-2a1.353,1.353,0,1,1,0-2.707,1.3,1.3,0,0,1,.952.4,1.285,1.285,0,0,1,.407.952,1.369,1.369,0,0,1-1.359,1.359Zm0-2.311a.921.921,0,0,0-.683.28.911.911,0,0,0-.28.673.958.958,0,0,0,1.636.683.908.908,0,0,0,.29-.683.894.894,0,0,0-.288-.67A.91.91,0,0,0,191.936,307.454Z" transform="translate(-190.577 -307.058)" fill="#fff"/>
      </g>
    </g>
    <g id="Grupo_56" data-name="Grupo 56" transform="translate(33.126 4.327)">
      <g id="Grupo_55" data-name="Grupo 55">
        <path id="Trazado_139" data-name="Trazado 139" d="M185.145,314.808a.935.935,0,0,1,.686.285.954.954,0,0,1,.274.686v.022a.917.917,0,0,1-.274.675.936.936,0,0,1-.686.285h-.6a2.3,2.3,0,0,0-1.689.7,2.354,2.354,0,0,0-.7,1.688v6.227a.9.9,0,0,1-.285.675.923.923,0,0,1-.675.285h-.032a.922.922,0,0,1-.675-.285.9.9,0,0,1-.285-.675v-6.227a4.3,4.3,0,0,1,1.266-3.071,4.182,4.182,0,0,1,3.072-1.266Z" transform="translate(-180.008 -314.61)" fill="#fff"/>
        <path id="Trazado_140" data-name="Trazado 140" d="M181.056,326.388a1.139,1.139,0,0,1-.848-.343,1.092,1.092,0,0,1-.342-.815V319a4.5,4.5,0,0,1,1.323-3.21,4.393,4.393,0,0,1,3.212-1.326h.6a1.128,1.128,0,0,1,.825.343,1.149,1.149,0,0,1,.333.825,1.154,1.154,0,0,1-1.158,1.18h-.6a2.091,2.091,0,0,0-1.549.639,2.144,2.144,0,0,0-.638,1.55v6.225a1.1,1.1,0,0,1-.346.818A1.114,1.114,0,0,1,181.056,326.388Zm3.345-11.525a4.008,4.008,0,0,0-2.931,1.209,4.119,4.119,0,0,0-1.209,2.933v6.225a.7.7,0,0,0,.224.532.729.729,0,0,0,.538.23.747.747,0,0,0,.567-.228.7.7,0,0,0,.227-.535V319a2.556,2.556,0,0,1,.754-1.827,2.5,2.5,0,0,1,1.83-.755h.6a.738.738,0,0,0,.546-.227.722.722,0,0,0,.217-.535.774.774,0,0,0-.219-.57.738.738,0,0,0-.543-.224Z" transform="translate(-179.866 -314.468)" fill="#fff"/>
      </g>
    </g>
  </g>
</svg>
