<svg id="puntellare" xmlns="http://www.w3.org/2000/svg" width="54.428" height="57.813" viewBox="0 0 54.428 57.813">
  <g id="Grupo_63" data-name="Grupo 63" transform="translate(0 0)">
    <g id="Grupo_62" data-name="Grupo 62">
      <path id="Trazado_157" data-name="Trazado 157" d="M439.5,158.58a.278.278,0,0,0,.121-.028l1.371-.664a.279.279,0,0,0-.243-.5l-1.371.664a.279.279,0,0,0,.122.529Z" transform="translate(-397.52 -156.717)" fill="azure"/>
      <path id="Trazado_158" data-name="Trazado 158" d="M428.867,163.931a.275.275,0,0,0,.121-.028l1.242-.6a.279.279,0,1,0-.243-.5l-1.242.6a.279.279,0,0,0,.122.529Z" transform="translate(-389.443 -160.829)" fill="azure"/>
      <path id="Trazado_159" data-name="Trazado 159" d="M410.522,170.573a.278.278,0,0,0,.121-.028l2.711-1.314a.279.279,0,0,0-.243-.5l-2.711,1.314a.279.279,0,0,0,.122.529Z" transform="translate(-375.51 -165.333)" fill="azure"/>
      <path id="Trazado_160" data-name="Trazado 160" d="M390.277,178.265a.277.277,0,0,0,.121-.028l4.1-1.984a.278.278,0,1,0-.243-.5l-4.1,1.984a.279.279,0,0,0,.122.529Z" transform="translate(-360.133 -170.666)" fill="azure"/>
      <path id="Trazado_161" data-name="Trazado 161" d="M421.8,180.531a.275.275,0,0,0,.078-.011l1.7-.494a.279.279,0,0,0-.156-.535l-1.7.494a.279.279,0,0,0,.078.546Z" transform="translate(-384.073 -173.519)" fill="azure"/>
      <path id="Trazado_162" data-name="Trazado 162" d="M406.2,183.6l-2.673.777a.279.279,0,0,0,.078.546.282.282,0,0,0,.078-.011l2.674-.777a.279.279,0,1,0-.156-.535Z" transform="translate(-370.258 -176.641)" fill="azure"/>
      <path id="Trazado_163" data-name="Trazado 163" d="M390.276,189.115a.277.277,0,0,0,.078-.011l2.329-.677a.279.279,0,1,0-.156-.535l-2.329.677a.279.279,0,0,0,.078.546Z" transform="translate(-360.132 -179.9)" fill="azure"/>
      <path id="Trazado_164" data-name="Trazado 164" d="M394.65,196.026a.278.278,0,0,0-.3-.251l-4.1.4a.279.279,0,0,0,.027.556h.027l4.1-.4A.279.279,0,0,0,394.65,196.026Z" transform="translate(-360.133 -185.895)" fill="azure"/>
      <path id="Trazado_165" data-name="Trazado 165" d="M410.246,194.943a.278.278,0,0,0,.277.252h.027l2.71-.262a.279.279,0,1,0-.054-.554l-2.71.262A.279.279,0,0,0,410.246,194.943Z" transform="translate(-375.51 -184.834)" fill="azure"/>
      <path id="Trazado_166" data-name="Trazado 166" d="M430.082,193.2l-1.243.12a.279.279,0,0,0,.026.556h.027l1.243-.12a.279.279,0,0,0-.054-.555Z" transform="translate(-389.443 -183.936)" fill="azure"/>
      <path id="Trazado_167" data-name="Trazado 167" d="M440.849,192.117l-1.37.132a.279.279,0,0,0,.026.556h.027l1.37-.132a.279.279,0,0,0-.054-.555Z" transform="translate(-397.524 -183.117)" fill="azure"/>
      <path id="Trazado_168" data-name="Trazado 168" d="M423.5,207.93a.279.279,0,0,0,.027-.556l-1.7-.166a.279.279,0,0,0-.054.555l1.7.165Z" transform="translate(-384.073 -194.579)" fill="azure"/>
      <path id="Trazado_169" data-name="Trazado 169" d="M403.59,205.992l2.672.26h.027a.278.278,0,0,0,.027-.556l-2.671-.261a.279.279,0,0,0-.054.555Z" transform="translate(-370.265 -193.234)" fill="azure"/>
      <path id="Trazado_170" data-name="Trazado 170" d="M390.3,204.136a.279.279,0,0,0-.054.555l2.329.227h.027a.279.279,0,0,0,.026-.556Z" transform="translate(-360.133 -192.246)" fill="azure"/>
      <path id="Trazado_171" data-name="Trazado 171" d="M410.448,217.311l2.709.79a.283.283,0,0,0,.078.011.279.279,0,0,0,.078-.546l-2.709-.79a.279.279,0,1,0-.156.535Z" transform="translate(-375.512 -201.839)" fill="azure"/>
      <path id="Trazado_172" data-name="Trazado 172" d="M428.779,222.655l1.244.363a.284.284,0,0,0,.078.011.279.279,0,0,0,.078-.546l-1.244-.363a.279.279,0,0,0-.156.535Z" transform="translate(-389.436 -205.899)" fill="azure"/>
      <path id="Trazado_173" data-name="Trazado 173" d="M440.949,225.621l-1.371-.4a.279.279,0,0,0-.156.535l1.372.4a.284.284,0,0,0,.078.011.279.279,0,0,0,.078-.546Z" transform="translate(-397.52 -208.254)" fill="azure"/>
      <path id="Trazado_174" data-name="Trazado 174" d="M267.56,158.05l-1.372-.664a.279.279,0,1,0-.243.5l1.372.664a.279.279,0,0,0,.243-.5Z" transform="translate(-265.788 -156.716)" fill="azure"/>
      <path id="Trazado_175" data-name="Trazado 175" d="M277.116,163.3l1.242.6a.273.273,0,0,0,.121.028.279.279,0,0,0,.122-.529l-1.242-.6a.279.279,0,1,0-.243.5Z" transform="translate(-274.273 -160.828)" fill="azure"/>
      <path id="Trazado_176" data-name="Trazado 176" d="M289.354,169.231l2.711,1.314a.279.279,0,1,0,.243-.5l-2.711-1.314a.279.279,0,0,0-.243.5Z" transform="translate(-283.568 -165.332)" fill="azure"/>
      <path id="Trazado_177" data-name="Trazado 177" d="M303.841,176.252l4.1,1.984a.279.279,0,1,0,.243-.5l-4.1-1.984a.278.278,0,1,0-.243.5Z" transform="translate(-294.572 -170.666)" fill="azure"/>
      <path id="Trazado_178" data-name="Trazado 178" d="M284.1,180.531a.279.279,0,0,0,.077-.546l-1.7-.494a.279.279,0,0,0-.156.535l1.7.494A.275.275,0,0,0,284.1,180.531Z" transform="translate(-278.196 -173.518)" fill="azure"/>
      <path id="Trazado_179" data-name="Trazado 179" d="M299.139,184.913a.282.282,0,0,0,.078.011.279.279,0,0,0,.078-.546l-2.674-.777a.279.279,0,0,0-.156.535Z" transform="translate(-288.936 -176.641)" fill="azure"/>
      <path id="Trazado_180" data-name="Trazado 180" d="M313.559,189.1a.273.273,0,0,0,.078.011.279.279,0,0,0,.078-.546l-2.329-.677a.279.279,0,1,0-.156.535Z" transform="translate(-300.151 -179.9)" fill="azure"/>
      <path id="Trazado_181" data-name="Trazado 181" d="M308.084,196.17l-4.1-.4a.279.279,0,0,0-.054.555l4.1.4h.027a.279.279,0,0,0,.026-.556Z" transform="translate(-294.572 -185.895)" fill="azure"/>
      <path id="Trazado_182" data-name="Trazado 182" d="M292.186,195.194a.279.279,0,0,0,.026-.556l-2.71-.262a.279.279,0,1,0-.054.554l2.71.262Z" transform="translate(-283.568 -184.833)" fill="azure"/>
      <path id="Trazado_183" data-name="Trazado 183" d="M277.207,193.75l1.243.12h.027a.279.279,0,0,0,.026-.556l-1.243-.12a.279.279,0,0,0-.054.555Z" transform="translate(-274.27 -183.936)" fill="azure"/>
      <path id="Trazado_184" data-name="Trazado 184" d="M266.039,192.672l1.37.132h.027a.279.279,0,0,0,.026-.556l-1.37-.132a.279.279,0,0,0-.054.555Z" transform="translate(-265.788 -183.117)" fill="azure"/>
      <path id="Trazado_185" data-name="Trazado 185" d="M282.376,207.374a.279.279,0,0,0,.027.556h.027l1.7-.165a.279.279,0,0,0-.054-.555Z" transform="translate(-278.196 -194.579)" fill="azure"/>
      <path id="Trazado_186" data-name="Trazado 186" d="M296.543,206.253h.027l2.671-.26a.279.279,0,0,0-.054-.555l-2.671.261a.278.278,0,0,0,.027.556Z" transform="translate(-288.936 -193.234)" fill="azure"/>
      <path id="Trazado_187" data-name="Trazado 187" d="M313.609,204.136l-2.329.227a.279.279,0,0,0,.027.556h.027l2.329-.227a.279.279,0,1,0-.054-.555Z" transform="translate(-300.151 -192.246)" fill="azure"/>
      <path id="Trazado_188" data-name="Trazado 188" d="M303.963,212.613a.293.293,0,0,0,.078-.011l4.095-1.194a.279.279,0,1,0-.156-.535l-4.095,1.193a.279.279,0,0,0,.078.546Z" transform="translate(-294.572 -197.356)" fill="azure"/>
      <path id="Trazado_189" data-name="Trazado 189" d="M292.454,216.965a.279.279,0,0,0-.346-.189l-2.709.79a.279.279,0,0,0,.078.546.283.283,0,0,0,.078-.011l2.709-.79A.279.279,0,0,0,292.454,216.965Z" transform="translate(-283.57 -201.839)" fill="azure"/>
      <path id="Trazado_190" data-name="Trazado 190" d="M278.4,222.12l-1.244.363a.279.279,0,0,0,.078.546.284.284,0,0,0,.078-.011l1.244-.363a.279.279,0,0,0-.156-.535Z" transform="translate(-274.272 -205.899)" fill="azure"/>
      <path id="Trazado_191" data-name="Trazado 191" d="M267.36,225.221l-1.371.4a.279.279,0,0,0,.078.546.285.285,0,0,0,.078-.011l1.371-.4a.279.279,0,1,0-.156-.535Z" transform="translate(-265.788 -208.254)" fill="azure"/>
      <path id="Trazado_192" data-name="Trazado 192" d="M343.87,190.071a1.113,1.113,0,0,0-1.371-.778l-2.508.689c.015-.028.03-.057.043-.087a1.114,1.114,0,0,0-.566-1.466,1.781,1.781,0,0,0,.76-.613,22.8,22.8,0,0,1,2.624-3.113,1.114,1.114,0,1,0-1.529-1.622,24.386,24.386,0,0,0-2.74,3.2l-5.226-1.345-.02-.005a2.771,2.771,0,0,0,.425-.984,3.543,3.543,0,0,0-.578-2.96,1.316,1.316,0,0,0-.245-.2,1.022,1.022,0,0,0-.556-.166h-.023a1.073,1.073,0,0,0-.114.006,3.264,3.264,0,0,0-1.419.512,1.767,1.767,0,0,0-.878.124l-.07.031a10.755,10.755,0,0,0-2.177,1.039,10.671,10.671,0,0,0-2.652-1.35,8.909,8.909,0,0,0-.359-3.811A10.473,10.473,0,0,0,321.751,173a.462.462,0,0,0-.175-.163c-.491-.453-.9-.786-1.111-.95a6.694,6.694,0,0,0-.238-2.944l3.415,1a.291.291,0,0,0,.078.011.279.279,0,0,0,.078-.546l-3.834-1.117a5.535,5.535,0,0,0-2.348-2.466v-3.946h.959a.371.371,0,0,0,.371-.371v-1.33a27.033,27.033,0,0,0-.027-.136.352.352,0,0,0-.037-.061.378.378,0,0,0-.04-.059.363.363,0,0,0-.07-.051.339.339,0,0,0-.042-.031l-6.547-3.012a1.251,1.251,0,1,0-1.776,0l-6.546,3.012a.354.354,0,0,0-.042.031.367.367,0,0,0-.07.051,1.492,1.492,0,0,0-.076.119.362.362,0,0,0-.017.083.353.353,0,0,0-.011.053v1.33a.372.372,0,0,0,.371.371h.958v7.591c-.031.026-.064.049-.1.075-1.272,1.107-3.057,3.473-1.211,7.118-3.638,1.183-6.687,3.473-6.687,8.116,0,6.187,5.824,8.807,10.076,10.721a16.267,16.267,0,0,1,3.559,1.9c-.017.4-.029.812-.029,1.226,0,.013,0,.025,0,.037-.358.242-.658.43-.86.538a3.493,3.493,0,0,0-1.691,1.694,1.546,1.546,0,0,0-.287-.026,2.216,2.216,0,0,0-.881.216,2.2,2.2,0,0,1-.994.214,6.617,6.617,0,0,1-2.645-.65,4.5,4.5,0,0,0-.867-.3,6.2,6.2,0,0,0-1.142-.13,2.143,2.143,0,0,0-1.452.46,1.61,1.61,0,0,0-.535,1.333,5.873,5.873,0,0,0,1.625,3.133,6.791,6.791,0,0,0,5.1,2.168c2.824,0,4.216-.444,4.9-.912a10.589,10.589,0,0,0,4.96-1.813,10.068,10.068,0,0,0,2.341.27,11.72,11.72,0,0,0,2.559-.29,1.693,1.693,0,0,0,1.132.46,3.277,3.277,0,0,0,.866-.118c.01.179.023.353.038.511a6.765,6.765,0,0,0-.475,1.671,5.552,5.552,0,0,1-.566,1.828,13.108,13.108,0,0,0-.911,1.617,1.413,1.413,0,0,0,1.978,1.8A12.542,12.542,0,0,0,325,210.4q.225-.223.418-.448a5.143,5.143,0,0,0,.814-1.162,6.348,6.348,0,0,0,.677-1.778,8.315,8.315,0,0,0,2.68-1.931,8.158,8.158,0,0,0,2.228-1.52,4.265,4.265,0,0,0,1.433-2.541,12.878,12.878,0,0,1-.082,2.384c-.02.219-.034.372-.038.475a1.737,1.737,0,0,0,1.252,1.694,1.517,1.517,0,0,0,.387.05,1.912,1.912,0,0,0,1.687-1.234c.671-1.3.541-3.7.455-4.669a5.559,5.559,0,0,0,.2-1.547,5.354,5.354,0,0,0-1.821-4.021,1.708,1.708,0,0,0-.08-.736,9,9,0,0,0-1.39-2.631c2.893.738,5.864,4.637,6.85,6.234a1.114,1.114,0,0,0,1.9-1.166,24.291,24.291,0,0,0-2.7-3.525l.036-.01,3.189-.875a1.114,1.114,0,0,0,.779-1.37Zm-1.025.475-3.19.876a1.787,1.787,0,0,1-1.649-.376l-2.41-2.095h-.156a8.007,8.007,0,0,0-1.02.064.291.291,0,0,0-.041.569c3.919,1.163,7.226,6.481,7.393,6.754a.186.186,0,1,1-.317.194c-.045-.073-4.228-6.8-8.565-6.8a4.014,4.014,0,0,0-1.021.13l-.048.013a2.135,2.135,0,0,0-.211.075,7.2,7.2,0,0,1,2.714,3.762.781.781,0,0,1,0,.507.55.55,0,0,1-.074.092.731.731,0,0,1-.147.112c-.027.017-.056.028-.084.043l-.1.039-.362.14-.353.137.378-.023.387-.024.109-.007c.041-.006.084-.009.126-.019a1.125,1.125,0,0,0,.218-.073,4.5,4.5,0,0,1,1.759,3.536,4.354,4.354,0,0,1-.212,1.446c0,.006,0,.02,0,.029-.105.113-.231.238-.363.358-.206.189-.422.37-.588.5s-.282.214-.282.214.137-.04.338-.113.468-.176.733-.291c.07-.03.139-.062.207-.094a8.823,8.823,0,0,1-.385,3.739c-.309.6-.635.731-.862.731a.585.585,0,0,1-.15-.02.812.812,0,0,1-.562-.758c0-.082.017-.233.035-.429.071-.777.258-2.839-.118-3.139a5,5,0,0,1-.64-.537c0-.015,0-.028,0-.044,0-.161,0-.343,0-.542s-.008-.411-.013-.636-.02-.463-.033-.708-.039-.5-.059-.755-.057-.517-.091-.776-.075-.518-.126-.77-.1-.5-.156-.74-.118-.467-.189-.681-.14-.414-.207-.6-.143-.347-.22-.487a3.315,3.315,0,0,0-.2-.357,2.05,2.05,0,0,0-.153-.214l-.056-.074.048.08a2.023,2.023,0,0,1,.127.228,3.294,3.294,0,0,1,.159.372c.06.144.1.315.161.5s.1.387.136.6.074.445.109.681.056.483.07.735.028.506.038.76.007.51,0,.761-.008.5-.025.736-.024.469-.045.687-.033.425-.057.612c-.019.17-.037.326-.053.468l-.057,0c-.111.007-.272.013-.464.011a4.977,4.977,0,0,1-1.391-.2,2.359,2.359,0,0,1-.667-.322,1.51,1.51,0,0,1-.256-.227,1.343,1.343,0,0,1-.181-.251,1.277,1.277,0,0,1-.108-.244,1.546,1.546,0,0,1-.054-.2c-.019-.115-.026-.182-.026-.182s0,.067-.006.186a1.684,1.684,0,0,0,.019.215,1.371,1.371,0,0,0,.069.275,1.453,1.453,0,0,0,.149.307,1.709,1.709,0,0,0,.239.3,2.65,2.65,0,0,0,.678.486,5.458,5.458,0,0,0,1.471.478c.182.034.337.056.456.07a3.294,3.294,0,0,1-1.173,2.505,8.354,8.354,0,0,1-1.713,1.239.373.373,0,0,0-.217.008l-.055.02a.2.2,0,0,0-.043.019.182.182,0,0,1-.053.021,1.039,1.039,0,0,1-.387.032,2.659,2.659,0,0,1-.439-.079l-.2-.056.144.156a2.875,2.875,0,0,0,.359.324c.04.03.083.059.127.086a7.259,7.259,0,0,1-2.052,1.469,4.09,4.09,0,0,0-.248-.957c-.073-.2.326-.919.689-1.335.937-1.076,1.089-1.872,1.371-3.728.06-.4.119-.766.172-1.085a.446.446,0,0,0,.023-.079c.005-.058.013-.116.019-.174.087-.516.147-.853.154-.889.071-.32.15-.607.212-.837a4,4,0,0,0,.121-.507,9.254,9.254,0,0,0,.048-2.844.48.48,0,0,0-.019-.08.012.012,0,0,0,0,0s0-.035,0-.1-.01-.155-.021-.271c-.022-.23-.06-.555-.13-.94a11.178,11.178,0,0,0-.844-2.718c-.111-.234-.227-.465-.357-.683s-.264-.429-.4-.626-.287-.378-.433-.543a5.879,5.879,0,0,0-.432-.443c-.137-.134-.277-.24-.395-.34s-.233-.172-.324-.235l-.293-.187.269.218c.082.073.18.164.291.268s.228.23.346.376a5.838,5.838,0,0,1,.368.476c.122.175.241.365.354.567s.22.416.315.639.184.453.263.685a10.541,10.541,0,0,1,.5,2.641c.024.365.024.669.02.879,0,.1-.006.187-.009.241l-.006.08v.008a.436.436,0,0,0,.027.185c0,.012,0,.023,0,.034a8.439,8.439,0,0,1-.05,2.61c-.007.049-.053.219-.094.37-.054.2-.124.458-.193.75l-.018,0-.079.023-.059.023c-.041.015-.078.033-.119.051-.158.072-.33.162-.512.263-.091.051-.183.1-.277.161s-.187.114-.286.185l-.019.013,0,0h0l.015-.008h0l-.008.005-.013.008a.019.019,0,0,1,.01,0c.007,0-.013.007-.026.008a.444.444,0,0,1-.123-.011,1.693,1.693,0,0,1-.277-.088,4.928,4.928,0,0,1-.491-.235c-.284-.154-.464-.274-.464-.274s.152.154.4.365a5.026,5.026,0,0,0,.449.342,1.943,1.943,0,0,0,.292.163.76.76,0,0,0,.189.057.4.4,0,0,0,.134,0,.419.419,0,0,0,.049-.014l.023-.008.01,0h0l.018-.01,0,0,.016-.007c.086-.039.187-.076.284-.111s.195-.068.289-.1c.166-.053.321-.1.457-.131q-.035.206-.061.42c-.062.371-.136.827-.212,1.327-.277,1.819-.39,2.382-1.153,3.258a4.051,4.051,0,0,0-.9,1.7,2.107,2.107,0,0,0-.214.029c-.026.005-.077.018-.123.032a.975.975,0,0,0-.119.046,1.656,1.656,0,0,0-.206.115,3.652,3.652,0,0,0-.6.526c-.146.154-.237.261-.237.261s.12-.074.3-.176a3.426,3.426,0,0,1,.681-.3,1.213,1.213,0,0,1,.18-.037.486.486,0,0,1,.078,0l.073.005a.83.83,0,0,1,.148.038c.03.01.053.022.079.033l0,.008.005.009c0,.005,0,.011.005.016a3.638,3.638,0,0,1-.3,3.109,6.187,6.187,0,0,1-.454.625c-.075.086-.149.172-.235.258a.37.37,0,0,0-.029.043c-.063.068-.127.135-.195.2a12.617,12.617,0,0,1-2.011,1.775.486.486,0,0,1-.678-.618,12.3,12.3,0,0,1,.832-1.471,6.162,6.162,0,0,0,.7-2.162,4.586,4.586,0,0,1,.517-1.643c-.03-.28-.063-.657-.074-1.029a.461.461,0,0,0,.051-.208,4.86,4.86,0,0,1,.425-1.345,6,6,0,0,0,.58-2.072,8.9,8.9,0,0,0-.1-1.059,9.973,9.973,0,0,1-.12-1.49s0,0,0,0c.009-.115.031-.395.061-.77l.067-.848.018-.236,0-.06c0-.036,0-.044,0-.067l0-.119c.008-.159.018-.322.034-.483a7.635,7.635,0,0,1,.144-.941,4.02,4.02,0,0,1,.255-.788,2.122,2.122,0,0,1,.157-.292,1.61,1.61,0,0,1,.152-.207,1.21,1.21,0,0,1,.118-.12l.043-.041-.049.033a1.227,1.227,0,0,0-.137.1,1.662,1.662,0,0,0-.193.185,2.235,2.235,0,0,0-.216.273,4.25,4.25,0,0,0-.409.77,7.918,7.918,0,0,0-.321.947c-.046.164-.086.329-.124.493l-.027.122a.5.5,0,0,1-.013.053l-.015.058-.06.23-.214.826-.188.727a.476.476,0,0,0-.017.064l0,.015a.514.514,0,0,0-.013.08.461.461,0,0,0,.01.128,11.816,11.816,0,0,0,.126,1.485,8.433,8.433,0,0,1,.092.939,5.576,5.576,0,0,1-.512,1.723,9.031,9.031,0,0,0-.422,1.191,2.453,2.453,0,0,1-.977.212c-.819,0-1.455-1.625-1.812-2.821,2.807-2.821,3.511-7.354,3.626-8.258a.467.467,0,0,0,.021-.2l0-.019a.464.464,0,0,0-.009-.072c0-.031-.008-.067-.014-.113-.007-.065-.019-.143-.036-.232s-.032-.19-.06-.3a5.816,5.816,0,0,0-.214-.72c-.049-.127-.1-.259-.159-.388s-.122-.259-.19-.385-.141-.25-.216-.368-.153-.232-.233-.338a5.432,5.432,0,0,0-.465-.551,4.914,4.914,0,0,0-.367-.346l-.146-.122.117.149a4.823,4.823,0,0,1,.281.408,5.167,5.167,0,0,1,.327.611c.053.114.1.234.148.358s.088.25.125.377.07.255.1.382.048.252.067.372a5.112,5.112,0,0,1,.051.661c0,.1,0,.184,0,.261s-.006.145-.012.2l-.01.111c0,.005,0,.009,0,.014a16.744,16.744,0,0,1-2.167,6.318,2.1,2.1,0,0,1-1.551.1l-.034-.025-.038-.017a2.564,2.564,0,0,1-1.09-.906s-.006-.006-.007-.009l-.055-.086c-.023-.035-.039-.065-.064-.107s-.052-.094-.082-.151a8.71,8.71,0,0,1-.388-.905c-.127-.341-.24-.689-.312-.954-.037-.132-.061-.244-.076-.322s-.018-.125-.018-.125-.008.045-.014.126-.01.2-.007.337c0,.279.026.65.065,1.022a9.208,9.208,0,0,0,.159,1.03c.017.072.029.135.049.2s.035.123.047.159l.04.12a.22.22,0,0,0,.075.12,3.446,3.446,0,0,0,1.341,1.115,1.752,1.752,0,0,0,.954.228,3.247,3.247,0,0,0,.342-.021c-.055.068-.113.134-.17.2l0-.012c-1.621,1.609-5.695,5.277-9.146,5.277-.026,0-.051,0-.076,0a1.448,1.448,0,0,1-.2-.115l-.115-.08-.114-.1a2.866,2.866,0,0,1-.228-.23c-.073-.086-.148-.173-.214-.269a4.442,4.442,0,0,1-.362-.587,4.68,4.68,0,0,1-.247-.559,3.785,3.785,0,0,1-.132-.416l-.04-.162.008.167a3.848,3.848,0,0,0,.051.441,4.9,4.9,0,0,0,.141.617,4.756,4.756,0,0,0,.26.688c.051.116.114.227.176.338a3.368,3.368,0,0,0,.21.314l.115.145c.041.045.084.088.125.131.008.009.018.015.026.024a10.236,10.236,0,0,1-4.031.562,5.833,5.833,0,0,1-5.793-4.422.684.684,0,0,1,.219-.583,1.288,1.288,0,0,1,.841-.231,5.3,5.3,0,0,1,.968.114,4,4,0,0,1,.681.248,7.517,7.517,0,0,0,3.006.723,3.1,3.1,0,0,0,1.354-.287,1.372,1.372,0,0,1,.52-.144c.265,0,.536.161.987.649,0-.073,0-.142,0-.2v-.132a2.2,2.2,0,0,1,1.428-2.091c1.015-.544,4.935-3.32,6.29-5.537a1.231,1.231,0,0,1-.155-.526,1.992,1.992,0,0,1,.55-1.336,5.317,5.317,0,0,1-.849-.963c-.451-.636-1.656-.644-1.668-.644h-.171l.544-.836c.963-.35,1.942-.75,2.928-1.205,3.882-1.792,6.285-4.075,7.14-6.787.029-.092.053-.182.077-.272a8.366,8.366,0,0,1,2.34,1.22.752.752,0,0,1,.206.55,9.882,9.882,0,0,1,2.34-1.337c-.475.5.028,1.716.264,2.138.071.128.445.753.912.753h.036a4.82,4.82,0,0,1-1.212.359,7.175,7.175,0,0,0-.807.208,1.467,1.467,0,0,1,.8.32.623.623,0,0,1,.2.463.512.512,0,0,1-.037.192l.007,0,.668.615a9.158,9.158,0,0,1,1.93-1.478.852.852,0,0,1,.412-.106.875.875,0,0,1,.218.028l5.515,1.42a.494.494,0,0,0,.524-.19,23.984,23.984,0,0,1,2.8-3.312.186.186,0,0,1,.255.271,23.544,23.544,0,0,0-2.747,3.255.866.866,0,0,1-.92.336l-5.515-1.42a.5.5,0,0,0-.126-.016.48.48,0,0,0-.232.059A9.192,9.192,0,0,0,330.4,188.1l-.005.006a.46.46,0,0,0,.113.712.421.421,0,0,0,.207.055.411.411,0,0,0,.267-.1,6.277,6.277,0,0,1,2.351-1.211,1.81,1.81,0,0,1,.489-.067,1.786,1.786,0,0,1,1.174.44l.73.635a9.86,9.86,0,0,1,3.363.706.186.186,0,0,1-.075.356.188.188,0,0,1-.074-.015,9.706,9.706,0,0,0-2.74-.634l2.052,1.783a1.418,1.418,0,0,0,1.307.3l3.189-.876a.184.184,0,0,1,.049-.007.186.186,0,0,1,.049.365Zm-10.765-8.191a6.391,6.391,0,0,1-.086,1.354,4.23,4.23,0,0,1-.234.626c-.153.357-.2.477-.134.593l.013.018-.267.026a1.137,1.137,0,0,0,.121-.22,3.634,3.634,0,0,0,.072-2.048.95.95,0,0,0-.477-.618,3.073,3.073,0,0,1,1.068-.5A1.756,1.756,0,0,0,332.08,182.355ZM308.728,168.35l5.838-5.838v5.073A20.96,20.96,0,0,1,308.728,168.35Zm-.7-.352v-1.924l2.286-2.286a.371.371,0,0,0-.525-.525l-1.761,1.761v-3.152h6.126Zm-2.66,2.1a4.117,4.117,0,0,1,2.68-1c5.8-.038,8.061-1.125,8.932-2.03a2.2,2.2,0,0,0,.392-.541,4.783,4.783,0,0,1,2.087,2.418.46.46,0,0,0-.179.178l-.009.016-.04.072c-.02.038-.066.108-.121.2s-.131.192-.226.308-.2.245-.325.385-.266.283-.426.426l-.246.221c-.087.073-.179.142-.272.216-.181.152-.39.281-.595.424s-.433.259-.654.386c-.23.109-.457.231-.689.331s-.465.192-.693.273l-.667.212c-.214.06-.421.1-.61.15a5.024,5.024,0,0,1-.522.109l-.407.066-.356.057.359-.018.414-.02a5.071,5.071,0,0,0,.535-.051c.2-.026.41-.046.633-.083l.7-.14c.242-.057.488-.132.741-.2s.5-.175.753-.264c.245-.107.494-.211.731-.329s.471-.24.682-.381c.108-.068.216-.132.318-.2l.294-.21c.192-.136.361-.282.519-.415s.3-.266.412-.39c.087-.085.158-.166.224-.241a5.86,5.86,0,0,1,0,1.7l-.1.177a3.748,3.748,0,0,1-.341.458,9.085,9.085,0,0,1-6.531,2.9l-.363.025c-1.124.077-2.452.168-3.847.34a28.6,28.6,0,0,0-4,.753,7.885,7.885,0,0,1-.012-.9,6.832,6.832,0,0,1,.217-1.448,5.455,5.455,0,0,1,.27-.78,4.771,4.771,0,0,1,.411-.745c.078-.12.17-.23.257-.342s.185-.218.292-.31a3.289,3.289,0,0,1,.318-.277c.055-.043.109-.087.164-.127l.172-.112a3.087,3.087,0,0,1,.347-.2,2.992,2.992,0,0,1,.349-.165l.171-.074.171-.059c.113-.036.221-.08.328-.105.215-.053.411-.11.59-.134s.334-.062.463-.071l.408-.042-.41.01c-.131,0-.288.018-.47.035s-.385.052-.608.089c-.112.018-.224.053-.343.081l-.181.047-.182.062a3.221,3.221,0,0,0-.375.143,3.334,3.334,0,0,0-.379.183l-.19.1c-.062.038-.122.08-.184.121a3.487,3.487,0,0,0-.361.268c-.123.09-.225.205-.34.309s-.212.226-.307.348a5.139,5.139,0,0,0-.509.773,5.908,5.908,0,0,0-.358.822,7.31,7.31,0,0,0-.349,1.493A4.587,4.587,0,0,1,305.369,170.1Zm11.506-4.373a.353.353,0,0,0-.1.257c0,.013-.065.69-1.469,1.319v-5.43h1.567ZM305.714,159.8l4.147-1.908-2.074,1.908Zm5.243-2.413.155-.071V159.8h-2.776Zm.526-.071.155.071,2.622,2.413h-2.776Zm3.325,2.484-2.074-1.908,4.147,1.908Zm-3.51-4.366a.508.508,0,1,1-.508.508A.509.509,0,0,1,311.3,155.433Zm-6.908,5.108h13.816v.587H304.389Zm2.9,1.33v.034l-1.567,1.567v-1.6Zm-1.567,4.673,1.112-1.112a.372.372,0,0,0-.525-.525l-.586.586v-.97l1.567-1.567v5.47a4.871,4.871,0,0,0-1.567.535Zm5.837,30.6c0-.01,0-.019,0-.028v-.02a.485.485,0,0,0,0-.078c-.011-.223-.041-.817-.075-1.491-.009-.185-.019-.377-.029-.568-.024-.538-.041-1.076-.044-1.48s.013-.673.013-.673-.076.26-.157.658-.183.931-.275,1.464c-.084.506-.168,1.01-.233,1.4a23.03,23.03,0,0,0-3.312-1.687,29.464,29.464,0,0,1-5.968-3.28l-.089-.1-.179-.2-.2-.258a6.169,6.169,0,0,1-.484-.779c-.085-.157-.157-.334-.241-.517-.066-.19-.154-.385-.208-.6a6.334,6.334,0,0,1-.258-1.41,6.1,6.1,0,0,1,.076-1.606,6.888,6.888,0,0,1,.506-1.654,7.176,7.176,0,0,1,.964-1.519,7.56,7.56,0,0,1,1.319-1.249l.366-.265c.125-.082.254-.158.38-.236.248-.165.518-.285.772-.423s.526-.234.781-.347c.264-.094.521-.19.773-.275l.748-.217.711-.162c.227-.057.451-.081.661-.12s.41-.074.6-.091c.379-.039.708-.09.982-.1l.86-.055-.862.015c-.275,0-.606.036-.989.057-.192.008-.393.039-.607.063s-.44.044-.671.09l-.726.13-.768.185c-.261.075-.527.161-.8.244-.266.1-.543.2-.816.318s-.552.241-.816.4c-.134.075-.271.148-.405.227l-.393.258a7.981,7.981,0,0,0-1.449,1.252A7.677,7.677,0,0,0,299.9,184a7.488,7.488,0,0,0-.634,1.774,6.765,6.765,0,0,0-.165,1.763,7.08,7.08,0,0,0,.214,1.581c.007.033.018.064.026.1a7.41,7.41,0,0,1-1.431-4.443c0-7.557,9.112-8.179,14.557-8.55l.363-.025c4.418-.3,6.567-2.443,7.306-3.384.213.176.5.424.826.724l.015.049c.04.131.1.321.158.564a7.78,7.78,0,0,1,.243,2.036,6.693,6.693,0,0,1-.681,2.808,8.17,8.17,0,0,1-.883,1.41c-.171.229-.365.443-.557.661s-.4.422-.624.616a13.911,13.911,0,0,1-1.366,1.1c-.478.332-.962.643-1.444.918s-.966.525-1.421.753-.9.429-1.31.609c-.819.362-1.515.634-2.005.815s-.774.276-.774.276.288-.08.787-.238,1.209-.4,2.048-.719c.419-.161.871-.345,1.344-.548s.964-.428,1.47-.69,1.011-.547,1.516-.863a14.363,14.363,0,0,0,1.462-1.068c.239-.189.457-.4.681-.61s.428-.434.621-.668a8.788,8.788,0,0,0,1.02-1.467,7.416,7.416,0,0,0,.9-3.063,8.187,8.187,0,0,0-.039-1.506,7.57,7.57,0,0,1,1.676,2.731c.473,1.675,1.914,6.772-6.552,10.679a35.417,35.417,0,0,1-4.176,1.628h0l-.016.006-.388.134-.446.155c-.172.063-.368.125-.583.188l-.694.21-.783.2c-.271.076-.557.126-.845.192s-.584.111-.88.165-.594.085-.887.129-.584.06-.865.083-.554.036-.813.035-.5,0-.73,0-.433-.021-.617-.037-.343-.035-.474-.055c-.262-.038-.41-.075-.41-.075s.143.05.4.114c.129.032.287.067.47.1s.39.067.617.1.474.057.736.075.539.029.826.043.584.006.885,0,.609-.014.914-.044.613-.041.912-.082.6-.063.881-.113l.821-.132.73-.147c.227-.044.434-.088.615-.135l.472-.114.107-.026.166-.04a14.536,14.536,0,0,0-.352,6.28c-.447.373-.9.722-1.314,1.033C311.532,197.708,311.542,197.425,311.557,197.147Zm5.36,6.694a27.7,27.7,0,0,0,2.347-1.906,8.514,8.514,0,0,0,.793,1.813A10.119,10.119,0,0,1,316.916,203.841Z" transform="translate(-289.482 -154.69)" fill="azure"/>
    </g>
  </g>
</svg>
