<svg id="stargas" xmlns="http://www.w3.org/2000/svg" width="108.96" height="24.542" viewBox="0 0 108.96 24.542">
  <path id="Trazado_214" data-name="Trazado 214" d="M178.312,941.337l2.161-2.683H169.448c-.509,0-.6.189-.957.609-.749.9-1.736,2.084-1.736,2.084l4.035-.01-4.008,10.672h3.459l4-10.672Z" transform="translate(-133.206 -931.689)" fill="#fff"/>
  <path id="Trazado_215" data-name="Trazado 215" d="M150.042,937.669l-7.312-2.024.873,4.516,5.408,1.248-.092,5.407,2.492-6.6a1.943,1.943,0,0,0-1.33-2.54Z" transform="translate(-130.364 -931.333)" fill="#fff"/>
  <path id="Trazado_216" data-name="Trazado 216" d="M138.657,938.572l2.855-4.76,5.114,1.763-5.5-4.409a1.942,1.942,0,0,0-2.831.486.219.219,0,0,1-.019.026l-4.188,6.329Z" transform="translate(-129.342 -930.754)" fill="#fff"/>
  <path id="Trazado_217" data-name="Trazado 217" d="M129.14,940.565a1.953,1.953,0,0,1,.419-2.839l5.893-3.869-3.256,4.322,3.644,4.185-1.951,4.169-4.722-5.937Z" transform="translate(-128.705 -931.122)" fill="#fff"/>
  <path id="Trazado_218" data-name="Trazado 218" d="M134.858,952.559a1.946,1.946,0,0,1-2.583-1.267l-1.859-6.805,3.1,4.43,5.109-2.168,3.363,3.145-7.106,2.657Z" transform="translate(-128.908 -932.379)" fill="#fff"/>
  <path id="Trazado_219" data-name="Trazado 219" d="M147.739,950.442a2.006,2.006,0,0,1-.581,1.516,1.934,1.934,0,0,1-1.42.549l-7.047-.334,5.172-1.582-.483-5.527,4.028-2.226.332,7.577Z" transform="translate(-129.886 -932.184)" fill="#fff"/>
  <path id="Trazado_220" data-name="Trazado 220" d="M151.453,955.34l-1.214,1.74-.455-1.74-.438,0-.623,2.8h.437l.417-1.877.381,1.367.321,0,.969-1.36-.417,1.873h.435l.624-2.8Z" transform="translate(-131.073 -933.662)" fill="#fff"/>
  <path id="Trazado_221" data-name="Trazado 221" d="M153.749,955.345l-1.68,2.8h.467l.321-.562H154l.071.563h.465l-.436-2.8Zm-.68,1.88.727-1.244.156,1.247Z" transform="translate(-131.469 -933.664)" fill="#fff"/>
  <path id="Trazado_222" data-name="Trazado 222" d="M157.765,955.35l-2.027,0-.083.384h.793l-.538,2.418.435,0,.542-2.42h.794Z" transform="translate(-131.893 -933.663)" fill="#fff"/>
  <path id="Trazado_223" data-name="Trazado 223" d="M160.288,955.733l.082-.38-1.844,0-.621,2.8,1.844,0,.085-.381H158.43l.185-.846h1.2l.086-.374-1.2,0,.182-.815Z" transform="translate(-132.159 -933.664)" fill="#fff"/>
  <path id="Trazado_224" data-name="Trazado 224" d="M162.421,955.354H161.3l-.623,2.8h.436l.265-1.182h.548l.343,1.182h.512l-.391-1.242a1.078,1.078,0,0,0,.477-.259.951.951,0,0,0,.265-.482.644.644,0,0,0-.113-.59.754.754,0,0,0-.6-.228m.274.824a.525.525,0,0,1-.205.323.651.651,0,0,1-.382.115h-.652l.2-.88h.65a.425.425,0,0,1,.33.116.352.352,0,0,1,.063.325" transform="translate(-132.487 -933.664)" fill="#fff"/>
  <path id="Trazado_225" data-name="Trazado 225" d="M164.313,955.357l-.627,2.8h.441l.62-2.8Z" transform="translate(-132.843 -933.665)" fill="#fff"/>
  <path id="Trazado_226" data-name="Trazado 226" d="M166.33,955.359l-1.681,2.8h.465l.327-.563,1.139,0,.071.563h.463l-.432-2.8Zm-.682,1.882.727-1.247.159,1.247Z" transform="translate(-132.957 -933.665)" fill="#fff"/>
  <path id="Trazado_227" data-name="Trazado 227" d="M168.975,955.362h-.44l-.623,2.8h1.827l.087-.379-1.39,0Z" transform="translate(-133.343 -933.665)" fill="#fff"/>
  <path id="Trazado_228" data-name="Trazado 228" d="M172.556,955.832a.683.683,0,0,1,.416-.123,1.011,1.011,0,0,1,.334.05.533.533,0,0,1,.244.164l.339-.265a1.043,1.043,0,0,0-.822-.319,1.237,1.237,0,0,0-.757.226.97.97,0,0,0-.392.594.577.577,0,0,0,.085.527.8.8,0,0,0,.5.231l.331.048a.735.735,0,0,1,.188.042.432.432,0,0,1,.126.1.314.314,0,0,1,.027.265.489.489,0,0,1-.229.317.875.875,0,0,1-.463.11,1.125,1.125,0,0,1-.394-.061.636.636,0,0,1-.284-.206l-.354.277a.885.885,0,0,0,.381.288,1.639,1.639,0,0,0,.559.083,1.412,1.412,0,0,0,.8-.219.923.923,0,0,0,.42-.6.575.575,0,0,0-.049-.516.819.819,0,0,0-.25-.189,1.121,1.121,0,0,0-.3-.077l-.315-.048a.5.5,0,0,1-.3-.128.265.265,0,0,1-.053-.261.5.5,0,0,1,.208-.312" transform="translate(-133.762 -933.663)" fill="#fff"/>
  <path id="Trazado_229" data-name="Trazado 229" d="M176.187,957.2a.758.758,0,0,1-.259.442.725.725,0,0,1-.472.162.464.464,0,0,1-.4-.164.514.514,0,0,1-.063-.441l.406-1.835h-.437l-.411,1.855a.752.752,0,0,0,.136.7.861.861,0,0,0,.682.271,1.289,1.289,0,0,0,.8-.269,1.174,1.174,0,0,0,.449-.7l.411-1.852H176.6Z" transform="translate(-134.125 -933.666)" fill="#fff"/>
  <path id="Trazado_230" data-name="Trazado 230" d="M179.188,955.372h-1.1l-.618,2.8h.436l.242-1.1h.659a1.139,1.139,0,0,0,.722-.239,1.022,1.022,0,0,0,.389-.608.67.67,0,0,0-.116-.613.777.777,0,0,0-.617-.237m.3.85a.553.553,0,0,1-.213.339.657.657,0,0,1-.4.123h-.631l.207-.931h.636a.427.427,0,0,1,.34.125.351.351,0,0,1,.063.342" transform="translate(-134.474 -933.667)" fill="#fff"/>
  <path id="Trazado_231" data-name="Trazado 231" d="M182.078,955.376h-1.1l-.621,2.8h.437l.247-1.1h.654a1.133,1.133,0,0,0,.722-.239,1.045,1.045,0,0,0,.391-.608.666.666,0,0,0-.116-.609.758.758,0,0,0-.618-.24m.3.849a.546.546,0,0,1-.215.339.651.651,0,0,1-.4.123h-.632l.21-.931h.629a.437.437,0,0,1,.344.124.362.362,0,0,1,.063.345" transform="translate(-134.816 -933.667)" fill="#fff"/>
  <path id="Trazado_232" data-name="Trazado 232" d="M184.312,955.378h-.435l-.625,2.8,1.83,0,.084-.381-1.391,0Z" transform="translate(-135.158 -933.667)" fill="#fff"/>
  <path id="Trazado_233" data-name="Trazado 233" d="M185.889,958.181h.441l.62-2.8h-.437Z" transform="translate(-135.47 -933.668)" fill="#fff"/>
  <path id="Trazado_234" data-name="Trazado 234" d="M189.625,955.764l.081-.38-1.841,0-.625,2.8,1.847,0,.087-.382-1.411,0,.189-.843h1.2l.085-.376h-1.2l.18-.818Z" transform="translate(-135.629 -933.668)" fill="#fff"/>
  <path id="Trazado_235" data-name="Trazado 235" d="M192.354,955.613a.74.74,0,0,0-.6-.227l-1.121,0-.62,2.8h.433l.265-1.181h.552l.343,1.182h.51l-.392-1.241a1.059,1.059,0,0,0,.478-.258.958.958,0,0,0,.267-.483.658.658,0,0,0-.116-.591m-.326.6a.517.517,0,0,1-.2.321.624.624,0,0,1-.38.117h-.651l.2-.88.648,0a.424.424,0,0,1,.329.117.338.338,0,0,1,.06.322" transform="translate(-135.958 -933.668)" fill="#fff"/>
  <path id="Trazado_236" data-name="Trazado 236" d="M193.927,955.855a.679.679,0,0,1,.414-.122,1.067,1.067,0,0,1,.336.048.533.533,0,0,1,.242.166l.339-.266a1.046,1.046,0,0,0-.824-.319,1.246,1.246,0,0,0-.754.226.964.964,0,0,0-.391.6.56.56,0,0,0,.086.526.779.779,0,0,0,.5.23l.332.049a.672.672,0,0,1,.185.042.428.428,0,0,1,.131.1.294.294,0,0,1,.023.266.481.481,0,0,1-.227.315.842.842,0,0,1-.46.113,1.145,1.145,0,0,1-.4-.062.643.643,0,0,1-.284-.208l-.354.279a.868.868,0,0,0,.384.287,1.586,1.586,0,0,0,.555.085,1.417,1.417,0,0,0,.8-.219.947.947,0,0,0,.421-.6c.052-.249.038-.42-.052-.515a.821.821,0,0,0-.248-.19,1.252,1.252,0,0,0-.3-.078l-.318-.047a.51.51,0,0,1-.3-.127.286.286,0,0,1-.055-.263.543.543,0,0,1,.212-.312" transform="translate(-136.29 -933.666)" fill="#fff"/>
  <path id="Trazado_237" data-name="Trazado 237" d="M251.407,937.34a1.552,1.552,0,1,0,.459,1.1,1.5,1.5,0,0,0-.459-1.1m-.215,2a1.252,1.252,0,0,1-1.771,0,1.253,1.253,0,0,1-.361-.9,1.238,1.238,0,0,1,.362-.9,1.257,1.257,0,0,1,1.77,0,1.314,1.314,0,0,1,0,1.8" transform="translate(-142.906 -931.48)" fill="#fff"/>
  <path id="Trazado_238" data-name="Trazado 238" d="M250.986,938.5a.458.458,0,0,0,.091-.288.5.5,0,0,0-.151-.369.551.551,0,0,0-.391-.147H249.9v1.682h.311v-.667h.214l.345.667.347,0-.376-.71a.528.528,0,0,0,.242-.168m-.489-.036h-.283v-.5h.283a.273.273,0,0,1,.2.069.235.235,0,0,1,.076.183.245.245,0,0,1-.076.181.285.285,0,0,1-.2.071" transform="translate(-143.042 -931.576)" fill="#fff"/>
  <path id="Trazado_239" data-name="Trazado 239" d="M154.844,945.849c1.383.5,2.776.994,4.148,1.516a.81.81,0,0,1,.316,1.42,1.978,1.978,0,0,1-1.24.542c-1.525.027-1.964,0-2.791,0-1.935,0-3.172,0-3.862.863-.635.8-1.434,1.807-1.434,1.807H158.3c2.433,0,3.518-.754,4.512-3.121.982-2.348.562-3.508-1.554-4.267-1.145-.411-2.289-.808-3.432-1.219-.532-.189-1.088-.393-.818-1.176a1.35,1.35,0,0,1,1.537-.882c.15,0,.3,0,.455,0,.871,0,.664,0,2.139.006,1.6,0,2.812.012,3.571-.98l1.358-1.707h-8.446c-1.847,0-2.963.943-3.751,2.756a8.205,8.205,0,0,0-.509,1.587c-.319,1.561.112,2.354,1.482,2.853" transform="translate(-131.222 -931.689)" fill="#fff"/>
  <path id="Trazado_240" data-name="Trazado 240" d="M230.548,941.408A8.1,8.1,0,0,0,230.04,943c-.319,1.561.111,2.353,1.482,2.853s2.776.994,4.148,1.516a.811.811,0,0,1,.316,1.42,1.983,1.983,0,0,1-1.241.543c-1.248.021-4.1.009-5.546,0-.046-2.7-.123-6.8-.179-9.268-.016-.766-.374-1.371-1.183-1.371-2.821-.078-2.713-.19-4.137,1.628-1.993,2.44-5.467,6.711-7.622,9.361.128-.306.248-.613.368-.918.452-1.159.895-2.324,1.355-3.529h-3.358c-.4,1.029-.811,2.047-1.195,3.075a1.418,1.418,0,0,1-1.447,1.041c-.776,0-1.589-.005-2.4,0-1.219,0-1.717-.914-1.354-2.179a22.011,22.011,0,0,1,1.51-3.805,3.527,3.527,0,0,1,3.287-2.027c1.052,0,2.4,0,2.493,0a2.3,2.3,0,0,0,1.934-.923c.217-.279.364-.51.546-.739.021-.028.044-.053.063-.076a2.6,2.6,0,0,1,1.666-.945h-8.274a5.377,5.377,0,0,0-4.069,2.465,13.776,13.776,0,0,0-2.716,6.818c-.26,2.6.658,4.044,3.154,4.06,1.58.009,3.145.012,4.729.01l0,0h5.557l2.332-3.047,5.655,0c.009,1.024-.023,2.034-.017,3.042h3.341c1.823,0,4.2,0,5.739,0,2.434,0,3.517-.761,4.512-3.129.981-2.347.562-3.508-1.555-4.267-1.144-.411-2.288-.808-3.431-1.219-.532-.189-1.09-.393-.819-1.177a1.348,1.348,0,0,1,1.536-.881c.152,0,.3,0,.456,0,.872,0,.665,0,2.141.006,1.593,0,2.809.012,3.57-.98l1.355-1.707H234.3c-1.847,0-2.963.943-3.752,2.756m-8.335,4.95c1.259-1.577,3.774-4.84,3.844-4.833.012,1.487.026,3.286.04,4.833Z" transform="translate(-137.665 -931.689)" fill="#fff"/>
  <path id="Trazado_241" data-name="Trazado 241" d="M220.319,939.563c-.218.286-.364.525-.545.758-.02.027-.045.053-.064.076a2.591,2.591,0,0,1-1.537.939h1.348a2.027,2.027,0,0,0,1.815-.9c.218-.287.364-.525.546-.759.022-.026.044-.055.064-.078a2.567,2.567,0,0,1,1.256-.83l.019-.106h-1.086a2.03,2.03,0,0,0-1.815.9" transform="translate(-139.289 -931.689)" fill="#fff"/>
  <path id="Trazado_242" data-name="Trazado 242" d="M196.2,947.516a4.142,4.142,0,0,0,3.488-1.862,8.625,8.625,0,0,0,1.581-4.552c.041-1.553-.444-2.435-1.95-2.435-2.556,0-5.13-.012-7.688-.012a2.807,2.807,0,0,0-2.5,1.805c-.832,2.2-2.162,5.74-3.129,8.322-.048-2.683-.117-6.42-.17-8.72-.013-.766-.371-1.371-1.182-1.371-2.821-.078-2.711-.19-4.137,1.628-3.034,3.717-9.517,11.691-9.517,11.691h3.744l2.334-3.047,5.657,0c.007,1.024-.025,2.034-.019,3.042l5.536,0,3.635-9.7a1.488,1.488,0,0,1,1.588-.972c.988-.009,1.559,0,2.5,0,2.271-.094,1.887.732,1.238,2.243a4.161,4.161,0,0,1-.285.493,1.87,1.87,0,0,1-.868.8l-.013.005a1.744,1.744,0,0,1-.7.159c-.623-.01-1.479-.01-2.1-.01a.277.277,0,0,0-.039,0,.268.268,0,0,0-.04,0h-.048a1.822,1.822,0,0,0-1.738,1.819,1.923,1.923,0,0,0,.145.715l.042.086c.032.063.066.125.1.184.044.075.093.164.151.259.974,1.64,3.971,6.7,3.971,6.7h3.838s-4.05-6.5-4.509-7.275c.47,0,.77.012,1.073,0m-17.172-1.158c1.261-1.577,3.775-4.84,3.845-4.833.013,1.487.027,3.286.041,4.833-1.284,0-2.517,0-3.886,0" transform="translate(-133.709 -931.689)" fill="#fff"/>
</svg>
