<svg id="sticky" xmlns="http://www.w3.org/2000/svg" width="52.264" height="52.264" viewBox="0 0 52.264 52.264">
  <circle id="Elipse_14" data-name="Elipse 14" cx="26.132" cy="26.132" r="26.132" transform="translate(0 0)" fill="#fff"/>
  <path id="Trazado_439" data-name="Trazado 439" d="M329.816,392.983a10,10,0,0,1-2.758-2.144l2.107-2.31a8.58,8.58,0,0,0,1.96,1.313,3.435,3.435,0,0,0,1.478.346,2.113,2.113,0,0,0,1.1-.253.713.713,0,0,0,.422-.591.52.52,0,0,0-.405-.49,3.03,3.03,0,0,0-1.047-.152,5.114,5.114,0,0,1-2.305-.523,4.352,4.352,0,0,1-1.689-1.444,3.564,3.564,0,0,1-.633-2.069,3.637,3.637,0,0,1,.659-2.128,4.511,4.511,0,0,1,1.773-1.486,5.5,5.5,0,0,1,2.432-.54,6.847,6.847,0,0,1,2.6.515,10.159,10.159,0,0,1,2.882,1.6,3.282,3.282,0,0,0-1.09,2.973,7.083,7.083,0,0,0-4.476-1.681,2.469,2.469,0,0,0-1.081.22q-.456.22-.456.523,0,.321.541.481a4.534,4.534,0,0,0,1.283.16,6.508,6.508,0,0,1,2.415.422,3.718,3.718,0,0,1,1.672,1.25,3.3,3.3,0,0,1,.608,2.01,4.042,4.042,0,0,1-.718,2.322,5.01,5.01,0,0,1-1.917,1.663,5.67,5.67,0,0,1-2.6.608A6.8,6.8,0,0,1,329.816,392.983Z" transform="translate(-324.518 -364.707)" fill="#343a77"/>
  <path id="Trazado_440" data-name="Trazado 440" d="M379.108,274.811a1.815,1.815,0,0,1-.728,1.081,4.31,4.31,0,0,1-1.707.971,3.019,3.019,0,0,1-2.395-.031,3.489,3.489,0,0,1-1.488-2.134,12.462,12.462,0,0,1-.315-1.229l-.375-1.894-6.387,2.091a23.657,23.657,0,0,1,2.657-3.607l3.217-1.121-.323-1.615a23.739,23.739,0,0,1,2.619-1.815l.512,2.475,1.763-.612,1.146,2.482-2.375.778.308,1.477q.061.3.1.422a1.905,1.905,0,0,0,.564.92.763.763,0,0,0,.753.157,1.436,1.436,0,0,0,.64-.4,25.848,25.848,0,0,0,1.81-2.542Z" transform="translate(-359.832 -259.644)" fill="#343a77"/>
  <path id="Trazado_441" data-name="Trazado 441" d="M586.661,244.092a6.034,6.034,0,0,1-2.119-2.183,5.8,5.8,0,0,1-.784-2.935,5.692,5.692,0,0,1,2.787-4.938,5.429,5.429,0,0,1,2.829-.763,6.184,6.184,0,0,1,2.7.636,5.833,5.833,0,0,1,2.151,1.717,3.764,3.764,0,0,1,.827,2.331l-3.561.318a1.9,1.9,0,0,0-.689-.986,1.82,1.82,0,0,0-1.113-.371,2.158,2.158,0,0,0-1.515.625,1.913,1.913,0,0,0-.668,1.431,1.939,1.939,0,0,0,.318,1.039,2.529,2.529,0,0,0,.837.827,2.023,2.023,0,0,0,1.07.318,1.92,1.92,0,0,0,1.049-.318,1.8,1.8,0,0,0,.71-.805l3.518.339a3.61,3.61,0,0,1-.795,2.215,6.063,6.063,0,0,1-4.673,2.321A5.428,5.428,0,0,1,586.661,244.092Z" transform="translate(-559.03 -230.195)" fill="#343a77"/>
  <path id="Trazado_442" data-name="Trazado 442" d="M592.536,363.084l-3.512-5.5-.017,3.628-3.246.035V347.923a9.22,9.22,0,0,0,3.281,2.408l-.017,4.682,2.876-4.545c1.887-.052,2.769-.5,4.985-2.233l-4.944,7.976,3.471,5.034Z" transform="translate(-560.86 -334.936)" fill="#343a77"/>
  <g id="Grupo_154" data-name="Grupo 154" transform="translate(32.821 5.067)">
    <path id="Trazado_443" data-name="Trazado 443" d="M677.388,272.567c.583-.991,1.164-1.974,1.748-2.96a7.575,7.575,0,0,0,1.259,1.178,3.862,3.862,0,0,0,1,.528,1.459,1.459,0,0,0,1.389-.278c-.32-3.494-1.455-14.743-1.455-14.743a25.769,25.769,0,0,1,3.733,2.35s.266,6.584.331,8.447c.959-1.563,3.073-5.25,3.073-5.25a23.964,23.964,0,0,1,2.243,3.019s-2.723,4.467-3.979,6.417a7.171,7.171,0,0,1-2.97,2.953C680.967,275.919,677.388,272.567,677.388,272.567Z" transform="translate(-677.388 -256.293)" fill="#343a77"/>
  </g>
  <path id="Trazado_444" data-name="Trazado 444" d="M362.357,543.527a6.868,6.868,0,0,1-2.978.326l.047-3.678a4.272,4.272,0,0,0,1.726-.146,3.734,3.734,0,0,0,1.451-.786,2.3,2.3,0,0,0,.709-1,.775.775,0,0,0-.084-.786.566.566,0,0,0-.683-.105,3.292,3.292,0,0,0-.961.633,5.56,5.56,0,0,1-2.252,1.24,4.732,4.732,0,0,1-2.416.047,3.875,3.875,0,0,1-2.01-1.224,3.955,3.955,0,0,1-1-2.205,4.906,4.906,0,0,1,.367-2.489,5.981,5.981,0,0,1,1.586-2.2,7.445,7.445,0,0,1,2.486-1.461,22.092,22.092,0,0,1,5.018-.838l.5,3.223c-1.421.133-3.76.137-5.6,1.909a2.961,2.961,0,0,0-.72.959q-.212.508.008.755t.787,0a4.924,4.924,0,0,0,1.159-.8,7.078,7.078,0,0,1,2.268-1.4,4.045,4.045,0,0,1,2.262-.193,3.59,3.59,0,0,1,1.946,1.194,4.4,4.4,0,0,1,1.095,2.406,5.449,5.449,0,0,1-.356,2.737,6.165,6.165,0,0,1-1.674,2.373A7.4,7.4,0,0,1,362.357,543.527Z" transform="translate(-349.012 -500.23)" fill="#343a77"/>
  <g id="Grupo_156" data-name="Grupo 156" transform="translate(13.8 2.974)">
    <path id="Trazado_445" data-name="Trazado 445" d="M469.92,460.125l-3.894.739,1.557,9.012a4.42,4.42,0,0,1,2.31,2.357l1.694-.322Z" transform="translate(-465.274 -440.413)" fill="#343a77"/>
    <g id="Grupo_155" data-name="Grupo 155" transform="translate(0)">
      <path id="Trazado_446" data-name="Trazado 446" d="M531.767,304.381h3.216V283.346H531.5Z" transform="translate(-525.089 -278.914)" fill="#343a77"/>
      <path id="Trazado_447" data-name="Trazado 447" d="M530.613,235.611a1.892,1.892,0,0,0,.941.258,1.743,1.743,0,0,0,1.333-.575,2.06,2.06,0,0,0,.533-1.458,1.719,1.719,0,0,0-.492-1.283,1.763,1.763,0,0,0-1.291-.483,2.137,2.137,0,0,0-1.458.533,1.7,1.7,0,0,0-.608,1.333,1.744,1.744,0,0,0,.292.966A2.124,2.124,0,0,0,530.613,235.611Z" transform="translate(-523.328 -232.07)" fill="#343a77"/>
      <path id="Trazado_448" data-name="Trazado 448" d="M460.836,408.094a2.042,2.042,0,0,0-1.544-.25,2.476,2.476,0,0,0-1.521.888,1.854,1.854,0,0,0-.406,1.576,1.885,1.885,0,0,0,.525.987,2.389,2.389,0,0,0,.984.609,2.2,2.2,0,0,0,1.106.08,2.012,2.012,0,0,0,1.372-.907,2.237,2.237,0,0,0,.3-1.7A1.869,1.869,0,0,0,460.836,408.094Z" transform="translate(-457.329 -392.606)" fill="#343a77"/>
    </g>
  </g>
  <path id="Trazado_449" data-name="Trazado 449" d="M543.943,519.521a9.717,9.717,0,0,0-.646-1.682,4.406,4.406,0,0,0-.814-1.13,2.423,2.423,0,0,0-.853-.579.552.552,0,0,0-.615.056q-.359.366.665,1.37a5.607,5.607,0,0,1,1.75,2.868,2.625,2.625,0,0,1-.76,2.441,3.367,3.367,0,0,1-1.918.974,4.816,4.816,0,0,1-2.357-.232,5.794,5.794,0,0,1-2.193-1.378,5.981,5.981,0,0,1-1.49-2.167,15.752,15.752,0,0,1-.5-5.2l3.153-.035a8.936,8.936,0,0,0,.347,3.962,3.433,3.433,0,0,0,.756,1.073,2.435,2.435,0,0,0,.918.6q.465.155.681-.064a.364.364,0,0,0,.039-.45,3.179,3.179,0,0,0-.615-.748,2.442,2.442,0,0,1-.277-.244,4.233,4.233,0,0,1-1.059-1.686,3.941,3.941,0,0,1-.177-1.911,2.793,2.793,0,0,1,2.471-2.4,4.565,4.565,0,0,1,2.14.249,5.224,5.224,0,0,1,1.96,1.221,6.486,6.486,0,0,1,1.373,2.009,7.654,7.654,0,0,1,.638,2.465Z" transform="translate(-513.739 -485.673)" fill="#343a77"/>
  <path id="Trazado_450" data-name="Trazado 450" d="M618.691,616.281a6.13,6.13,0,0,1,2.993,3.552q.166.432.232.667l-7.256,2.88a3.226,3.226,0,0,0,1.12.857,1.7,1.7,0,0,0,1.225.085,2.611,2.611,0,0,0,2.017-1.884l3.268-.286a4.241,4.241,0,0,1-.362,2.135,5.765,5.765,0,0,1-1.36,1.9,6.168,6.168,0,0,1-2.027,1.274,3.389,3.389,0,0,1-.42.137,5.626,5.626,0,0,1-2.981.081,6.372,6.372,0,0,1-2.745-1.427,6.575,6.575,0,0,1-1.832-2.651,4.346,4.346,0,0,1-.161-.481,4.956,4.956,0,0,1-.1-2.749,5.458,5.458,0,0,1,1.336-2.426,6.529,6.529,0,0,1,2.478-1.636A5.6,5.6,0,0,1,618.691,616.281Zm-4.974,4.579,3.487-1.315a1.492,1.492,0,0,0-.84-.741,1.733,1.733,0,0,0-1.058-.019A2.008,2.008,0,0,0,613.716,620.859Z" transform="translate(-583.147 -579.667)" fill="#343a77"/>
  <path id="Trazado_451" data-name="Trazado 451" d="M675.356,488.551a3.483,3.483,0,0,1,1.434.13l.565,3.089a1.712,1.712,0,0,0-1.625.214,1.687,1.687,0,0,0-.828,1.429,4.589,4.589,0,0,0,.845,2.236l5.888,8.775a27.984,27.984,0,0,1-2.43,2.562l-9.863-14.6,2.842-1.943.48.7a3.764,3.764,0,0,1,.548-1.215,3.461,3.461,0,0,1,.906-.922A2.767,2.767,0,0,1,675.356,488.551Z" transform="translate(-637.217 -463.386)" fill="#343a77"/>
  <path id="Trazado_452" data-name="Trazado 452" d="M764.939,443.652a8.925,8.925,0,0,0-1.583-.957,3.689,3.689,0,0,0-1.345-.336,2.046,2.046,0,0,0-1.011.179.645.645,0,0,0-.418.546q-.025.611,1.392.668a4.841,4.841,0,0,1,3.18,1.108,3.363,3.363,0,0,1,1.044,2.758,4.579,4.579,0,0,1-.777,2.4,5.062,5.062,0,0,1-1.894,1.7,4.925,4.925,0,0,1-2.527.558,5.709,5.709,0,0,1-2.527-.7,5.016,5.016,0,0,1-1.858-1.678l2.158-2.7a3.482,3.482,0,0,0,1.081.839,3.094,3.094,0,0,0,1.264.333,2.065,2.065,0,0,0,1.073-.213.735.735,0,0,0,.461-.6.424.424,0,0,0-.267-.427,2.638,2.638,0,0,0-.947-.161,2,2,0,0,1-.365.01,3.618,3.618,0,0,1-1.891-.627,4.2,4.2,0,0,1-1.388-1.536,3.881,3.881,0,0,1-.465-2.025,3.816,3.816,0,0,1,.713-2.074,4.755,4.755,0,0,1,1.745-1.507,4.444,4.444,0,0,1,2.252-.508,5.474,5.474,0,0,1,2.336.658A7.451,7.451,0,0,1,766.466,441Z" transform="translate(-716.944 -417.855)" fill="#343a77"/>
  <path id="Trazado_453" data-name="Trazado 453" d="M510.777,636.157a3.9,3.9,0,0,1-.958,1.79,4.85,4.85,0,0,1-1.886,1.149,3.4,3.4,0,0,1-2.693.045,3.923,3.923,0,0,1-1.744-2.349,14.022,14.022,0,0,1-.4-1.371l-.485-2.116-1.392.5-1.128-2.741,1.856-.709-.5-2.151,2.183-.915.9-.376.542,2.275,1.961-.748,1.372,2.752-2.644.954.4,1.65q.079.33.13.471a2.144,2.144,0,0,0,.665,1.015.858.858,0,0,0,.851.151,1.617,1.617,0,0,0,.706-.474,3.136,3.136,0,0,0,.492-.955Z" transform="translate(-482.598 -589.813)" fill="#343a77"/>
</svg>
