<svg xmlns="http://www.w3.org/2000/svg" width="53.264" height="53.264" viewBox="0 0 53.264 53.264">
  <g id="sticky" transform="translate(0.5 0.5)">
    <path id="Sustracción_4" data-name="Sustracción 4" d="M-5900.993-1743.666a25.972,25.972,0,0,1-10.172-2.053,26.044,26.044,0,0,1-8.306-5.6,26.052,26.052,0,0,1-5.6-8.306,25.974,25.974,0,0,1-2.053-10.171,25.978,25.978,0,0,1,2.053-10.172,26.046,26.046,0,0,1,5.6-8.307,26.047,26.047,0,0,1,8.306-5.6,25.97,25.97,0,0,1,10.172-2.054,25.973,25.973,0,0,1,10.172,2.054,26.045,26.045,0,0,1,8.306,5.6,26.053,26.053,0,0,1,5.6,8.307,25.978,25.978,0,0,1,2.053,10.172,25.974,25.974,0,0,1-2.053,10.171,26.055,26.055,0,0,1-5.6,8.306,26.042,26.042,0,0,1-8.306,5.6A25.975,25.975,0,0,1-5900.993-1743.666Zm-6.114-8.772h0l.484,2.114a13.814,13.814,0,0,0,.4,1.371,3.945,3.945,0,0,0,1.744,2.35,2.624,2.624,0,0,0,1.16.256,4.565,4.565,0,0,0,1.532-.3,4.884,4.884,0,0,0,1.888-1.148,3.907,3.907,0,0,0,.957-1.791l-1.771-2.149a3.2,3.2,0,0,1-.492.955,1.62,1.62,0,0,1-.707.473.861.861,0,0,1-.3.055.919.919,0,0,1-.555-.2,2.153,2.153,0,0,1-.665-1.015c-.034-.094-.078-.253-.131-.471l-.4-1.65,2.644-.955-1.372-2.752-1.96.748-.543-2.276-.9.376-2.184.915.5,2.151-1.855.709,1.128,2.742,1.391-.5Zm13.42-7.349a6.929,6.929,0,0,0-2.465.5,6.559,6.559,0,0,0-2.478,1.636,5.486,5.486,0,0,0-1.336,2.428,4.975,4.975,0,0,0,.1,2.749,4.425,4.425,0,0,0,.161.482,6.634,6.634,0,0,0,1.833,2.651,6.422,6.422,0,0,0,2.745,1.427,5.843,5.843,0,0,0,1.352.162,5.628,5.628,0,0,0,1.629-.244,3.48,3.48,0,0,0,.419-.137,6.2,6.2,0,0,0,2.027-1.275,5.81,5.81,0,0,0,1.36-1.9,4.281,4.281,0,0,0,.361-2.135l-3.268.286a2.621,2.621,0,0,1-2.017,1.885,1.7,1.7,0,0,1-.5.078,1.768,1.768,0,0,1-.725-.162,3.245,3.245,0,0,1-1.12-.857l7.256-2.88c-.047-.165-.127-.4-.232-.666a6.155,6.155,0,0,0-2.993-3.552A4.836,4.836,0,0,0-5893.686-1759.787Zm-23.025,3.8-.046,3.679a6.244,6.244,0,0,0,.747.045,7.237,7.237,0,0,0,2.231-.372,7.441,7.441,0,0,0,2.67-1.5,6.184,6.184,0,0,0,1.673-2.374,5.475,5.475,0,0,0,.357-2.737,4.416,4.416,0,0,0-1.095-2.405,3.6,3.6,0,0,0-1.947-1.193,3.732,3.732,0,0,0-.784-.083,4.315,4.315,0,0,0-1.477.275,7.122,7.122,0,0,0-2.269,1.4,4.922,4.922,0,0,1-1.159.8,1.157,1.157,0,0,1-.474.13.4.4,0,0,1-.313-.13c-.145-.164-.147-.419-.007-.756a2.944,2.944,0,0,1,.72-.959,7.738,7.738,0,0,1,5.144-1.87c.163-.013.315-.025.459-.039l-.5-3.223c-.043,0-.095,0-.157,0a23.32,23.32,0,0,0-4.861.843,7.461,7.461,0,0,0-2.485,1.461,6,6,0,0,0-1.586,2.2,4.941,4.941,0,0,0-.367,2.49,3.957,3.957,0,0,0,1,2.2,3.894,3.894,0,0,0,2.01,1.223,4.588,4.588,0,0,0,1.1.135,5,5,0,0,0,1.312-.181,5.579,5.579,0,0,0,2.251-1.241,3.276,3.276,0,0,1,.961-.632.868.868,0,0,1,.308-.065.487.487,0,0,1,.376.169.779.779,0,0,1,.083.785,2.318,2.318,0,0,1-.708,1,3.76,3.76,0,0,1-1.452.787,4.324,4.324,0,0,1-1.215.176,4.407,4.407,0,0,1-.51-.03Zm24.555-12.892h0l-2.841,1.943,9.862,14.6a28.013,28.013,0,0,0,2.431-2.561l-5.889-8.775a4.617,4.617,0,0,1-.845-2.237,1.689,1.689,0,0,1,.829-1.428,1.752,1.752,0,0,1,1-.328,1.861,1.861,0,0,1,.625.114l-.565-3.089a3.63,3.63,0,0,0-1.028-.155,3.3,3.3,0,0,0-.405.025,2.77,2.77,0,0,0-1.238.454,3.492,3.492,0,0,0-.9.921,3.8,3.8,0,0,0-.549,1.217l-.48-.7Zm-11.341,2.1-3.152.034a15.7,15.7,0,0,0,.5,5.2,5.978,5.978,0,0,0,1.49,2.167,5.808,5.808,0,0,0,2.194,1.377,5.075,5.075,0,0,0,1.646.289,4.359,4.359,0,0,0,.709-.057,3.383,3.383,0,0,0,1.919-.973,2.637,2.637,0,0,0,.76-2.441,5.627,5.627,0,0,0-1.751-2.868c-.679-.667-.9-1.129-.665-1.371a.412.412,0,0,1,.3-.118.937.937,0,0,1,.312.063,2.428,2.428,0,0,1,.854.579,4.469,4.469,0,0,1,.814,1.13,9.791,9.791,0,0,1,.646,1.681l2.617-.617a7.683,7.683,0,0,0-.638-2.465,6.5,6.5,0,0,0-1.373-2.008,5.229,5.229,0,0,0-1.96-1.221,4.825,4.825,0,0,0-1.588-.286,4.074,4.074,0,0,0-.551.037,2.815,2.815,0,0,0-1.687.812,2.849,2.849,0,0,0-.784,1.586,3.953,3.953,0,0,0,.177,1.911,4.252,4.252,0,0,0,1.059,1.685,2.538,2.538,0,0,0,.277.244,3.117,3.117,0,0,1,.616.748.365.365,0,0,1-.039.449.458.458,0,0,1-.339.128,1.1,1.1,0,0,1-.342-.064,2.441,2.441,0,0,1-.918-.6,3.372,3.372,0,0,1-.756-1.073,7.325,7.325,0,0,1-.372-3.475,4.177,4.177,0,0,0,.024-.487Zm-5.18-6.466-3.895.738,1.558,9.013a4.4,4.4,0,0,1,2.309,2.358l1.694-.321-1.666-11.787Zm23.379,6.652h0l-2.157,2.7a5.036,5.036,0,0,0,1.858,1.678,5.727,5.727,0,0,0,2.527.7c.076,0,.149,0,.225,0a4.913,4.913,0,0,0,2.3-.562,5.074,5.074,0,0,0,1.894-1.7,4.606,4.606,0,0,0,.778-2.4,3.382,3.382,0,0,0-1.044-2.758,4.864,4.864,0,0,0-3.18-1.107c-.94-.038-1.409-.264-1.393-.669a.649.649,0,0,1,.418-.544,1.946,1.946,0,0,1,.883-.183l.128,0a3.727,3.727,0,0,1,1.345.336,9.031,9.031,0,0,1,1.584.958l1.528-2.654a7.51,7.51,0,0,0-2.093-1.65,5.476,5.476,0,0,0-2.336-.657c-.062,0-.126,0-.189,0a4.457,4.457,0,0,0-2.062.511,4.773,4.773,0,0,0-1.745,1.507,3.841,3.841,0,0,0-.714,2.074,3.905,3.905,0,0,0,.465,2.025,4.2,4.2,0,0,0,1.388,1.537,3.644,3.644,0,0,0,1.892.628l.144,0a1.46,1.46,0,0,0,.221-.013,2.683,2.683,0,0,1,.947.162.427.427,0,0,1,.267.425.741.741,0,0,1-.461.605,2,2,0,0,1-.95.215l-.124,0a3.1,3.1,0,0,1-1.263-.332,3.53,3.53,0,0,1-1.083-.839Zm-37.179-5.516h0l-2.105,2.31a10.086,10.086,0,0,0,2.758,2.144,6.825,6.825,0,0,0,2.753.6,5.691,5.691,0,0,0,2.6-.608,5.031,5.031,0,0,0,1.917-1.663,4.07,4.07,0,0,0,.717-2.322,3.309,3.309,0,0,0-.608-2.01,3.724,3.724,0,0,0-1.672-1.25,6.537,6.537,0,0,0-2.415-.422,4.554,4.554,0,0,1-1.284-.161c-.358-.107-.54-.269-.54-.482s.153-.377.456-.522a2.471,2.471,0,0,1,1.081-.22,7.14,7.14,0,0,1,4.476,1.681,3.262,3.262,0,0,1,1.09-2.974,9.517,9.517,0,0,0-2.881-1.6,6.871,6.871,0,0,0-2.6-.515,5.531,5.531,0,0,0-2.432.54,4.519,4.519,0,0,0-1.773,1.486,3.652,3.652,0,0,0-.659,2.127,3.579,3.579,0,0,0,.634,2.069,4.378,4.378,0,0,0,1.688,1.444,5.133,5.133,0,0,0,2.306.524,3.048,3.048,0,0,1,1.047.152.522.522,0,0,1,.4.489.718.718,0,0,1-.422.592,2.131,2.131,0,0,1-1.1.253,3.457,3.457,0,0,1-1.478-.347,8.688,8.688,0,0,1-1.96-1.312Zm15.564-16.417.268,21.036h3.215v-21.036Zm7.954,15.241,0,0,3.51,5.5,2.875-1.84-3.472-5.034,4.945-7.976c-2.155,1.684-3.071,2.181-4.985,2.233l-2.875,4.546.017-4.681a9.177,9.177,0,0,1-3.28-2.408v13.321l3.246-.034.018-3.625Zm6.4-4.264h0l-.405.685-.023.039c-.439.744-.879,1.487-1.319,2.235.021.02,2.316,2.138,4.625,2.138a3.322,3.322,0,0,0,1.749-.476l.2-.131.088-.057a6.871,6.871,0,0,0,2.678-2.765c1.143-1.773,3.505-5.641,3.967-6.4l.012-.019a23.99,23.99,0,0,0-2.243-3.02c0,.005-.05.089-.13.229-1.415,2.456-2.4,4.146-2.942,5.022-.027-.741-.1-2.76-.32-8.171-.007-.17-.011-.268-.011-.276a25.881,25.881,0,0,0-3.732-2.35c0,.02.044.432.113,1.115.3,2.96,1.084,10.824,1.341,13.628a1.6,1.6,0,0,1-.927.349,1.7,1.7,0,0,1-.462-.071,3.709,3.709,0,0,1-1-.53,7.639,7.639,0,0,1-1.26-1.177Zm-18.31-.219a2.666,2.666,0,0,0-.5.049,2.485,2.485,0,0,0-1.52.888,1.859,1.859,0,0,0-.406,1.575,1.894,1.894,0,0,0,.525.988,2.387,2.387,0,0,0,.985.608,2.3,2.3,0,0,0,.714.119,2.055,2.055,0,0,0,.392-.039,2.014,2.014,0,0,0,1.373-.906,2.247,2.247,0,0,0,.3-1.7,1.876,1.876,0,0,0-.814-1.288A1.9,1.9,0,0,0-5910.866-1777.767Zm-3.991-6.231h0l.375,1.892c.108.5.214.917.315,1.229a3.508,3.508,0,0,0,1.487,2.135,2.362,2.362,0,0,0,1.114.259,4.169,4.169,0,0,0,1.281-.228,4.319,4.319,0,0,0,1.706-.971c.057-.056.109-.1.156-.15l.02-.018a1.54,1.54,0,0,0,.553-.914v-4.149a25.352,25.352,0,0,1-1.811,2.542,1.431,1.431,0,0,1-.64.4.781.781,0,0,1-.242.04.806.806,0,0,1-.51-.2,1.909,1.909,0,0,1-.564-.919,4.153,4.153,0,0,1-.1-.423l-.308-1.477,2.376-.778-1.146-2.481-1.764.611-.512-2.475a23.868,23.868,0,0,0-2.618,1.815l.323,1.615-3.217,1.122a23.668,23.668,0,0,0-2.657,3.607l6.384-2.091Zm18.078-8.854a5.459,5.459,0,0,0-2.831.763,5.68,5.68,0,0,0-2.034,2.066,5.659,5.659,0,0,0-.752,2.872,5.824,5.824,0,0,0,.784,2.935,6.065,6.065,0,0,0,2.12,2.184,5.444,5.444,0,0,0,2.881.815,5.8,5.8,0,0,0,2.607-.635,5.814,5.814,0,0,0,2.066-1.685,3.625,3.625,0,0,0,.8-2.215l-3.52-.339a1.812,1.812,0,0,1-.709.806,1.927,1.927,0,0,1-1.048.317,2.04,2.04,0,0,1-1.071-.317,2.557,2.557,0,0,1-.837-.827,1.947,1.947,0,0,1-.317-1.038,1.92,1.92,0,0,1,.667-1.431,2.173,2.173,0,0,1,1.516-.625,1.827,1.827,0,0,1,1.113.37,1.9,1.9,0,0,1,.688.986l3.562-.318a3.773,3.773,0,0,0-.827-2.331,5.845,5.845,0,0,0-2.151-1.718A6.215,6.215,0,0,0-5896.779-1792.852Zm-8.235-.1a2.152,2.152,0,0,0-1.458.532,1.708,1.708,0,0,0-.608,1.333,1.747,1.747,0,0,0,.292.967,2.123,2.123,0,0,0,.75.708,1.883,1.883,0,0,0,.942.259,1.749,1.749,0,0,0,1.333-.576,2.066,2.066,0,0,0,.534-1.458,1.727,1.727,0,0,0-.492-1.282A1.773,1.773,0,0,0-5905.014-1792.956Zm8.459,38.219h0a2.013,2.013,0,0,1,1.589-2.072,1.791,1.791,0,0,1,.5-.074,1.794,1.794,0,0,1,.558.092,1.5,1.5,0,0,1,.839.741l-3.485,1.314Z" transform="translate(5927.124 1795.929)" fill="#fff" stroke="rgba(0,0,0,0)" stroke-miterlimit="10" stroke-width="1"/>
  </g>
</svg>
