<svg id="ux-ui" xmlns="http://www.w3.org/2000/svg" width="82.542" height="83.231" viewBox="0 0 82.542 83.231">
  <rect id="Rectángulo_35" data-name="Rectángulo 35" width="82.526" height="83.231" rx="6.958" transform="translate(0 0)" fill="#343a77"/>
  <path id="Rectángulo_36" data-name="Rectángulo 36" d="M6.958,0h68.48A6.958,6.958,0,0,1,82.4,6.958v15.7a0,0,0,0,1,0,0H0a0,0,0,0,1,0,0V6.958A6.958,6.958,0,0,1,6.958,0Z" transform="translate(0.146 0.428)" fill="#161616"/>
  <rect id="Rectángulo_37" data-name="Rectángulo 37" width="38.589" height="9.132" rx="1.984" transform="translate(37.362 7.191)" fill="#fff"/>
  <circle id="Elipse_9" data-name="Elipse 9" cx="4.566" cy="4.566" r="4.566" transform="translate(7.39 7.191)" fill="#343a77"/>
  <circle id="Elipse_10" data-name="Elipse 10" cx="4.566" cy="4.566" r="4.566" transform="translate(20.977 7.191)" fill="#343a77"/>
  <rect id="Rectángulo_38" data-name="Rectángulo 38" width="38.486" height="24.994" transform="translate(7.39 30.228)" fill="#fff"/>
  <rect id="Rectángulo_39" data-name="Rectángulo 39" width="22.796" height="45.181" transform="translate(53.017 30.228)" fill="#fff"/>
  <rect id="Rectángulo_40" data-name="Rectángulo 40" width="38.486" height="13.183" transform="translate(7.39 62.226)" fill="#fff"/>
</svg>
